  0
SECTION
  2
HEADER
  9
$ACADVER
  1
AC1032
  9
$ACADMAINTVER
 90
      329
  9
$DWGCODEPAGE
  3
ANSI_1252
  9
$REQUIREDVERSIONS
160
                 0
  9
$INSBASE
 10
0.0
 20
0.0
 30
0.0
  9
$EXTMIN
 10
1.000000000000000E+20
 20
1.000000000000000E+20
 30
1.000000000000000E+20
  9
$EXTMAX
 10
-1.000000000000000E+20
 20
-1.000000000000000E+20
 30
-1.000000000000000E+20
  9
$LIMMIN
 10
0.0
 20
0.0
  9
$LIMMAX
 10
12.0
 20
9.0
  9
$ORTHOMODE
 70
     0
  9
$REGENMODE
 70
     1
  9
$FILLMODE
 70
     1
  9
$QTEXTMODE
 70
     0
  9
$MIRRTEXT
 70
     0
  9
$LTSCALE
 40
1.0
  9
$ATTMODE
 70
     1
  9
$TEXTSIZE
 40
0.2
  9
$TRACEWID
 40
0.05
  9
$TEXTSTYLE
  7
Standard
  9
$CLAYER
  8
0
  9
$CELTYPE
  6
ByLayer
  9
$CECOLOR
 62
   256
  9
$CELTSCALE
 40
1.0
  9
$DISPSILH
 70
     0
  9
$DIMSCALE
 40
1.0
  9
$DIMASZ
 40
0.18
  9
$DIMEXO
 40
0.0625
  9
$DIMDLI
 40
0.38
  9
$DIMRND
 40
0.0
  9
$DIMDLE
 40
0.0
  9
$DIMEXE
 40
0.18
  9
$DIMTP
 40
0.0
  9
$DIMTM
 40
0.0
  9
$DIMTXT
 40
0.18
  9
$DIMCEN
 40
0.09
  9
$DIMTSZ
 40
0.0
  9
$DIMTOL
 70
     0
  9
$DIMLIM
 70
     0
  9
$DIMTIH
 70
     1
  9
$DIMTOH
 70
     1
  9
$DIMSE1
 70
     0
  9
$DIMSE2
 70
     0
  9
$DIMTAD
 70
     0
  9
$DIMZIN
 70
     0
  9
$DIMBLK
  1

  9
$DIMASO
 70
     1
  9
$DIMSHO
 70
     1
  9
$DIMPOST
  1

  9
$DIMAPOST
  1

  9
$DIMALT
 70
     0
  9
$DIMALTD
 70
     2
  9
$DIMALTF
 40
25.4
  9
$DIMLFAC
 40
1.0
  9
$DIMTOFL
 70
     0
  9
$DIMTVP
 40
0.0
  9
$DIMTIX
 70
     0
  9
$DIMSOXD
 70
     0
  9
$DIMSAH
 70
     0
  9
$DIMBLK1
  1

  9
$DIMBLK2
  1

  9
$DIMSTYLE
  2
Standard
  9
$DIMCLRD
 70
     0
  9
$DIMCLRE
 70
     0
  9
$DIMCLRT
 70
     0
  9
$DIMTFAC
 40
1.0
  9
$DIMGAP
 40
0.09
  9
$DIMJUST
 70
     0
  9
$DIMSD1
 70
     0
  9
$DIMSD2
 70
     0
  9
$DIMTOLJ
 70
     1
  9
$DIMTZIN
 70
     0
  9
$DIMALTZ
 70
     0
  9
$DIMALTTZ
 70
     0
  9
$DIMUPT
 70
     0
  9
$DIMDEC
 70
     4
  9
$DIMTDEC
 70
     4
  9
$DIMALTU
 70
     2
  9
$DIMALTTD
 70
     2
  9
$DIMTXSTY
  7
Standard
  9
$DIMAUNIT
 70
     0
  9
$DIMADEC
 70
     0
  9
$DIMALTRND
 40
0.0
  9
$DIMAZIN
 70
     0
  9
$DIMDSEP
 70
    46
  9
$DIMATFIT
 70
     3
  9
$DIMFRAC
 70
     0
  9
$DIMLDRBLK
  1

  9
$DIMLUNIT
 70
     2
  9
$DIMLWD
 70
    -2
  9
$DIMLWE
 70
    -2
  9
$DIMTMOVE
 70
     0
  9
$DIMFXL
 40
1.0
  9
$DIMFXLON
 70
     0
  9
$DIMJOGANG
 40
0.7853981633974483
  9
$DIMTFILL
 70
     0
  9
$DIMTFILLCLR
 70
     0
  9
$DIMARCSYM
 70
     0
  9
$DIMLTYPE
  6

  9
$DIMLTEX1
  6

  9
$DIMLTEX2
  6

  9
$DIMTXTDIRECTION
 70
     0
  9
$LUNITS
 70
     2
  9
$LUPREC
 70
     4
  9
$SKETCHINC
 40
0.1
  9
$FILLETRAD
 40
0.0
  9
$AUNITS
 70
     0
  9
$AUPREC
 70
     0
  9
$MENU
  1
.
  9
$ELEVATION
 40
0.0
  9
$PELEVATION
 40
0.0
  9
$THICKNESS
 40
0.0
  9
$LIMCHECK
 70
     0
  9
$CHAMFERA
 40
0.0
  9
$CHAMFERB
 40
0.0
  9
$CHAMFERC
 40
0.0
  9
$CHAMFERD
 40
0.0
  9
$SKPOLY
 70
     0
  9
$TDCREATE
 40
2461193.485914352
  9
$TDUCREATE
 40
2461193.694247685
  9
$TDUPDATE
 40
2461193.485914352
  9
$TDUUPDATE
 40
2461193.694247685
  9
$TDINDWG
 40
0.0000000000
  9
$TDUSRTIMER
 40
0.0000000000
  9
$USRTIMER
 70
     1
  9
$ANGBASE
 50
0.0
  9
$ANGDIR
 70
     0
  9
$PDMODE
 70
     0
  9
$PDSIZE
 40
0.0
  9
$PLINEWID
 40
0.0
  9
$SPLFRAME
 70
     0
  9
$SPLINETYPE
 70
     6
  9
$SPLINESEGS
 70
     8
  9
$HANDSEED
  5
AE
  9
$SURFTAB1
 70
     6
  9
$SURFTAB2
 70
     6
  9
$SURFTYPE
 70
     6
  9
$SURFU
 70
     6
  9
$SURFV
 70
     6
  9
$UCSBASE
  2

  9
$UCSNAME
  2

  9
$UCSORG
 10
0.0
 20
0.0
 30
0.0
  9
$UCSXDIR
 10
1.0
 20
0.0
 30
0.0
  9
$UCSYDIR
 10
0.0
 20
1.0
 30
0.0
  9
$UCSORTHOREF
  2

  9
$UCSORTHOVIEW
 70
     0
  9
$UCSORGTOP
 10
0.0
 20
0.0
 30
0.0
  9
$UCSORGBOTTOM
 10
0.0
 20
0.0
 30
0.0
  9
$UCSORGLEFT
 10
0.0
 20
0.0
 30
0.0
  9
$UCSORGRIGHT
 10
0.0
 20
0.0
 30
0.0
  9
$UCSORGFRONT
 10
0.0
 20
0.0
 30
0.0
  9
$UCSORGBACK
 10
0.0
 20
0.0
 30
0.0
  9
$PUCSBASE
  2

  9
$PUCSNAME
  2

  9
$PUCSORG
 10
0.0
 20
0.0
 30
0.0
  9
$PUCSXDIR
 10
1.0
 20
0.0
 30
0.0
  9
$PUCSYDIR
 10
0.0
 20
1.0
 30
0.0
  9
$PUCSORTHOREF
  2

  9
$PUCSORTHOVIEW
 70
     0
  9
$PUCSORGTOP
 10
0.0
 20
0.0
 30
0.0
  9
$PUCSORGBOTTOM
 10
0.0
 20
0.0
 30
0.0
  9
$PUCSORGLEFT
 10
0.0
 20
0.0
 30
0.0
  9
$PUCSORGRIGHT
 10
0.0
 20
0.0
 30
0.0
  9
$PUCSORGFRONT
 10
0.0
 20
0.0
 30
0.0
  9
$PUCSORGBACK
 10
0.0
 20
0.0
 30
0.0
  9
$USERI1
 70
     0
  9
$USERI2
 70
     0
  9
$USERI3
 70
     0
  9
$USERI4
 70
     0
  9
$USERI5
 70
     0
  9
$USERR1
 40
0.0
  9
$USERR2
 40
0.0
  9
$USERR3
 40
0.0
  9
$USERR4
 40
0.0
  9
$USERR5
 40
0.0
  9
$WORLDVIEW
 70
     1
  9
$SHADEDGE
 70
     3
  9
$SHADEDIF
 70
    70
  9
$TILEMODE
 70
     1
  9
$MAXACTVP
 70
    64
  9
$PINSBASE
 10
0.0
 20
0.0
 30
0.0
  9
$PLIMCHECK
 70
     0
  9
$PEXTMIN
 10
1.000000000000000E+20
 20
1.000000000000000E+20
 30
1.000000000000000E+20
  9
$PEXTMAX
 10
-1.000000000000000E+20
 20
-1.000000000000000E+20
 30
-1.000000000000000E+20
  9
$PLIMMIN
 10
0.0
 20
0.0
  9
$PLIMMAX
 10
12.0
 20
9.0
  9
$UNITMODE
 70
     0
  9
$VISRETAIN
 70
     1
  9
$PLINEGEN
 70
     0
  9
$PSLTSCALE
 70
     1
  9
$TREEDEPTH
 70
  3020
  9
$CMLSTYLE
  2
Standard
  9
$CMLJUST
 70
     0
  9
$CMLSCALE
 40
1.0
  9
$PROXYGRAPHICS
 70
     1
  9
$MEASUREMENT
 70
     0
  9
$CELWEIGHT
370
    -1
  9
$ENDCAPS
280
     0
  9
$JOINSTYLE
280
     0
  9
$LWDISPLAY
290
     1
  9
$INSUNITS
 70
     4
  9
$HYPERLINKBASE
  1

  9
$STYLESHEET
  1

  9
$XEDIT
290
     1
  9
$CEPSNTYPE
380
     0
  9
$PSTYLEMODE
290
     1
  9
$FINGERPRINTGUID
  2
{3CE030FE-8DD8-B74D-BBC5-C8387C49D997}
  9
$VERSIONGUID
  2
{FE59BA03-46B0-D941-BA7E-6E06E010AE05}
  9
$EXTNAMES
290
     1
  9
$PSVPSCALE
 40
0.0
  9
$OLESTARTUP
290
     0
  9
$SORTENTS
280
   127
  9
$INDEXCTL
280
     0
  9
$HIDETEXT
280
     1
  9
$XCLIPFRAME
280
     2
  9
$HALOGAP
280
     0
  9
$OBSCOLOR
 70
   257
  9
$OBSLTYPE
280
     0
  9
$INTERSECTIONDISPLAY
280
     0
  9
$INTERSECTIONCOLOR
 70
   257
  9
$DIMASSOC
280
     2
  9
$PROJECTNAME
  1

  9
$CAMERADISPLAY
290
     0
  9
$LENSLENGTH
 40
50.0
  9
$CAMERAHEIGHT
 40
0.0
  9
$STEPSPERSEC
 40
2.0
  9
$STEPSIZE
 40
6.0
  9
$3DDWFPREC
 40
2.0
  9
$PSOLWIDTH
 40
0.25
  9
$PSOLHEIGHT
 40
4.0
  9
$LOFTANG1
 40
1.570796326794896
  9
$LOFTANG2
 40
1.570796326794896
  9
$LOFTMAG1
 40
0.0
  9
$LOFTMAG2
 40
0.0
  9
$LOFTPARAM
 70
     7
  9
$LOFTNORMALS
280
     1
  9
$LATITUDE
 40
37.795
  9
$LONGITUDE
 40
-122.394
  9
$NORTHDIRECTION
 40
0.0
  9
$TIMEZONE
 70
 -8000
  9
$LIGHTGLYPHDISPLAY
280
     1
  9
$TILEMODELIGHTSYNCH
280
     1
  9
$CMATERIAL
347
11
  9
$SOLIDHIST
280
     0
  9
$SHOWHIST
280
     1
  9
$DWFFRAME
280
     2
  9
$DGNFRAME
280
     0
  9
$REALWORLDSCALE
290
     1
  9
$INTERFERECOLOR
 62
     1
  9
$INTERFEREOBJVS
345
33
  9
$INTERFEREVPVS
346
30
  9
$CSHADOW
280
     0
  9
$SHADOWPLANELOCATION
 40
0.0
  0
ENDSEC
  0
SECTION
  2
CLASSES
  0
CLASS
  1
ACDBDICTIONARYWDFLT
  2
AcDbDictionaryWithDefault
  3
ObjectDBX Classes
 90
        0
 91
        1
280
     0
281
     0
  0
CLASS
  1
MATERIAL
  2
AcDbMaterial
  3
ObjectDBX Classes
 90
     1153
 91
        3
280
     0
281
     0
  0
CLASS
  1
VISUALSTYLE
  2
AcDbVisualStyle
  3
ObjectDBX Classes
 90
     4095
 91
       24
280
     0
281
     0
  0
CLASS
  1
SCALE
  2
AcDbScale
  3
ObjectDBX Classes
 90
     1153
 91
       17
280
     0
281
     0
  0
CLASS
  1
TABLESTYLE
  2
AcDbTableStyle
  3
ObjectDBX Classes
 90
     4095
 91
        1
280
     0
281
     0
  0
CLASS
  1
MLEADERSTYLE
  2
AcDbMLeaderStyle
  3
ACDB_MLEADERSTYLE_CLASS
 90
     4095
 91
        1
280
     0
281
     0
  0
CLASS
  1
ACDBSECTIONVIEWSTYLE
  2
AcDbSectionViewStyle
  3
ObjectDBX Classes
 90
     1025
 91
        1
280
     0
281
     0
  0
CLASS
  1
ACDBDETAILVIEWSTYLE
  2
AcDbDetailViewStyle
  3
ObjectDBX Classes
 90
     1025
 91
        1
280
     0
281
     0
  0
CLASS
  1
DICTIONARYVAR
  2
AcDbDictionaryVar
  3
ObjectDBX Classes
 90
        0
 91
        5
280
     0
281
     0
  0
CLASS
  1
CELLSTYLEMAP
  2
AcDbCellStyleMap
  3
ObjectDBX Classes
 90
     1152
 91
        1
280
     0
281
     0
  0
ENDSEC
  0
SECTION
  2
TABLES
  0
TABLE
  2
VPORT
  5
8
330
0
100
AcDbSymbolTable
 70
     1
  0
VPORT
  5
57
330
8
100
AcDbSymbolTableRecord
100
AcDbViewportTableRecord
  2
*Active
 70
     0
 10
0.0
 20
0.0
 11
1.0
 21
1.0
 12
0.0
 22
0.0
 13
0.0
 23
0.0
 14
1.0
 24
1.0
 15
0.0
 25
0.0
 16
0.0
 26
0.0
 36
1.0
 17
145.3236737109409
 27
78.06071076479298
 37
0.0
 40
159.335649960178
 41
1.861178552599092
 42
50.0
 43
0.0
 44
0.0
 50
0.0
 51
0.0
 71
     0
 72
   100
 73
     1
 74
     1
 75
     0
 76
     0
 77
     0
 78
     0
281
     0
 65
     1
110
0.0
120
0.0
130
0.0
111
1.0
121
0.0
131
0.0
112
0.0
122
1.0
132
0.0
 79
     0
146
0.0
 60
     3
 61
     5
292
     1
282
     1
141
0.0
142
0.0
 63
   250
421
  3355443
  0
ENDTAB
  0
TABLE
  2
LTYPE
  5
5
330
0
100
AcDbSymbolTable
 70
     1
  0
LTYPE
  5
5B
330
5
100
AcDbSymbolTableRecord
100
AcDbLinetypeTableRecord
  2
ByBlock
 70
     0
  3

 72
    65
 73
     0
 40
0.0
  0
LTYPE
  5
5C
330
5
100
AcDbSymbolTableRecord
100
AcDbLinetypeTableRecord
  2
ByLayer
 70
     0
  3

 72
    65
 73
     0
 40
0.0
  0
LTYPE
  5
5D
330
5
100
AcDbSymbolTableRecord
100
AcDbLinetypeTableRecord
  2
Continuous
 70
     0
  3
Solid line
 72
    65
 73
     0
 40
0.0
  0
ENDTAB
  0
TABLE
  2
LAYER
  5
2
330
0
100
AcDbSymbolTable
 70
     3
  0
LAYER
  5
54
330
2
100
AcDbSymbolTableRecord
100
AcDbLayerTableRecord
  2
0
 70
     0
 62
     7
  6
Continuous
370
    -3
390
F
347
21
348
0
  0
LAYER
  5
78
330
2
100
AcDbSymbolTableRecord
100
AcDbLayerTableRecord
  2
MDF
 70
     0
 62
     7
  6
Continuous
370
     0
390
F
347
21
348
0
  0
LAYER
  5
7C
330
2
100
AcDbSymbolTableRecord
100
AcDbLayerTableRecord
  2
acrylic
 70
     0
 62
     7
  6
Continuous
370
     0
390
F
347
21
348
0
  0
ENDTAB
  0
TABLE
  2
STYLE
  5
3
330
0
100
AcDbSymbolTable
 70
     2
  0
STYLE
  5
55
330
3
100
AcDbSymbolTableRecord
100
AcDbTextStyleTableRecord
  2
Standard
 70
     0
 40
0.0
 41
1.0
 50
0.0
 71
     0
 42
0.2
  3
txt
  4

  0
STYLE
  5
5A
330
3
100
AcDbSymbolTableRecord
100
AcDbTextStyleTableRecord
  2
Annotative
 70
     0
 40
0.0
 41
1.0
 50
0.0
 71
     0
 42
0.2
  3
txt
  4

1001
AcadAnnotative
1000
AnnotativeData
1002
{
1070
     1
1070
     1
1002
}
  0
ENDTAB
  0
TABLE
  2
VIEW
  5
6
330
0
100
AcDbSymbolTable
 70
     0
  0
ENDTAB
  0
TABLE
  2
UCS
  5
7
330
0
100
AcDbSymbolTable
 70
     0
  0
ENDTAB
  0
TABLE
  2
APPID
  5
9
330
0
100
AcDbSymbolTable
 70
     2
  0
APPID
  5
56
330
9
100
AcDbSymbolTableRecord
100
AcDbRegAppTableRecord
  2
ACAD
 70
     0
  0
APPID
  5
5E
330
9
100
AcDbSymbolTableRecord
100
AcDbRegAppTableRecord
  2
AcadAnnotative
 70
     0
  0
ENDTAB
  0
TABLE
  2
DIMSTYLE
  5
A
330
0
100
AcDbSymbolTable
 70
     2
100
AcDbDimStyleTable
 71
     0
  0
DIMSTYLE
105
58
330
A
100
AcDbSymbolTableRecord
100
AcDbDimStyleTableRecord
  2
Standard
 70
     0
340
55
  0
DIMSTYLE
105
59
330
A
100
AcDbSymbolTableRecord
100
AcDbDimStyleTableRecord
  2
Annotative
 70
     0
340
55
1001
AcadAnnotative
1000
AnnotativeData
1002
{
1070
     1
1070
     1
1002
}
  0
ENDTAB
  0
TABLE
  2
BLOCK_RECORD
  5
1
330
0
100
AcDbSymbolTable
 70
     1
  0
BLOCK_RECORD
  5
70
330
1
100
AcDbSymbolTableRecord
100
AcDbBlockTableRecord
  2
*Model_Space
340
73
 70
     0
280
     1
281
     0
  0
BLOCK_RECORD
  5
6C
330
1
100
AcDbSymbolTableRecord
100
AcDbBlockTableRecord
  2
*Paper_Space
340
6F
 70
     0
280
     1
281
     0
  0
BLOCK_RECORD
  5
74
330
1
100
AcDbSymbolTableRecord
100
AcDbBlockTableRecord
  2
*Paper_Space0
340
77
 70
     0
280
     1
281
     0
  0
ENDTAB
  0
ENDSEC
  0
SECTION
  2
BLOCKS
  0
BLOCK
  5
71
330
70
100
AcDbEntity
  8
0
100
AcDbBlockBegin
  2
*Model_Space
 70
     0
 10
0.0
 20
0.0
 30
0.0
  3
*Model_Space
  1

  0
ENDBLK
  5
72
330
70
100
AcDbEntity
  8
0
100
AcDbBlockEnd
  0
BLOCK
  5
6D
330
6C
100
AcDbEntity
 67
     1
  8
0
100
AcDbBlockBegin
  2
*Paper_Space
 70
     0
 10
0.0
 20
0.0
 30
0.0
  3
*Paper_Space
  1

  0
ENDBLK
  5
6E
330
6C
100
AcDbEntity
 67
     1
  8
0
100
AcDbBlockEnd
  0
BLOCK
  5
75
330
74
100
AcDbEntity
 67
     1
  8
0
100
AcDbBlockBegin
  2
*Paper_Space0
 70
     0
 10
0.0
 20
0.0
 30
0.0
  3
*Paper_Space0
  1

  0
ENDBLK
  5
76
330
74
100
AcDbEntity
 67
     1
  8
0
100
AcDbBlockEnd
  0
ENDSEC
  0
SECTION
  2
ENTITIES
  0
SPLINE
  5
79
330
70
100
AcDbEntity
  8
MDF
100
AcDbSpline
210
0.0
220
0.0
230
1.0
 70
    11
 71
     3
 72
    38
 73
    34
 74
     0
 42
0.0000000001
 43
0.0000000001
 40
0.0
 40
0.0
 40
0.0
 40
0.0
 40
1.0
 40
1.0
 40
1.0
 40
2.0
 40
2.0
 40
2.0
 40
3.0
 40
3.0
 40
3.0
 40
4.0
 40
4.0
 40
4.0
 40
5.0
 40
5.0
 40
5.0
 40
6.0
 40
6.0
 40
6.0
 40
7.0
 40
7.0
 40
7.0
 40
8.0
 40
8.0
 40
8.0
 40
9.0
 40
9.0
 40
9.0
 40
10.0
 40
10.0
 40
10.0
 40
11.0
 40
11.0
 40
11.0
 40
11.0
 10
16.1659383097606
 20
16.1659383097606
 30
0.0
 10
16.1659383097606
 20
16.1659383097606
 30
0.0
 10
11.57249455048416
 20
20.75938206903703
 30
0.0
 10
11.57249455048416
 20
20.75938206903703
 30
0.0
 10
11.57249455048416
 20
20.75938206903703
 30
0.0
 10
11.57249455048416
 20
31.69472704323841
 30
0.0
 10
11.57249455048416
 20
31.69472704323841
 30
0.0
 10
11.57249455048416
 20
31.69472704323841
 30
0.0
 10
16.1659383097606
 20
36.13712330800082
 30
0.0
 10
16.1659383097606
 20
36.13712330800082
 30
0.0
 10
16.1659383097606
 20
36.13712330800082
 30
0.0
 10
16.1659383097606
 20
34.92499999126843
 30
0.0
 10
16.1659383097606
 20
34.92499999126843
 30
0.0
 10
16.1659383097606
 20
34.92499999126843
 30
0.0
 10
16.1659383097606
 20
84.16299368555646
 30
0.0
 10
16.1659383097606
 20
84.16299368555646
 30
0.0
 10
16.1659383097606
 20
84.16299368555646
 30
0.0
 10
250.4901366561275
 20
84.16299368555646
 30
0.0
 10
250.4901366561275
 20
84.16299368555646
 30
0.0
 10
250.4901366561275
 20
84.16299368555646
 30
0.0
 10
250.4901366561275
 20
38.04628858757908
 30
0.0
 10
250.4901366561275
 20
38.04628858757908
 30
0.0
 10
250.4901366561275
 20
38.04628858757908
 30
0.0
 10
255.0835804154043
 20
33.45284482830232
 30
0.0
 10
255.0835804154043
 20
33.45284482830232
 30
0.0
 10
255.0835804154043
 20
33.45284482830232
 30
0.0
 10
255.0835804154043
 20
20.75938206903703
 30
0.0
 10
255.0835804154043
 20
20.75938206903703
 30
0.0
 10
255.0835804154043
 20
20.75938206903703
 30
0.0
 10
250.4901366561275
 20
16.1659383097606
 30
0.0
 10
250.4901366561275
 20
16.1659383097606
 30
0.0
 10
250.4901366561275
 20
16.1659383097606
 30
0.0
 10
16.1659383097606
 20
16.1659383097606
 30
0.0
 10
16.1659383097606
 20
16.1659383097606
 30
0.0
  0
SPLINE
  5
7A
330
70
100
AcDbEntity
  8
MDF
100
AcDbSpline
210
0.0
220
0.0
230
1.0
 70
    11
 71
     3
 72
    89
 73
    85
 74
     0
 42
0.0000000001
 43
0.0000000001
 40
0.0
 40
0.0
 40
0.0
 40
0.0
 40
1.0
 40
1.0
 40
1.0
 40
2.0
 40
2.0
 40
2.0
 40
3.0
 40
3.0
 40
3.0
 40
4.0
 40
4.0
 40
4.0
 40
5.0
 40
5.0
 40
5.0
 40
6.0
 40
6.0
 40
6.0
 40
7.0
 40
7.0
 40
7.0
 40
8.0
 40
8.0
 40
8.0
 40
9.0
 40
9.0
 40
9.0
 40
10.0
 40
10.0
 40
10.0
 40
11.0
 40
11.0
 40
11.0
 40
12.0
 40
12.0
 40
12.0
 40
13.0
 40
13.0
 40
13.0
 40
14.0
 40
14.0
 40
14.0
 40
15.0
 40
15.0
 40
15.0
 40
16.0
 40
16.0
 40
16.0
 40
17.0
 40
17.0
 40
17.0
 40
18.0
 40
18.0
 40
18.0
 40
19.0
 40
19.0
 40
19.0
 40
20.0
 40
20.0
 40
20.0
 40
21.0
 40
21.0
 40
21.0
 40
22.0
 40
22.0
 40
22.0
 40
23.0
 40
23.0
 40
23.0
 40
24.0
 40
24.0
 40
24.0
 40
25.0
 40
25.0
 40
25.0
 40
26.0
 40
26.0
 40
26.0
 40
27.0
 40
27.0
 40
27.0
 40
28.0
 40
28.0
 40
28.0
 40
28.0
 10
250.4901366561275
 20
133.3279944192508
 30
0.0
 10
250.4901366561275
 20
133.3279944192508
 30
0.0
 10
250.4901366561275
 20
133.3057735533709
 30
0.0
 10
250.4901366561275
 20
133.3057735533709
 30
0.0
 10
250.4901366561275
 20
133.3057735533709
 30
0.0
 10
250.4921091421695
 20
133.3057735533709
 30
0.0
 10
250.4921091421695
 20
133.3057735533709
 30
0.0
 10
250.4921091421695
 20
133.3057735533709
 30
0.0
 10
250.4921091421695
 20
128.3057772845468
 30
0.0
 10
250.4921091421695
 20
128.3057772845468
 30
0.0
 10
250.4921091421695
 20
128.3057772845468
 30
0.0
 10
250.4901366561275
 20
128.3057772845468
 30
0.0
 10
250.4901366561275
 20
128.3057772845468
 30
0.0
 10
250.4901366561275
 20
128.3057772845468
 30
0.0
 10
250.4901366561275
 20
99.16300402387463
 30
0.0
 10
250.4901366561275
 20
99.16300402387463
 30
0.0
 10
250.4901366561275
 20
99.16300402387463
 30
0.0
 10
112.2386697084746
 20
99.16300402387463
 30
0.0
 10
112.2386697084746
 20
99.16300402387463
 30
0.0
 10
112.2386697084746
 20
99.16300402387463
 30
0.0
 10
110.5785399897203
 20
97.13148145719948
 30
0.0
 10
110.5785399897203
 20
97.13148145719948
 30
0.0
 10
110.5785399897203
 20
97.13148145719948
 30
0.0
 10
57.50736264713395
 20
97.13148145719948
 30
0.0
 10
57.50736264713395
 20
97.13148145719948
 30
0.0
 10
57.50736264713395
 20
97.13148145719948
 30
0.0
 10
55.35152493636865
 20
99.16300402387463
 30
0.0
 10
55.35152493636865
 20
99.16300402387463
 30
0.0
 10
55.35152493636865
 20
99.16300402387463
 30
0.0
 10
16.1659383097606
 20
99.16300402387463
 30
0.0
 10
16.1659383097606
 20
99.16300402387463
 30
0.0
 10
16.1659383097606
 20
99.16300402387463
 30
0.0
 10
16.1659383097606
 20
128.3279981504267
 30
0.0
 10
16.1659383097606
 20
128.3279981504267
 30
0.0
 10
16.1659383097606
 20
128.3279981504267
 30
0.0
 10
127.3857860670576
 20
128.3279981504267
 30
0.0
 10
127.3857860670576
 20
128.3279981504267
 30
0.0
 10
127.6818704921681
 20
125.3081351072906
 30
0.0
 10
130.227365418832
 20
122.948287763588
 30
0.0
 10
133.3250230243944
 20
122.948287763588
 30
0.0
 10
136.4226806299568
 20
122.948287763588
 30
0.0
 10
138.9681755566208
 20
125.3081351072906
 30
0.0
 10
139.2642599817312
 20
128.3279981504267
 30
0.0
 10
139.2642599817312
 20
128.3279981504267
 30
0.0
 10
139.2711328627848
 20
128.3331860589222
 30
0.0
 10
139.2711328627848
 20
128.3331860589222
 30
0.0
 10
139.2711328627848
 20
128.3331860589222
 30
0.0
 10
139.2711328627848
 20
133.3331823277463
 30
0.0
 10
139.2711328627848
 20
133.3331823277463
 30
0.0
 10
139.2711328627848
 20
133.3331823277463
 30
0.0
 10
16.1659383097606
 20
133.3279944192508
 30
0.0
 10
16.1659383097606
 20
133.3279944192508
 30
0.0
 10
16.1659383097606
 20
133.3279944192508
 30
0.0
 10
0.0
 20
133.3279944192508
 30
0.0
 10
0.0
 20
133.3279944192508
 30
0.0
 10
0.0
 20
133.3279944192508
 30
0.0
 10
0.0
 20
128.3279981504267
 30
0.0
 10
0.0
 20
128.3279981504267
 30
0.0
 10
0.0
 20
128.3279981504267
 30
0.0
 10
0.0
 20
99.16300402387463
 30
0.0
 10
0.0
 20
99.16300402387463
 30
0.0
 10
0.0
 20
99.16300402387463
 30
0.0
 10
0.0
 20
84.16299368555646
 30
0.0
 10
0.0
 20
84.16299368555646
 30
0.0
 10
0.0
 20
84.16299368555646
 30
0.0
 10
0.0
 20
16.1659383097606
 30
0.0
 10
0.0
 20
16.1659383097606
 30
0.0
 10
0.0
 20
16.1659383097606
 30
0.0
 10
0.0
 20
-0.0042202419694311
 30
0.0
 10
0.0
 20
-0.0042202419694311
 30
0.0
 10
0.0
 20
-0.0042202419694311
 30
0.0
 10
266.6560103703477
 20
-0.0042202419694311
 30
0.0
 10
266.6560103703477
 20
-0.0042202419694311
 30
0.0
 10
266.6560103703477
 20
-0.0042202419694311
 30
0.0
 10
266.6560103703477
 20
16.1659383097606
 30
0.0
 10
266.6560103703477
 20
16.1659383097606
 30
0.0
 10
266.6560103703477
 20
16.1659383097606
 30
0.0
 10
266.6644293224398
 20
16.1659383097606
 30
0.0
 10
266.6644293224398
 20
16.1659383097606
 30
0.0
 10
266.6644293224398
 20
16.1659383097606
 30
0.0
 10
266.6644293224398
 20
133.3279944192508
 30
0.0
 10
266.6644293224398
 20
133.3279944192508
 30
0.0
 10
266.6644293224398
 20
133.3279944192508
 30
0.0
 10
250.4901366561275
 20
133.3279944192508
 30
0.0
 10
250.4901366561275
 20
133.3279944192508
 30
0.0
  0
HATCH
  5
7B
330
70
100
AcDbEntity
  8
MDF
 62
     4
440
 33554687
100
AcDbHatch
 10
0.0
 20
0.0
 30
0.0
210
0.0
220
0.0
230
1.0
  2
SOLID
 70
     1
 71
     1
 91
        2
 92
        1
 93
        1
 72
     4
 94
        3
 73
     0
 74
     0
 95
       38
 96
       34
 40
0.0
 40
0.0
 40
0.0
 40
0.0
 40
1.0
 40
1.0
 40
1.0
 40
2.0
 40
2.0
 40
2.0
 40
3.0
 40
3.0
 40
3.0
 40
4.0
 40
4.0
 40
4.0
 40
5.0
 40
5.0
 40
5.0
 40
6.0
 40
6.0
 40
6.0
 40
7.0
 40
7.0
 40
7.0
 40
8.0
 40
8.0
 40
8.0
 40
9.0
 40
9.0
 40
9.0
 40
10.0
 40
10.0
 40
10.0
 40
11.0
 40
11.0
 40
11.0
 40
11.0
 10
16.1659383097606
 20
16.1659383097606
 10
16.1659383097606
 20
16.1659383097606
 10
11.57249455048416
 20
20.75938206903703
 10
11.57249455048416
 20
20.75938206903703
 10
11.57249455048416
 20
20.75938206903703
 10
11.57249455048416
 20
31.69472704323841
 10
11.57249455048416
 20
31.69472704323841
 10
11.57249455048416
 20
31.69472704323841
 10
16.1659383097606
 20
36.13712330800082
 10
16.1659383097606
 20
36.13712330800082
 10
16.1659383097606
 20
36.13712330800082
 10
16.1659383097606
 20
34.92499999126843
 10
16.1659383097606
 20
34.92499999126843
 10
16.1659383097606
 20
34.92499999126843
 10
16.1659383097606
 20
84.16299368555646
 10
16.1659383097606
 20
84.16299368555646
 10
16.1659383097606
 20
84.16299368555646
 10
250.4901366561275
 20
84.16299368555646
 10
250.4901366561275
 20
84.16299368555646
 10
250.4901366561275
 20
84.16299368555646
 10
250.4901366561275
 20
38.04628858757908
 10
250.4901366561275
 20
38.04628858757908
 10
250.4901366561275
 20
38.04628858757908
 10
255.0835804154043
 20
33.45284482830232
 10
255.0835804154043
 20
33.45284482830232
 10
255.0835804154043
 20
33.45284482830232
 10
255.0835804154043
 20
20.75938206903703
 10
255.0835804154043
 20
20.75938206903703
 10
255.0835804154043
 20
20.75938206903703
 10
250.4901366561275
 20
16.1659383097606
 10
250.4901366561275
 20
16.1659383097606
 10
250.4901366561275
 20
16.1659383097606
 10
16.1659383097606
 20
16.1659383097606
 10
16.1659383097606
 20
16.1659383097606
 97
        0
 97
        1
330
79
 92
        1
 93
        1
 72
     4
 94
        3
 73
     0
 74
     0
 95
       89
 96
       85
 40
0.0
 40
0.0
 40
0.0
 40
0.0
 40
1.0
 40
1.0
 40
1.0
 40
2.0
 40
2.0
 40
2.0
 40
3.0
 40
3.0
 40
3.0
 40
4.0
 40
4.0
 40
4.0
 40
5.0
 40
5.0
 40
5.0
 40
6.0
 40
6.0
 40
6.0
 40
7.0
 40
7.0
 40
7.0
 40
8.0
 40
8.0
 40
8.0
 40
9.0
 40
9.0
 40
9.0
 40
10.0
 40
10.0
 40
10.0
 40
11.0
 40
11.0
 40
11.0
 40
12.0
 40
12.0
 40
12.0
 40
13.0
 40
13.0
 40
13.0
 40
14.0
 40
14.0
 40
14.0
 40
15.0
 40
15.0
 40
15.0
 40
16.0
 40
16.0
 40
16.0
 40
17.0
 40
17.0
 40
17.0
 40
18.0
 40
18.0
 40
18.0
 40
19.0
 40
19.0
 40
19.0
 40
20.0
 40
20.0
 40
20.0
 40
21.0
 40
21.0
 40
21.0
 40
22.0
 40
22.0
 40
22.0
 40
23.0
 40
23.0
 40
23.0
 40
24.0
 40
24.0
 40
24.0
 40
25.0
 40
25.0
 40
25.0
 40
26.0
 40
26.0
 40
26.0
 40
27.0
 40
27.0
 40
27.0
 40
28.0
 40
28.0
 40
28.0
 40
28.0
 10
250.4901366561275
 20
133.3279944192508
 10
250.4901366561275
 20
133.3279944192508
 10
250.4901366561275
 20
133.3057735533709
 10
250.4901366561275
 20
133.3057735533709
 10
250.4901366561275
 20
133.3057735533709
 10
250.4921091421695
 20
133.3057735533709
 10
250.4921091421695
 20
133.3057735533709
 10
250.4921091421695
 20
133.3057735533709
 10
250.4921091421695
 20
128.3057772845468
 10
250.4921091421695
 20
128.3057772845468
 10
250.4921091421695
 20
128.3057772845468
 10
250.4901366561275
 20
128.3057772845468
 10
250.4901366561275
 20
128.3057772845468
 10
250.4901366561275
 20
128.3057772845468
 10
250.4901366561275
 20
99.16300402387463
 10
250.4901366561275
 20
99.16300402387463
 10
250.4901366561275
 20
99.16300402387463
 10
112.2386697084746
 20
99.16300402387463
 10
112.2386697084746
 20
99.16300402387463
 10
112.2386697084746
 20
99.16300402387463
 10
110.5785399897203
 20
97.13148145719948
 10
110.5785399897203
 20
97.13148145719948
 10
110.5785399897203
 20
97.13148145719948
 10
57.50736264713395
 20
97.13148145719948
 10
57.50736264713395
 20
97.13148145719948
 10
57.50736264713395
 20
97.13148145719948
 10
55.35152493636865
 20
99.16300402387463
 10
55.35152493636865
 20
99.16300402387463
 10
55.35152493636865
 20
99.16300402387463
 10
16.1659383097606
 20
99.16300402387463
 10
16.1659383097606
 20
99.16300402387463
 10
16.1659383097606
 20
99.16300402387463
 10
16.1659383097606
 20
128.3279981504267
 10
16.1659383097606
 20
128.3279981504267
 10
16.1659383097606
 20
128.3279981504267
 10
127.3857860670576
 20
128.3279981504267
 10
127.3857860670576
 20
128.3279981504267
 10
127.6818704921681
 20
125.3081351072906
 10
130.227365418832
 20
122.948287763588
 10
133.3250230243944
 20
122.948287763588
 10
136.4226806299568
 20
122.948287763588
 10
138.9681755566208
 20
125.3081351072906
 10
139.2642599817312
 20
128.3279981504267
 10
139.2642599817312
 20
128.3279981504267
 10
139.2711328627848
 20
128.3331860589222
 10
139.2711328627848
 20
128.3331860589222
 10
139.2711328627848
 20
128.3331860589222
 10
139.2711328627848
 20
133.3331823277463
 10
139.2711328627848
 20
133.3331823277463
 10
139.2711328627848
 20
133.3331823277463
 10
16.1659383097606
 20
133.3279944192508
 10
16.1659383097606
 20
133.3279944192508
 10
16.1659383097606
 20
133.3279944192508
 10
0.0
 20
133.3279944192508
 10
0.0
 20
133.3279944192508
 10
0.0
 20
133.3279944192508
 10
0.0
 20
128.3279981504267
 10
0.0
 20
128.3279981504267
 10
0.0
 20
128.3279981504267
 10
0.0
 20
99.16300402387463
 10
0.0
 20
99.16300402387463
 10
0.0
 20
99.16300402387463
 10
0.0
 20
84.16299368555646
 10
0.0
 20
84.16299368555646
 10
0.0
 20
84.16299368555646
 10
0.0
 20
16.1659383097606
 10
0.0
 20
16.1659383097606
 10
0.0
 20
16.1659383097606
 10
0.0
 20
-0.0042202419694311
 10
0.0
 20
-0.0042202419694311
 10
0.0
 20
-0.0042202419694311
 10
266.6560103703477
 20
-0.0042202419694311
 10
266.6560103703477
 20
-0.0042202419694311
 10
266.6560103703477
 20
-0.0042202419694311
 10
266.6560103703477
 20
16.1659383097606
 10
266.6560103703477
 20
16.1659383097606
 10
266.6560103703477
 20
16.1659383097606
 10
266.6644293224398
 20
16.1659383097606
 10
266.6644293224398
 20
16.1659383097606
 10
266.6644293224398
 20
16.1659383097606
 10
266.6644293224398
 20
133.3279944192508
 10
266.6644293224398
 20
133.3279944192508
 10
266.6644293224398
 20
133.3279944192508
 10
250.4901366561275
 20
133.3279944192508
 10
250.4901366561275
 20
133.3279944192508
 97
        0
 97
        1
330
7A
 75
     2
 76
     1
 98
        1
 10
0.0
 20
0.0
450
        0
451
        0
460
0.0
461
0.0
452
        0
462
0.0
453
        0
470

  0
SPLINE
  5
7D
330
70
100
AcDbEntity
  8
acrylic
 62
     7
370
     9
100
AcDbSpline
210
0.0
220
0.0
230
1.0
 70
     9
 71
     3
 72
    53
 73
    49
 74
     0
 42
0.0000000001
 43
0.0000000001
 40
0.0
 40
0.0
 40
0.0
 40
0.0
 40
1.0
 40
1.0
 40
1.0
 40
2.0
 40
2.0
 40
2.0
 40
3.0
 40
3.0
 40
3.0
 40
4.0
 40
4.0
 40
4.0
 40
5.0
 40
5.0
 40
5.0
 40
6.0
 40
6.0
 40
6.0
 40
7.0
 40
7.0
 40
7.0
 40
8.0
 40
8.0
 40
8.0
 40
9.0
 40
9.0
 40
9.0
 40
10.0
 40
10.0
 40
10.0
 40
11.0
 40
11.0
 40
11.0
 40
12.0
 40
12.0
 40
12.0
 40
13.0
 40
13.0
 40
13.0
 40
14.0
 40
14.0
 40
14.0
 40
15.0
 40
15.0
 40
15.0
 40
16.0
 40
16.0
 40
16.0
 40
16.0
 10
103.4618870845946
 20
99.49590790698366
 30
0.0
 10
103.4618870845946
 20
99.49590790698366
 30
0.0
 10
95.79586061081668
 20
99.49590790698366
 30
0.0
 10
95.79586061081668
 20
99.49590790698366
 30
0.0
 10
94.41747790716823
 20
99.49590790698366
 30
0.0
 10
93.29592707194514
 20
100.6174587422067
 30
0.0
 10
93.29592707194514
 20
101.9960137006294
 30
0.0
 10
93.29592707194514
 20
101.9960137006294
 30
0.0
 10
93.29592707194514
 20
125.5715203715199
 30
0.0
 10
93.29592707194514
 20
125.5715203715199
 30
0.0
 10
93.29592707194514
 20
125.5715203715199
 30
0.0
 10
95.67678584483104
 20
125.5715203715199
 30
0.0
 10
95.67678584483104
 20
125.5715203715199
 30
0.0
 10
95.67678584483104
 20
125.5715203715199
 30
0.0
 10
95.67678584483104
 20
124.5714091521519
 30
0.0
 10
95.67678584483104
 20
124.5714091521519
 30
0.0
 10
95.67678584483104
 20
124.5714091521519
 30
0.0
 10
94.29603829131316
 20
124.5714091521519
 30
0.0
 10
94.29603829131316
 20
124.5714091521519
 30
0.0
 10
94.29603829131316
 20
124.5714091521519
 30
0.0
 10
94.29603829131316
 20
101.9960137006294
 30
0.0
 10
94.29603829131316
 20
101.9960137006294
 30
0.0
 10
94.29603829131316
 20
101.168846274621
 30
0.0
 10
94.96886543958245
 20
100.4960191263517
 30
0.0
 10
95.79586061081668
 20
100.4960191263517
 30
0.0
 10
95.79586061081668
 20
100.4960191263517
 30
0.0
 10
103.4618870845946
 20
100.4960191263517
 30
0.0
 10
103.4618870845946
 20
100.4960191263517
 30
0.0
 10
104.2890545106031
 20
100.4960191263517
 30
0.0
 10
104.9618816588724
 20
101.168846274621
 30
0.0
 10
104.9618816588724
 20
101.9960137006294
 30
0.0
 10
104.9618816588724
 20
101.9960137006294
 30
0.0
 10
104.9618816588724
 20
124.5714091521519
 30
0.0
 10
104.9618816588724
 20
124.5714091521519
 30
0.0
 10
104.9618816588724
 20
124.5714091521519
 30
0.0
 10
103.6365534256977
 20
124.5714091521519
 30
0.0
 10
103.6365534256977
 20
124.5714091521519
 30
0.0
 10
103.6365534256977
 20
124.5714091521519
 30
0.0
 10
103.6365534256977
 20
125.5715203715199
 30
0.0
 10
103.6365534256977
 20
125.5715203715199
 30
0.0
 10
103.6365534256977
 20
125.5715203715199
 30
0.0
 10
105.9619928782404
 20
125.5715203715199
 30
0.0
 10
105.9619928782404
 20
125.5715203715199
 30
0.0
 10
105.9619928782404
 20
125.5715203715199
 30
0.0
 10
105.9619928782404
 20
101.9960137006294
 30
0.0
 10
105.9619928782404
 20
101.9960137006294
 30
0.0
 10
105.9619928782404
 20
100.6174587422067
 30
0.0
 10
104.8404420430173
 20
99.49590790698366
 30
0.0
 10
103.4618870845946
 20
99.49590790698366
 30
0.0
  0
CIRCLE
  5
7E
330
70
100
AcDbEntity
  8
acrylic
 62
     7
370
     9
100
AcDbCircle
 10
4.166499998957615
 20
129.1614999677109
 30
0.0
 40
1.549999999612147
  0
CIRCLE
  5
7F
330
70
100
AcDbEntity
  8
acrylic
 62
     7
370
     9
100
AcDbCircle
 10
262.4894999343746
 20
129.1614999677109
 30
0.0
 40
1.549999999611906
  0
CIRCLE
  5
80
330
70
100
AcDbEntity
  8
acrylic
 62
     7
370
     9
100
AcDbCircle
 10
262.4894999343744
 20
4.166499998958657
 30
0.0
 40
1.549999999612227
  0
CIRCLE
  5
81
330
70
100
AcDbEntity
  8
acrylic
 62
     7
370
     9
100
AcDbCircle
 10
133.3279781703306
 20
4.166499998958657
 30
0.0
 40
1.549999999612709
  0
CIRCLE
  5
82
330
70
100
AcDbEntity
  8
acrylic
 62
     7
370
     9
100
AcDbCircle
 10
133.3279781703306
 20
129.0449999677397
 30
0.0
 40
1.549999999612508
  0
CIRCLE
  5
83
330
70
100
AcDbEntity
  8
acrylic
 62
     7
370
     9
100
AcDbCircle
 10
4.282999998927448
 20
91.66299997708511
 30
0.0
 40
1.549999999612147
  0
CIRCLE
  5
84
330
70
100
AcDbEntity
  8
acrylic
 62
     7
370
     9
100
AcDbCircle
 10
133.3279781703306
 20
91.66299997708511
 30
0.0
 40
1.549999999612588
  0
CIRCLE
  5
85
330
70
100
AcDbEntity
  8
acrylic
 62
     7
370
     9
100
AcDbCircle
 10
199.9919999499984
 20
91.66299997708511
 30
0.0
 40
1.549999999612668
  0
CIRCLE
  5
86
330
70
100
AcDbEntity
  8
acrylic
 62
     7
370
     9
100
AcDbCircle
 10
66.66400508543377
 20
91.66299997708511
 30
0.0
 40
1.549999999612789
  0
CIRCLE
  5
87
330
70
100
AcDbEntity
  8
acrylic
 62
     7
370
     9
100
AcDbCircle
 10
262.4894999343744
 20
91.66299997708511
 30
0.0
 40
1.549999999612268
  0
CIRCLE
  5
88
330
70
100
AcDbEntity
  8
acrylic
 62
     7
370
     9
100
AcDbCircle
 10
4.166499998957615
 20
4.166499998958498
 30
0.0
 40
1.549999999612348
  0
LWPOLYLINE
  5
89
330
70
100
AcDbEntity
  8
acrylic
 62
     7
370
     9
100
AcDbPolyline
 90
        4
 70
     1
 43
0.0
 10
266.6559999333323
 20
133.3279999666693
 10
0.0
 20
133.3279999666693
 10
0.0
 20
0.0
 10
266.6559999333323
 20
0.0
  0
LWPOLYLINE
  5
8A
330
70
100
AcDbEntity
  8
acrylic
 62
     7
370
     9
100
AcDbPolyline
 90
        4
 70
     1
 43
0.0
 10
102.4145341056461
 20
124.5714516868756
 10
96.84338584453943
 20
124.5714516868756
 10
96.84338584453943
 20
125.5715629062436
 10
102.4145341056461
 20
125.5715629062436
  0
SPLINE
  5
8B
330
70
100
AcDbEntity
  8
acrylic
 62
     7
370
     9
100
AcDbSpline
210
0.0
220
0.0
230
1.0
 70
     9
 71
     3
 72
    53
 73
    49
 74
     0
 42
0.0000000001
 43
0.0000000001
 40
0.0
 40
0.0
 40
0.0
 40
0.0
 40
1.0
 40
1.0
 40
1.0
 40
2.0
 40
2.0
 40
2.0
 40
3.0
 40
3.0
 40
3.0
 40
4.0
 40
4.0
 40
4.0
 40
5.0
 40
5.0
 40
5.0
 40
6.0
 40
6.0
 40
6.0
 40
7.0
 40
7.0
 40
7.0
 40
8.0
 40
8.0
 40
8.0
 40
9.0
 40
9.0
 40
9.0
 40
10.0
 40
10.0
 40
10.0
 40
11.0
 40
11.0
 40
11.0
 40
12.0
 40
12.0
 40
12.0
 40
13.0
 40
13.0
 40
13.0
 40
14.0
 40
14.0
 40
14.0
 40
15.0
 40
15.0
 40
15.0
 40
16.0
 40
16.0
 40
16.0
 40
16.0
 10
70.23381324741555
 20
99.49590790698366
 30
0.0
 10
70.23381324741555
 20
99.49590790698366
 30
0.0
 10
62.56778677363762
 20
99.49590790698366
 30
0.0
 10
62.56778677363762
 20
99.49590790698366
 30
0.0
 10
61.18940406998915
 20
99.49590790698366
 30
0.0
 10
60.06785323476607
 20
100.6174587422067
 30
0.0
 10
60.06785323476607
 20
101.9960137006294
 30
0.0
 10
60.06785323476607
 20
101.9960137006294
 30
0.0
 10
60.06785323476607
 20
125.5715203715199
 30
0.0
 10
60.06785323476607
 20
125.5715203715199
 30
0.0
 10
60.06785323476607
 20
125.5715203715199
 30
0.0
 10
62.44871200765197
 20
125.5715203715199
 30
0.0
 10
62.44871200765197
 20
125.5715203715199
 30
0.0
 10
62.44871200765197
 20
125.5715203715199
 30
0.0
 10
62.44871200765197
 20
124.5714091521519
 30
0.0
 10
62.44871200765197
 20
124.5714091521519
 30
0.0
 10
62.44871200765197
 20
124.5714091521519
 30
0.0
 10
61.0679644541341
 20
124.5714091521519
 30
0.0
 10
61.0679644541341
 20
124.5714091521519
 30
0.0
 10
61.0679644541341
 20
124.5714091521519
 30
0.0
 10
61.0679644541341
 20
101.9960137006294
 30
0.0
 10
61.0679644541341
 20
101.9960137006294
 30
0.0
 10
61.0679644541341
 20
101.168846274621
 30
0.0
 10
61.74079160240339
 20
100.4960191263517
 30
0.0
 10
62.56778677363762
 20
100.4960191263517
 30
0.0
 10
62.56778677363762
 20
100.4960191263517
 30
0.0
 10
70.23381324741555
 20
100.4960191263517
 30
0.0
 10
70.23381324741555
 20
100.4960191263517
 30
0.0
 10
71.06098067342404
 20
100.4960191263517
 30
0.0
 10
71.73380782169333
 20
101.168846274621
 30
0.0
 10
71.73380782169333
 20
101.9960137006294
 30
0.0
 10
71.73380782169333
 20
101.9960137006294
 30
0.0
 10
71.73380782169333
 20
124.5714091521519
 30
0.0
 10
71.73380782169333
 20
124.5714091521519
 30
0.0
 10
71.73380782169333
 20
124.5714091521519
 30
0.0
 10
70.40847958851869
 20
124.5714091521519
 30
0.0
 10
70.40847958851869
 20
124.5714091521519
 30
0.0
 10
70.40847958851869
 20
124.5714091521519
 30
0.0
 10
70.40847958851869
 20
125.5715203715199
 30
0.0
 10
70.40847958851869
 20
125.5715203715199
 30
0.0
 10
70.40847958851869
 20
125.5715203715199
 30
0.0
 10
72.73391904106135
 20
125.5715203715199
 30
0.0
 10
72.73391904106135
 20
125.5715203715199
 30
0.0
 10
72.73391904106135
 20
125.5715203715199
 30
0.0
 10
72.73391904106135
 20
101.9960137006294
 30
0.0
 10
72.73391904106135
 20
101.9960137006294
 30
0.0
 10
72.73391904106135
 20
100.6174587422067
 30
0.0
 10
71.61236820583828
 20
99.49590790698366
 30
0.0
 10
70.23381324741555
 20
99.49590790698366
 30
0.0
  0
LWPOLYLINE
  5
8C
330
70
100
AcDbEntity
  8
acrylic
 62
     7
370
     9
100
AcDbPolyline
 90
        4
 70
     1
 43
0.0
 10
69.18646026846707
 20
124.5714516868756
 10
63.61531200736036
 20
124.5714516868756
 10
63.61531200736036
 20
125.5715629062436
 10
69.18646026846707
 20
125.5715629062436
  0
SPLINE
  5
8D
330
70
100
AcDbEntity
  8
acrylic
 62
     7
370
    15
100
AcDbSpline
210
0.0
220
0.0
230
1.0
 70
     8
 71
     3
 72
    20
 73
    16
 74
     0
 42
0.0000000001
 43
0.0000000001
 40
0.0
 40
0.0
 40
0.0
 40
0.0
 40
1.0
 40
1.0
 40
1.0
 40
2.0
 40
2.0
 40
2.0
 40
3.0
 40
3.0
 40
3.0
 40
4.0
 40
4.0
 40
4.0
 40
5.0
 40
5.0
 40
5.0
 40
5.0
 10
54.92080250532634
 20
128.1836042312613
 30
0.0
 10
55.03933532186572
 20
127.9041962214841
 30
0.0
 10
55.33566736321415
 20
127.7221659887822
 30
0.0
 10
55.72513540782164
 20
127.7221659887822
 30
0.0
 10
56.228899878114
 20
127.7221659887822
 30
0.0
 10
56.53370470117148
 20
128.0354328276254
 30
0.0
 10
56.53370470117148
 20
128.412197082631
 30
0.0
 10
56.53370470117148
 20
129.2631033697176
 30
0.0
 10
54.98006891359602
 20
129.1360977714691
 30
0.0
 10
54.98006891359602
 20
129.9489034556735
 30
0.0
 10
54.98006891359602
 20
130.2833360999041
 30
0.0
 10
55.2425367429168
 20
130.6008339466401
 30
0.0
 10
55.759005002811
 20
130.6008339466401
 30
0.0
 10
56.12307085117649
 20
130.6008339466401
 30
0.0
 10
56.34743807761507
 20
130.4399695193257
 30
0.0
 10
56.44903609665977
 20
130.2198279178182
 30
0.0
  0
LWPOLYLINE
  5
8E
330
70
100
AcDbEntity
  8
acrylic
 62
     7
370
    15
100
AcDbPolyline
 90
        4
 70
     0
 43
0.0
 10
59.03559763810026
 20
127.7644975995573
 10
57.50736404676683
 20
127.7644975995573
 10
57.50736404676683
 20
130.5585023358651
 10
59.03559763810026
 20
130.5585023358651
  0
LINE
  5
8F
330
70
100
AcDbEntity
  8
acrylic
 62
     7
370
    15
100
AcDbLine
 10
57.50736404676683
 20
129.2292337747282
 30
0.0
 11
58.96363282319041
 21
129.2292337747282
 31
0.0
  0
LINE
  5
90
330
70
100
AcDbEntity
  8
acrylic
 62
     7
370
    15
100
AcDbLine
 10
61.95229622033821
 20
127.7221659887822
 30
0.0
 11
61.22839553150008
 21
128.3360066427901
 31
0.0
  0
SPLINE
  5
91
330
70
100
AcDbEntity
  8
acrylic
 62
     7
370
    15
100
AcDbSpline
210
0.0
220
0.0
230
1.0
 70
     8
 71
     3
 72
    17
 73
    13
 74
     0
 42
0.0000000001
 43
0.0000000001
 40
0.0
 40
0.0
 40
0.0
 40
0.0
 40
1.0
 40
1.0
 40
1.0
 40
2.0
 40
2.0
 40
2.0
 40
3.0
 40
3.0
 40
3.0
 40
4.0
 40
4.0
 40
4.0
 40
4.0
 10
60.92782709929712
 20
130.6008339466401
 30
0.0
 10
60.12773058765633
 20
130.6008339466401
 30
0.0
 10
59.81869475670603
 20
129.8430636628126
 30
0.0
 10
59.81869475670603
 20
129.1657363585657
 30
0.0
 10
59.81869475670603
 20
128.5984690891491
 30
0.0
 10
60.0388255922901
 20
127.7221659887822
 30
0.0
 10
60.93206349015164
 20
127.7221659887822
 30
0.0
 10
61.82529600505149
 20
127.7221659887822
 30
0.0
 10
62.04542684063556
 20
128.5984690891491
 30
0.0
 10
62.04542684063556
 20
129.1657363585657
 30
0.0
 10
62.04542684063556
 20
129.8430636628126
 30
0.0
 10
61.73639639264695
 20
130.6008339466401
 30
0.0
 10
60.93629449804446
 20
130.6008339466401
 30
0.0
  0
SPLINE
  5
92
330
70
100
AcDbEntity
  8
acrylic
 62
     7
370
    15
100
AcDbSpline
210
0.0
220
0.0
230
1.0
 70
     8
 71
     3
 72
    17
 73
    13
 74
     0
 42
0.0000000001
 43
0.0000000001
 40
0.0
 40
0.0
 40
0.0
 40
0.0
 40
1.0
 40
1.0
 40
1.0
 40
2.0
 40
2.0
 40
2.0
 40
3.0
 40
3.0
 40
3.0
 40
4.0
 40
4.0
 40
4.0
 40
4.0
 10
62.99785578530306
 20
130.6008339466401
 30
0.0
 10
62.99785578530306
 20
130.6008339466401
 30
0.0
 10
62.99785578530306
 20
128.7593335164635
 30
0.0
 10
62.99785578530306
 20
128.7593335164635
 30
0.0
 10
62.99785578530306
 20
128.0904682280022
 30
0.0
 10
63.37038903241587
 20
127.7221659887822
 30
0.0
 10
63.91649049644492
 20
127.7221659887822
 30
0.0
 10
64.48798877375431
 20
127.7221659887822
 30
0.0
 10
64.83512520758679
 20
128.0904682280022
 30
0.0
 10
64.83512520758679
 20
128.7593335164635
 30
0.0
 10
64.83512520758679
 20
128.7593335164635
 30
0.0
 10
64.83512520758679
 20
130.6008339466401
 30
0.0
 10
64.83512520758679
 20
130.6008339466401
 30
0.0
  0
LWPOLYLINE
  5
93
330
70
100
AcDbEntity
  8
acrylic
 62
     7
370
    15
100
AcDbPolyline
 90
        4
 70
     0
 43
0.0
 10
67.50639841723256
 20
127.7644975995573
 10
65.97816482589912
 20
127.7644975995573
 10
65.97816482589912
 20
130.5585023358651
 10
67.50639841723256
 20
130.5585023358651
  0
LINE
  5
94
330
70
100
AcDbEntity
  8
acrylic
 62
     7
370
    15
100
AcDbLine
 10
65.97816482589912
 20
129.2292337747282
 30
0.0
 11
67.43443360232271
 21
129.2292337747282
 31
0.0
  0
LWPOLYLINE
  5
95
330
70
100
AcDbEntity
  8
acrylic
 62
     7
370
    15
100
AcDbPolyline
 90
        6
 70
     0
 43
0.0
 10
68.43761849281898
 20
127.7221659887822
 10
68.43761849281898
 20
130.5796681412526
 10
68.45455329031366
 20
130.5796681412526
 10
70.36801853540008
 20
127.7433317941698
 10
70.38495333289475
 20
127.7433317941698
 10
70.38072232500194
 20
130.6008339466401
  0
SPLINE
  5
96
330
70
100
AcDbEntity
  8
acrylic
 62
     7
370
    15
100
AcDbSpline
210
0.0
220
0.0
230
1.0
 70
     8
 71
     3
 72
    17
 73
    13
 74
     0
 42
0.0000000001
 43
0.0000000001
 40
0.0
 40
0.0
 40
0.0
 40
0.0
 40
1.0
 40
1.0
 40
1.0
 40
2.0
 40
2.0
 40
2.0
 40
3.0
 40
3.0
 40
3.0
 40
4.0
 40
4.0
 40
4.0
 40
4.0
 10
73.37364364485104
 20
129.9954660743413
 30
0.0
 10
73.21701022542947
 20
130.3933961347345
 30
0.0
 10
72.92491457493555
 20
130.6008339466401
 30
0.0
 10
72.49311491955305
 20
130.6008339466401
 30
0.0
 10
71.76921423071492
 20
130.6008339466401
 30
0.0
 10
71.37974618610742
 20
130.0250938955145
 30
0.0
 10
71.37974618610742
 20
129.1657363585657
 30
0.0
 10
71.37974618610742
 20
128.2174630603273
 30
0.0
 10
71.85811384311945
 20
127.7221659887822
 30
0.0
 10
72.49311491955305
 20
127.7221659887822
 30
0.0
 10
72.98841199109806
 20
127.7221659887822
 30
0.0
 10
73.31437723658135
 20
128.0227290380235
 30
0.0
 10
73.43291543608242
 20
128.369865471856
 30
0.0
  0
LWPOLYLINE
  5
97
330
70
100
AcDbEntity
  8
acrylic
 62
     7
370
    15
100
AcDbPolyline
 90
        4
 70
     0
 43
0.0
 10
75.91346492988773
 20
127.7644975995573
 10
74.3852313385543
 20
127.7644975995573
 10
74.3852313385543
 20
130.5585023358651
 10
75.91346492988773
 20
130.5585023358651
  0
LINE
  5
98
330
70
100
AcDbEntity
  8
acrylic
 62
     7
370
    15
100
AcDbLine
 10
74.3852313385543
 20
129.2292337747282
 30
0.0
 11
75.84150011497789
 21
129.2292337747282
 31
0.0
  0
LINE
  5
99
330
70
100
AcDbEntity
  8
acrylic
 62
     7
370
    15
100
AcDbLine
 10
76.84502951502269
 20
127.7221659887822
 30
0.0
 11
76.84502951502269
 21
130.5585023358651
 31
0.0
  0
LINE
  5
9A
330
70
100
AcDbEntity
  8
acrylic
 62
     7
370
    15
100
AcDbLine
 10
78.4494643121205
 20
127.7221659887822
 30
0.0
 11
77.70439781789487
 21
129.1784293822441
 31
0.0
  0
SPLINE
  5
9B
330
70
100
AcDbEntity
  8
acrylic
 62
     7
370
    15
100
AcDbSpline
210
0.0
220
0.0
230
1.0
 70
     8
 71
     3
 72
    17
 73
    13
 74
     0
 42
0.0000000001
 43
0.0000000001
 40
0.0
 40
0.0
 40
0.0
 40
0.0
 40
1.0
 40
1.0
 40
1.0
 40
2.0
 40
2.0
 40
2.0
 40
3.0
 40
3.0
 40
3.0
 40
4.0
 40
4.0
 40
4.0
 40
4.0
 10
76.84502951502269
 20
129.1784293822441
 30
0.0
 10
76.84502951502269
 20
129.1784293822441
 30
0.0
 10
77.6281966121305
 20
129.1784293822441
 30
0.0
 10
77.6281966121305
 20
129.1784293822441
 30
0.0
 10
78.04306685298001
 20
129.1784293822441
 30
0.0
 10
78.39443429470532
 20
129.4324298128176
 30
0.0
 10
78.39443429470532
 20
129.8684604760929
 30
0.0
 10
78.39443429470532
 20
130.2367627153129
 30
0.0
 10
78.1446648720247
 20
130.5585023358651
 30
0.0
 10
77.57739760260815
 20
130.5585023358651
 30
0.0
 10
77.57739760260815
 20
130.5585023358651
 30
0.0
 10
76.84502951502269
 20
130.5585023358651
 30
0.0
 10
76.84502951502269
 20
130.5585023358651
 30
0.0
  0
LINE
  5
9C
330
70
100
AcDbEntity
  8
acrylic
 62
     7
370
    15
100
AcDbLine
 10
94.7119837206254
 20
127.7898997957993
 30
0.0
 11
94.7119837206254
 21
130.6685677536571
 31
0.0
  0
LINE
  5
9D
330
70
100
AcDbEntity
  8
acrylic
 62
     7
370
    15
100
AcDbLine
 10
94.7119837206254
 20
129.3350681846274
 30
0.0
 11
96.51538354791977
 21
129.3350681846274
 31
0.0
  0
LINE
  5
9E
330
70
100
AcDbEntity
  8
acrylic
 62
     7
370
    15
100
AcDbLine
 10
96.51538354791977
 20
127.7898997957993
 30
0.0
 11
96.51538354791977
 21
130.6685677536571
 31
0.0
  0
SPLINE
  5
9F
330
70
100
AcDbEntity
  8
acrylic
 62
     7
370
    15
100
AcDbSpline
210
0.0
220
0.0
230
1.0
 70
     8
 71
     3
 72
    17
 73
    13
 74
     0
 42
0.0000000001
 43
0.0000000001
 40
0.0
 40
0.0
 40
0.0
 40
0.0
 40
1.0
 40
1.0
 40
1.0
 40
2.0
 40
2.0
 40
2.0
 40
3.0
 40
3.0
 40
3.0
 40
4.0
 40
4.0
 40
4.0
 40
4.0
 10
98.61923876522149
 20
130.6685677536571
 30
0.0
 10
97.81913687061901
 20
130.6685677536571
 30
0.0
 10
97.5101118055921
 20
129.9107974698296
 30
0.0
 10
97.5101118055921
 20
129.2334701655827
 30
0.0
 10
97.5101118055921
 20
128.6662028961661
 30
0.0
 10
97.73024264117616
 20
127.7898997957993
 30
0.0
 10
98.62346977311432
 20
127.7898997957993
 30
0.0
 10
99.51670767097587
 20
127.7898997957993
 30
0.0
 10
99.73683850655994
 20
128.6662028961661
 30
0.0
 10
99.73683850655994
 20
129.2334701655827
 30
0.0
 10
99.73683850655994
 20
129.9107974698296
 30
0.0
 10
99.42780267560962
 20
130.6685677536571
 30
0.0
 10
98.62771154693053
 20
130.6685677536571
 30
0.0
  0
LWPOLYLINE
  5
A0
330
70
100
AcDbEntity
  8
acrylic
 62
     7
370
    15
100
AcDbPolyline
 90
        3
 70
     0
 43
0.0
 10
102.077802420634
 20
127.8322314065743
 10
100.7315990620024
 20
127.8322314065743
 10
100.7315990620024
 20
130.6685677536571
  0
LINE
  5
A1
330
70
100
AcDbEntity
  8
acrylic
 62
     7
370
    15
100
AcDbLine
 10
102.7976228245067
 20
127.8322314065743
 30
0.0
 11
102.7976228245067
 21
130.6262361428821
 31
0.0
  0
SPLINE
  5
A2
330
70
100
AcDbEntity
  8
acrylic
 62
     7
370
    15
100
AcDbSpline
210
0.0
220
0.0
230
1.0
 70
     8
 71
     3
 72
    17
 73
    13
 74
     0
 42
0.0000000001
 43
0.0000000001
 40
0.0
 40
0.0
 40
0.0
 40
0.0
 40
1.0
 40
1.0
 40
1.0
 40
2.0
 40
2.0
 40
2.0
 40
3.0
 40
3.0
 40
3.0
 40
4.0
 40
4.0
 40
4.0
 40
4.0
 10
102.7976228245067
 20
127.8322314065743
 30
0.0
 10
102.7976228245067
 20
127.8322314065743
 30
0.0
 10
103.3056236856536
 20
127.8322314065743
 30
0.0
 10
103.3056236856536
 20
127.8322314065743
 30
0.0
 10
104.0676249773739
 20
127.8322314065743
 30
0.0
 10
104.7745908687174
 20
128.2259304590746
 30
0.0
 10
104.7788218766102
 20
129.2249973838737
 30
0.0
 10
104.7830636504264
 20
130.0885966946387
 30
0.0
 10
104.253896983892
 20
130.6262361428821
 30
0.0
 10
103.4199254943002
 20
130.6262361428821
 30
0.0
 10
103.4199254943002
 20
130.6262361428821
 30
0.0
 10
102.7976228245067
 20
130.6262361428821
 30
0.0
 10
102.7976228245067
 20
130.6262361428821
 30
0.0
  0
SPLINE
  5
A3
330
70
100
AcDbEntity
  8
acrylic
 62
     7
370
     9
100
AcDbSpline
210
0.0
220
0.0
230
1.0
 70
     9
 71
     3
 72
    29
 73
    25
 74
     0
 42
0.0000000001
 43
0.0000000001
 40
0.0
 40
0.0
 40
0.0
 40
0.0
 40
1.0
 40
1.0
 40
1.0
 40
2.0
 40
2.0
 40
2.0
 40
3.0
 40
3.0
 40
3.0
 40
4.0
 40
4.0
 40
4.0
 40
5.0
 40
5.0
 40
5.0
 40
6.0
 40
6.0
 40
6.0
 40
7.0
 40
7.0
 40
7.0
 40
8.0
 40
8.0
 40
8.0
 40
8.0
 10
38.40889725850789
 20
101.5399275349153
 30
0.0
 10
38.40889725850789
 20
101.5399275349153
 30
0.0
 10
28.2550511072013
 20
101.5399275349153
 30
0.0
 10
28.2550511072013
 20
101.5399275349153
 30
0.0
 10
27.74735879963553
 20
101.5399275349153
 30
0.0
 10
27.33197418435451
 20
101.9599275348101
 30
0.0
 10
27.33197418435451
 20
102.4732608680151
 30
0.0
 10
27.33197418435451
 20
102.4732608680151
 30
0.0
 10
27.33197418435451
 20
114.6065941983152
 30
0.0
 10
27.33197418435451
 20
114.6065941983152
 30
0.0
 10
27.33197418435451
 20
115.1199275315202
 30
0.0
 10
27.74735879963553
 20
115.539927531415
 30
0.0
 10
28.2550511072013
 20
115.539927531415
 30
0.0
 10
28.2550511072013
 20
115.539927531415
 30
0.0
 10
38.40889725850789
 20
115.539927531415
 30
0.0
 10
38.40889725850789
 20
115.539927531415
 30
0.0
 10
38.91658956607365
 20
115.539927531415
 30
0.0
 10
39.33197418135467
 20
115.1199275315202
 30
0.0
 10
39.33197418135467
 20
114.6065941983152
 30
0.0
 10
39.33197418135467
 20
114.6065941983152
 30
0.0
 10
39.33197418135467
 20
102.4732608680151
 30
0.0
 10
39.33197418135467
 20
102.4732608680151
 30
0.0
 10
39.33197418135467
 20
101.9599275348101
 30
0.0
 10
38.91658956607365
 20
101.5399275349153
 30
0.0
 10
38.40889725850789
 20
101.5399275349153
 30
0.0
  0
SPLINE
  5
A4
330
70
100
AcDbEntity
  8
acrylic
 62
     7
370
     9
100
AcDbSpline
210
0.0
220
0.0
230
1.0
 70
    11
 71
     3
 72
   863
 73
   859
 74
     0
 42
0.0000000001
 43
0.0000000001
 40
0.0
 40
0.0
 40
0.0
 40
0.0
 40
1.0
 40
1.0
 40
1.0
 40
2.0
 40
2.0
 40
2.0
 40
3.0
 40
3.0
 40
3.0
 40
4.0
 40
4.0
 40
4.0
 40
5.0
 40
5.0
 40
5.0
 40
6.0
 40
6.0
 40
6.0
 40
7.0
 40
7.0
 40
7.0
 40
8.0
 40
8.0
 40
8.0
 40
9.0
 40
9.0
 40
9.0
 40
10.0
 40
10.0
 40
10.0
 40
11.0
 40
11.0
 40
11.0
 40
12.0
 40
12.0
 40
12.0
 40
13.0
 40
13.0
 40
13.0
 40
14.0
 40
14.0
 40
14.0
 40
15.0
 40
15.0
 40
15.0
 40
16.0
 40
16.0
 40
16.0
 40
17.0
 40
17.0
 40
17.0
 40
18.0
 40
18.0
 40
18.0
 40
19.0
 40
19.0
 40
19.0
 40
20.0
 40
20.0
 40
20.0
 40
21.0
 40
21.0
 40
21.0
 40
22.0
 40
22.0
 40
22.0
 40
23.0
 40
23.0
 40
23.0
 40
24.0
 40
24.0
 40
24.0
 40
25.0
 40
25.0
 40
25.0
 40
26.0
 40
26.0
 40
26.0
 40
27.0
 40
27.0
 40
27.0
 40
28.0
 40
28.0
 40
28.0
 40
29.0
 40
29.0
 40
29.0
 40
30.0
 40
30.0
 40
30.0
 40
31.0
 40
31.0
 40
31.0
 40
32.0
 40
32.0
 40
32.0
 40
33.0
 40
33.0
 40
33.0
 40
34.0
 40
34.0
 40
34.0
 40
35.0
 40
35.0
 40
35.0
 40
36.0
 40
36.0
 40
36.0
 40
37.0
 40
37.0
 40
37.0
 40
38.0
 40
38.0
 40
38.0
 40
39.0
 40
39.0
 40
39.0
 40
40.0
 40
40.0
 40
40.0
 40
41.0
 40
41.0
 40
41.0
 40
42.0
 40
42.0
 40
42.0
 40
43.0
 40
43.0
 40
43.0
 40
44.0
 40
44.0
 40
44.0
 40
45.0
 40
45.0
 40
45.0
 40
46.0
 40
46.0
 40
46.0
 40
47.0
 40
47.0
 40
47.0
 40
48.0
 40
48.0
 40
48.0
 40
49.0
 40
49.0
 40
49.0
 40
50.0
 40
50.0
 40
50.0
 40
51.0
 40
51.0
 40
51.0
 40
52.0
 40
52.0
 40
52.0
 40
53.0
 40
53.0
 40
53.0
 40
54.0
 40
54.0
 40
54.0
 40
55.0
 40
55.0
 40
55.0
 40
56.0
 40
56.0
 40
56.0
 40
57.0
 40
57.0
 40
57.0
 40
58.0
 40
58.0
 40
58.0
 40
59.0
 40
59.0
 40
59.0
 40
60.0
 40
60.0
 40
60.0
 40
61.0
 40
61.0
 40
61.0
 40
62.0
 40
62.0
 40
62.0
 40
63.0
 40
63.0
 40
63.0
 40
64.0
 40
64.0
 40
64.0
 40
65.0
 40
65.0
 40
65.0
 40
66.0
 40
66.0
 40
66.0
 40
67.0
 40
67.0
 40
67.0
 40
68.0
 40
68.0
 40
68.0
 40
69.0
 40
69.0
 40
69.0
 40
70.0
 40
70.0
 40
70.0
 40
71.0
 40
71.0
 40
71.0
 40
72.0
 40
72.0
 40
72.0
 40
73.0
 40
73.0
 40
73.0
 40
74.0
 40
74.0
 40
74.0
 40
75.0
 40
75.0
 40
75.0
 40
76.0
 40
76.0
 40
76.0
 40
77.0
 40
77.0
 40
77.0
 40
78.0
 40
78.0
 40
78.0
 40
79.0
 40
79.0
 40
79.0
 40
80.0
 40
80.0
 40
80.0
 40
81.0
 40
81.0
 40
81.0
 40
82.0
 40
82.0
 40
82.0
 40
83.0
 40
83.0
 40
83.0
 40
84.0
 40
84.0
 40
84.0
 40
85.0
 40
85.0
 40
85.0
 40
86.0
 40
86.0
 40
86.0
 40
87.0
 40
87.0
 40
87.0
 40
88.0
 40
88.0
 40
88.0
 40
89.0
 40
89.0
 40
89.0
 40
90.0
 40
90.0
 40
90.0
 40
91.0
 40
91.0
 40
91.0
 40
92.0
 40
92.0
 40
92.0
 40
93.0
 40
93.0
 40
93.0
 40
94.0
 40
94.0
 40
94.0
 40
95.0
 40
95.0
 40
95.0
 40
96.0
 40
96.0
 40
96.0
 40
97.0
 40
97.0
 40
97.0
 40
98.0
 40
98.0
 40
98.0
 40
99.0
 40
99.0
 40
99.0
 40
100.0
 40
100.0
 40
100.0
 40
101.0
 40
101.0
 40
101.0
 40
102.0
 40
102.0
 40
102.0
 40
103.0
 40
103.0
 40
103.0
 40
104.0
 40
104.0
 40
104.0
 40
105.0
 40
105.0
 40
105.0
 40
106.0
 40
106.0
 40
106.0
 40
107.0
 40
107.0
 40
107.0
 40
108.0
 40
108.0
 40
108.0
 40
109.0
 40
109.0
 40
109.0
 40
110.0
 40
110.0
 40
110.0
 40
111.0
 40
111.0
 40
111.0
 40
112.0
 40
112.0
 40
112.0
 40
113.0
 40
113.0
 40
113.0
 40
114.0
 40
114.0
 40
114.0
 40
115.0
 40
115.0
 40
115.0
 40
116.0
 40
116.0
 40
116.0
 40
117.0
 40
117.0
 40
117.0
 40
118.0
 40
118.0
 40
118.0
 40
119.0
 40
119.0
 40
119.0
 40
120.0
 40
120.0
 40
120.0
 40
121.0
 40
121.0
 40
121.0
 40
122.0
 40
122.0
 40
122.0
 40
123.0
 40
123.0
 40
123.0
 40
124.0
 40
124.0
 40
124.0
 40
125.0
 40
125.0
 40
125.0
 40
126.0
 40
126.0
 40
126.0
 40
127.0
 40
127.0
 40
127.0
 40
128.0
 40
128.0
 40
128.0
 40
129.0
 40
129.0
 40
129.0
 40
130.0
 40
130.0
 40
130.0
 40
131.0
 40
131.0
 40
131.0
 40
132.0
 40
132.0
 40
132.0
 40
133.0
 40
133.0
 40
133.0
 40
134.0
 40
134.0
 40
134.0
 40
135.0
 40
135.0
 40
135.0
 40
136.0
 40
136.0
 40
136.0
 40
137.0
 40
137.0
 40
137.0
 40
138.0
 40
138.0
 40
138.0
 40
139.0
 40
139.0
 40
139.0
 40
140.0
 40
140.0
 40
140.0
 40
141.0
 40
141.0
 40
141.0
 40
142.0
 40
142.0
 40
142.0
 40
143.0
 40
143.0
 40
143.0
 40
144.0
 40
144.0
 40
144.0
 40
145.0
 40
145.0
 40
145.0
 40
146.0
 40
146.0
 40
146.0
 40
147.0
 40
147.0
 40
147.0
 40
148.0
 40
148.0
 40
148.0
 40
149.0
 40
149.0
 40
149.0
 40
150.0
 40
150.0
 40
150.0
 40
151.0
 40
151.0
 40
151.0
 40
152.0
 40
152.0
 40
152.0
 40
153.0
 40
153.0
 40
153.0
 40
154.0
 40
154.0
 40
154.0
 40
155.0
 40
155.0
 40
155.0
 40
156.0
 40
156.0
 40
156.0
 40
157.0
 40
157.0
 40
157.0
 40
158.0
 40
158.0
 40
158.0
 40
159.0
 40
159.0
 40
159.0
 40
160.0
 40
160.0
 40
160.0
 40
161.0
 40
161.0
 40
161.0
 40
162.0
 40
162.0
 40
162.0
 40
163.0
 40
163.0
 40
163.0
 40
164.0
 40
164.0
 40
164.0
 40
165.0
 40
165.0
 40
165.0
 40
166.0
 40
166.0
 40
166.0
 40
167.0
 40
167.0
 40
167.0
 40
168.0
 40
168.0
 40
168.0
 40
169.0
 40
169.0
 40
169.0
 40
170.0
 40
170.0
 40
170.0
 40
171.0
 40
171.0
 40
171.0
 40
172.0
 40
172.0
 40
172.0
 40
173.0
 40
173.0
 40
173.0
 40
174.0
 40
174.0
 40
174.0
 40
175.0
 40
175.0
 40
175.0
 40
176.0
 40
176.0
 40
176.0
 40
177.0
 40
177.0
 40
177.0
 40
178.0
 40
178.0
 40
178.0
 40
179.0
 40
179.0
 40
179.0
 40
180.0
 40
180.0
 40
180.0
 40
181.0
 40
181.0
 40
181.0
 40
182.0
 40
182.0
 40
182.0
 40
183.0
 40
183.0
 40
183.0
 40
184.0
 40
184.0
 40
184.0
 40
185.0
 40
185.0
 40
185.0
 40
186.0
 40
186.0
 40
186.0
 40
187.0
 40
187.0
 40
187.0
 40
188.0
 40
188.0
 40
188.0
 40
189.0
 40
189.0
 40
189.0
 40
190.0
 40
190.0
 40
190.0
 40
191.0
 40
191.0
 40
191.0
 40
192.0
 40
192.0
 40
192.0
 40
193.0
 40
193.0
 40
193.0
 40
194.0
 40
194.0
 40
194.0
 40
195.0
 40
195.0
 40
195.0
 40
196.0
 40
196.0
 40
196.0
 40
197.0
 40
197.0
 40
197.0
 40
198.0
 40
198.0
 40
198.0
 40
199.0
 40
199.0
 40
199.0
 40
200.0
 40
200.0
 40
200.0
 40
201.0
 40
201.0
 40
201.0
 40
202.0
 40
202.0
 40
202.0
 40
203.0
 40
203.0
 40
203.0
 40
204.0
 40
204.0
 40
204.0
 40
205.0
 40
205.0
 40
205.0
 40
206.0
 40
206.0
 40
206.0
 40
207.0
 40
207.0
 40
207.0
 40
208.0
 40
208.0
 40
208.0
 40
209.0
 40
209.0
 40
209.0
 40
210.0
 40
210.0
 40
210.0
 40
211.0
 40
211.0
 40
211.0
 40
212.0
 40
212.0
 40
212.0
 40
213.0
 40
213.0
 40
213.0
 40
214.0
 40
214.0
 40
214.0
 40
215.0
 40
215.0
 40
215.0
 40
216.0
 40
216.0
 40
216.0
 40
217.0
 40
217.0
 40
217.0
 40
218.0
 40
218.0
 40
218.0
 40
219.0
 40
219.0
 40
219.0
 40
220.0
 40
220.0
 40
220.0
 40
221.0
 40
221.0
 40
221.0
 40
222.0
 40
222.0
 40
222.0
 40
223.0
 40
223.0
 40
223.0
 40
224.0
 40
224.0
 40
224.0
 40
225.0
 40
225.0
 40
225.0
 40
226.0
 40
226.0
 40
226.0
 40
227.0
 40
227.0
 40
227.0
 40
228.0
 40
228.0
 40
228.0
 40
229.0
 40
229.0
 40
229.0
 40
230.0
 40
230.0
 40
230.0
 40
231.0
 40
231.0
 40
231.0
 40
232.0
 40
232.0
 40
232.0
 40
233.0
 40
233.0
 40
233.0
 40
234.0
 40
234.0
 40
234.0
 40
235.0
 40
235.0
 40
235.0
 40
236.0
 40
236.0
 40
236.0
 40
237.0
 40
237.0
 40
237.0
 40
238.0
 40
238.0
 40
238.0
 40
239.0
 40
239.0
 40
239.0
 40
240.0
 40
240.0
 40
240.0
 40
241.0
 40
241.0
 40
241.0
 40
242.0
 40
242.0
 40
242.0
 40
243.0
 40
243.0
 40
243.0
 40
244.0
 40
244.0
 40
244.0
 40
245.0
 40
245.0
 40
245.0
 40
246.0
 40
246.0
 40
246.0
 40
247.0
 40
247.0
 40
247.0
 40
248.0
 40
248.0
 40
248.0
 40
249.0
 40
249.0
 40
249.0
 40
250.0
 40
250.0
 40
250.0
 40
251.0
 40
251.0
 40
251.0
 40
252.0
 40
252.0
 40
252.0
 40
253.0
 40
253.0
 40
253.0
 40
254.0
 40
254.0
 40
254.0
 40
255.0
 40
255.0
 40
255.0
 40
256.0
 40
256.0
 40
256.0
 40
257.0
 40
257.0
 40
257.0
 40
258.0
 40
258.0
 40
258.0
 40
259.0
 40
259.0
 40
259.0
 40
260.0
 40
260.0
 40
260.0
 40
261.0
 40
261.0
 40
261.0
 40
262.0
 40
262.0
 40
262.0
 40
263.0
 40
263.0
 40
263.0
 40
264.0
 40
264.0
 40
264.0
 40
265.0
 40
265.0
 40
265.0
 40
266.0
 40
266.0
 40
266.0
 40
267.0
 40
267.0
 40
267.0
 40
268.0
 40
268.0
 40
268.0
 40
269.0
 40
269.0
 40
269.0
 40
270.0
 40
270.0
 40
270.0
 40
271.0
 40
271.0
 40
271.0
 40
272.0
 40
272.0
 40
272.0
 40
273.0
 40
273.0
 40
273.0
 40
274.0
 40
274.0
 40
274.0
 40
275.0
 40
275.0
 40
275.0
 40
276.0
 40
276.0
 40
276.0
 40
277.0
 40
277.0
 40
277.0
 40
278.0
 40
278.0
 40
278.0
 40
279.0
 40
279.0
 40
279.0
 40
280.0
 40
280.0
 40
280.0
 40
281.0
 40
281.0
 40
281.0
 40
282.0
 40
282.0
 40
282.0
 40
283.0
 40
283.0
 40
283.0
 40
284.0
 40
284.0
 40
284.0
 40
285.0
 40
285.0
 40
285.0
 40
286.0
 40
286.0
 40
286.0
 40
286.0
 10
249.4900254367594
 20
88.73293437858718
 30
0.0
 10
249.4900254367594
 20
88.73293437858718
 30
0.0
 10
249.4900254367594
 20
17.16604952912863
 30
0.0
 10
249.4900254367594
 20
17.16604952912863
 30
0.0
 10
249.4900254367594
 20
17.16604952912863
 30
0.0
 10
233.8241427366829
 20
17.16604952912863
 30
0.0
 10
233.8241427366829
 20
17.16604952912863
 30
0.0
 10
233.8241427366829
 20
17.16604952912863
 30
0.0
 10
233.8241427366829
 20
49.49792614864982
 30
0.0
 10
233.8241427366829
 20
49.49792614864982
 30
0.0
 10
233.8241427366829
 20
49.49792614864982
 30
0.0
 10
238.3237819499677
 20
49.49792614864982
 30
0.0
 10
238.3237819499677
 20
49.49792614864982
 30
0.0
 10
239.1507771212019
 20
49.49792614864982
 30
0.0
 10
239.8237765242455
 20
50.17092555169337
 30
0.0
 10
239.8237765242455
 20
50.9979207229276
 30
0.0
 10
239.8237765242455
 20
50.9979207229276
 30
0.0
 10
239.8237765242455
 20
88.73293437858718
 30
0.0
 10
239.8237765242455
 20
88.73293437858718
 30
0.0
 10
239.8237765242455
 20
88.73293437858718
 30
0.0
 10
238.8236653048775
 20
88.73293437858718
 30
0.0
 10
238.8236653048775
 20
88.73293437858718
 30
0.0
 10
238.8236653048775
 20
88.73293437858718
 30
0.0
 10
238.8236653048775
 20
88.73291284674039
 30
0.0
 10
238.8236653048775
 20
88.73291284674039
 30
0.0
 10
238.8236653048775
 20
88.73291284674039
 30
0.0
 10
235.2724178149883
 20
88.73291284674039
 30
0.0
 10
235.2724178149883
 20
88.73291284674039
 30
0.0
 10
235.2724178149883
 20
88.73291284674039
 30
0.0
 10
235.2724178149883
 20
87.73282315921914
 30
0.0
 10
235.2724178149883
 20
87.73282315921914
 30
0.0
 10
235.2724178149883
 20
87.73282315921914
 30
0.0
 10
238.8236653048775
 20
87.73282315921914
 30
0.0
 10
238.8236653048775
 20
87.73282315921914
 30
0.0
 10
238.8236653048775
 20
87.73282315921914
 30
0.0
 10
238.8236653048775
 20
50.9979207229276
 30
0.0
 10
238.8236653048775
 20
50.9979207229276
 30
0.0
 10
238.8236653048775
 20
50.72231308410762
 30
0.0
 10
238.5993895887877
 20
50.49803736801785
 30
0.0
 10
238.3237819499677
 20
50.49803736801785
 30
0.0
 10
238.3237819499677
 20
50.49803736801785
 30
0.0
 10
233.3240871269989
 20
50.49803736801785
 30
0.0
 10
233.3240871269989
 20
50.49803736801785
 30
0.0
 10
233.3240871269989
 20
50.49803736801785
 30
0.0
 10
228.32439230403
 20
50.49803736801785
 30
0.0
 10
228.32439230403
 20
50.49803736801785
 30
0.0
 10
228.0486124104358
 20
50.49803736801785
 30
0.0
 10
227.824336694346
 20
50.72231308410762
 30
0.0
 10
227.824336694346
 20
50.9979207229276
 30
0.0
 10
227.824336694346
 20
50.9979207229276
 30
0.0
 10
227.824336694346
 20
87.73282315921914
 30
0.0
 10
227.824336694346
 20
87.73282315921914
 30
0.0
 10
227.824336694346
 20
87.73282315921914
 30
0.0
 10
231.6027666996405
 20
87.73282315921914
 30
0.0
 10
231.6027666996405
 20
87.73282315921914
 30
0.0
 10
231.6027666996405
 20
87.73282315921914
 30
0.0
 10
231.6027666996405
 20
88.73291284674039
 30
0.0
 10
231.6027666996405
 20
88.73291284674039
 30
0.0
 10
231.6027666996405
 20
88.73291284674039
 30
0.0
 10
227.824336694346
 20
88.73291284674039
 30
0.0
 10
227.824336694346
 20
88.73291284674039
 30
0.0
 10
227.824336694346
 20
88.73291284674039
 30
0.0
 10
227.824336694346
 20
88.73293437858718
 30
0.0
 10
227.824336694346
 20
88.73293437858718
 30
0.0
 10
227.824336694346
 20
88.73293437858718
 30
0.0
 10
226.824225474978
 20
88.73293437858718
 30
0.0
 10
226.824225474978
 20
88.73293437858718
 30
0.0
 10
226.824225474978
 20
88.73293437858718
 30
0.0
 10
226.824225474978
 20
50.9979207229276
 30
0.0
 10
226.824225474978
 20
50.9979207229276
 30
0.0
 10
226.824225474978
 20
50.17092555169337
 30
0.0
 10
227.4972248780215
 20
49.49792614864982
 30
0.0
 10
228.32439230403
 20
49.49792614864982
 30
0.0
 10
228.32439230403
 20
49.49792614864982
 30
0.0
 10
232.8240315173148
 20
49.49792614864982
 30
0.0
 10
232.8240315173148
 20
49.49792614864982
 30
0.0
 10
232.8240315173148
 20
49.49792614864982
 30
0.0
 10
232.8240315173148
 20
17.16604952912863
 30
0.0
 10
232.8240315173148
 20
17.16604952912863
 30
0.0
 10
232.8240315173148
 20
17.16604952912863
 30
0.0
 10
217.157976562464
 20
17.16604952912863
 30
0.0
 10
217.157976562464
 20
17.16604952912863
 30
0.0
 10
217.157976562464
 20
17.16604952912863
 30
0.0
 10
217.157976562464
 20
49.49792614864982
 30
0.0
 10
217.157976562464
 20
49.49792614864982
 30
0.0
 10
217.157976562464
 20
49.49792614864982
 30
0.0
 10
221.7454657106227
 20
49.49792614864982
 30
0.0
 10
221.7454657106227
 20
49.49792614864982
 30
0.0
 10
222.5724608818569
 20
49.49792614864982
 30
0.0
 10
223.2454602849005
 20
50.17092555169337
 30
0.0
 10
223.2454602849005
 20
50.9979207229276
 30
0.0
 10
223.2454602849005
 20
50.9979207229276
 30
0.0
 10
223.2454602849005
 20
88.73293437858718
 30
0.0
 10
223.2454602849005
 20
88.73293437858718
 30
0.0
 10
223.2454602849005
 20
88.73293437858718
 30
0.0
 10
222.2453490655324
 20
88.73293437858718
 30
0.0
 10
222.2453490655324
 20
88.73293437858718
 30
0.0
 10
222.2453490655324
 20
88.73293437858718
 30
0.0
 10
222.2453490655324
 20
88.73291284674039
 30
0.0
 10
222.2453490655324
 20
88.73291284674039
 30
0.0
 10
222.2453490655324
 20
88.73291284674039
 30
0.0
 10
218.6067253413987
 20
88.73291284674039
 30
0.0
 10
218.6067253413987
 20
88.73291284674039
 30
0.0
 10
218.6067253413987
 20
88.73291284674039
 30
0.0
 10
218.6067253413987
 20
87.73282315921914
 30
0.0
 10
218.6067253413987
 20
87.73282315921914
 30
0.0
 10
218.6067253413987
 20
87.73282315921914
 30
0.0
 10
222.2453490655324
 20
87.73282315921914
 30
0.0
 10
222.2453490655324
 20
87.73282315921914
 30
0.0
 10
222.2453490655324
 20
87.73282315921914
 30
0.0
 10
222.2453490655324
 20
50.9979207229276
 30
0.0
 10
222.2453490655324
 20
50.9979207229276
 30
0.0
 10
222.2453490655324
 20
50.72231308410762
 30
0.0
 10
222.0210733494426
 20
50.49803736801785
 30
0.0
 10
221.7454657106227
 20
50.49803736801785
 30
0.0
 10
221.7454657106227
 20
50.49803736801785
 30
0.0
 10
216.65792095278
 20
50.49803736801785
 30
0.0
 10
216.65792095278
 20
50.49803736801785
 30
0.0
 10
216.65792095278
 20
50.49803736801785
 30
0.0
 10
211.746076064685
 20
50.49803736801785
 30
0.0
 10
211.746076064685
 20
50.49803736801785
 30
0.0
 10
211.4702961710908
 20
50.49803736801785
 30
0.0
 10
211.246020455001
 20
50.72231308410762
 30
0.0
 10
211.246020455001
 20
50.9979207229276
 30
0.0
 10
211.246020455001
 20
50.9979207229276
 30
0.0
 10
211.246020455001
 20
87.73282315921914
 30
0.0
 10
211.246020455001
 20
87.73282315921914
 30
0.0
 10
211.246020455001
 20
87.73282315921914
 30
0.0
 10
214.9370742260509
 20
87.73282315921914
 30
0.0
 10
214.9370742260509
 20
87.73282315921914
 30
0.0
 10
214.9370742260509
 20
87.73282315921914
 30
0.0
 10
214.9370742260509
 20
88.73291284674039
 30
0.0
 10
214.9370742260509
 20
88.73291284674039
 30
0.0
 10
214.9370742260509
 20
88.73291284674039
 30
0.0
 10
211.246020455001
 20
88.73291284674039
 30
0.0
 10
211.246020455001
 20
88.73291284674039
 30
0.0
 10
211.246020455001
 20
88.73291284674039
 30
0.0
 10
211.246020455001
 20
88.73293437858718
 30
0.0
 10
211.246020455001
 20
88.73293437858718
 30
0.0
 10
211.246020455001
 20
88.73293437858718
 30
0.0
 10
210.245909235633
 20
88.73293437858718
 30
0.0
 10
210.245909235633
 20
88.73293437858718
 30
0.0
 10
210.245909235633
 20
88.73293437858718
 30
0.0
 10
210.245909235633
 20
50.9979207229276
 30
0.0
 10
210.245909235633
 20
50.9979207229276
 30
0.0
 10
210.245909235633
 20
50.17092555169337
 30
0.0
 10
210.9189086386765
 20
49.49792614864982
 30
0.0
 10
211.746076064685
 20
49.49792614864982
 30
0.0
 10
211.746076064685
 20
49.49792614864982
 30
0.0
 10
216.157865343096
 20
49.49792614864982
 30
0.0
 10
216.157865343096
 20
49.49792614864982
 30
0.0
 10
216.157865343096
 20
49.49792614864982
 30
0.0
 10
216.157865343096
 20
17.16604952912863
 30
0.0
 10
216.157865343096
 20
17.16604952912863
 30
0.0
 10
216.157865343096
 20
17.16604952912863
 30
0.0
 10
200.4919826430194
 20
17.16604952912863
 30
0.0
 10
200.4919826430194
 20
17.16604952912863
 30
0.0
 10
200.4919826430194
 20
17.16604952912863
 30
0.0
 10
200.4919826430194
 20
49.49792614864982
 30
0.0
 10
200.4919826430194
 20
49.49792614864982
 30
0.0
 10
200.4919826430194
 20
49.49792614864982
 30
0.0
 10
204.7459865482059
 20
49.49792614864982
 30
0.0
 10
204.7459865482059
 20
49.49792614864982
 30
0.0
 10
205.5731539742144
 20
49.49792614864982
 30
0.0
 10
206.2461533772579
 20
50.17092555169337
 30
0.0
 10
206.2461533772579
 20
50.9979207229276
 30
0.0
 10
206.2461533772579
 20
50.9979207229276
 30
0.0
 10
206.2461533772579
 20
88.73293437858718
 30
0.0
 10
206.2461533772579
 20
88.73293437858718
 30
0.0
 10
206.2461533772579
 20
88.73293437858718
 30
0.0
 10
205.2460421578899
 20
88.73293437858718
 30
0.0
 10
205.2460421578899
 20
88.73293437858718
 30
0.0
 10
205.2460421578899
 20
88.73293437858718
 30
0.0
 10
205.2460421578899
 20
88.73291284674039
 30
0.0
 10
205.2460421578899
 20
88.73291284674039
 30
0.0
 10
205.2460421578899
 20
88.73291284674039
 30
0.0
 10
201.8272155257151
 20
88.73291284674039
 30
0.0
 10
201.8272155257151
 20
88.73291284674039
 30
0.0
 10
201.8272155257151
 20
88.73291284674039
 30
0.0
 10
201.8272155257151
 20
87.73282315921914
 30
0.0
 10
201.8272155257151
 20
87.73282315921914
 30
0.0
 10
201.8272155257151
 20
87.73282315921914
 30
0.0
 10
205.2460421578899
 20
87.73282315921914
 30
0.0
 10
205.2460421578899
 20
87.73282315921914
 30
0.0
 10
205.2460421578899
 20
87.73282315921914
 30
0.0
 10
205.2460421578899
 20
50.9979207229276
 30
0.0
 10
205.2460421578899
 20
50.9979207229276
 30
0.0
 10
205.2460421578899
 20
50.72231308410762
 30
0.0
 10
205.0217664418001
 20
50.49803736801785
 30
0.0
 10
204.7459865482059
 20
50.49803736801785
 30
0.0
 10
204.7459865482059
 20
50.49803736801785
 30
0.0
 10
199.9919270333353
 20
50.49803736801785
 30
0.0
 10
199.9919270333353
 20
50.49803736801785
 30
0.0
 10
199.9919270333353
 20
50.49803736801785
 30
0.0
 10
195.0800821452404
 20
50.49803736801785
 30
0.0
 10
195.0800821452404
 20
50.49803736801785
 30
0.0
 10
194.8043022516461
 20
50.49803736801785
 30
0.0
 10
194.5800265355564
 20
50.72231308410762
 30
0.0
 10
194.5800265355564
 20
50.9979207229276
 30
0.0
 10
194.5800265355564
 20
50.9979207229276
 30
0.0
 10
194.5800265355564
 20
87.73282315921914
 30
0.0
 10
194.5800265355564
 20
87.73282315921914
 30
0.0
 10
194.5800265355564
 20
87.73282315921914
 30
0.0
 10
198.1575428785205
 20
87.73282315921914
 30
0.0
 10
198.1575428785205
 20
87.73282315921914
 30
0.0
 10
198.1575428785205
 20
87.73282315921914
 30
0.0
 10
198.1575428785205
 20
88.73291284674039
 30
0.0
 10
198.1575428785205
 20
88.73291284674039
 30
0.0
 10
198.1575428785205
 20
88.73291284674039
 30
0.0
 10
194.5800265355564
 20
88.73291284674039
 30
0.0
 10
194.5800265355564
 20
88.73291284674039
 30
0.0
 10
194.5800265355564
 20
88.73291284674039
 30
0.0
 10
194.5800265355564
 20
88.73293437858718
 30
0.0
 10
194.5800265355564
 20
88.73293437858718
 30
0.0
 10
194.5800265355564
 20
88.73293437858718
 30
0.0
 10
193.5799153161883
 20
88.73293437858718
 30
0.0
 10
193.5799153161883
 20
88.73293437858718
 30
0.0
 10
193.5799153161883
 20
88.73293437858718
 30
0.0
 10
193.5799153161883
 20
50.9979207229276
 30
0.0
 10
193.5799153161883
 20
50.9979207229276
 30
0.0
 10
193.5799153161883
 20
50.17092555169337
 30
0.0
 10
194.2529147192319
 20
49.49792614864982
 30
0.0
 10
195.0800821452404
 20
49.49792614864982
 30
0.0
 10
195.0800821452404
 20
49.49792614864982
 30
0.0
 10
199.4918714236513
 20
49.49792614864982
 30
0.0
 10
199.4918714236513
 20
49.49792614864982
 30
0.0
 10
199.4918714236513
 20
49.49792614864982
 30
0.0
 10
199.4918714236513
 20
17.16604952912863
 30
0.0
 10
199.4918714236513
 20
17.16604952912863
 30
0.0
 10
199.4918714236513
 20
17.16604952912863
 30
0.0
 10
183.8259887235747
 20
17.16604952912863
 30
0.0
 10
183.8259887235747
 20
17.16604952912863
 30
0.0
 10
183.8259887235747
 20
17.16604952912863
 30
0.0
 10
183.8259887235747
 20
88.73293437858718
 30
0.0
 10
183.8259887235747
 20
88.73293437858718
 30
0.0
 10
183.8259887235747
 20
88.73293437858718
 30
0.0
 10
182.8258775042067
 20
88.73293437858718
 30
0.0
 10
182.8258775042067
 20
88.73293437858718
 30
0.0
 10
182.8258775042067
 20
88.73293437858718
 30
0.0
 10
182.8258775042067
 20
17.16604952912863
 30
0.0
 10
182.8258775042067
 20
17.16604952912863
 30
0.0
 10
182.8258775042067
 20
17.16604952912863
 30
0.0
 10
167.1599948041301
 20
17.16604952912863
 30
0.0
 10
167.1599948041301
 20
17.16604952912863
 30
0.0
 10
167.1599948041301
 20
17.16604952912863
 30
0.0
 10
167.1599948041301
 20
49.49792614864982
 30
0.0
 10
167.1599948041301
 20
49.49792614864982
 30
0.0
 10
167.1599948041301
 20
49.49792614864982
 30
0.0
 10
171.826376638901
 20
49.49792614864982
 30
0.0
 10
171.826376638901
 20
49.49792614864982
 30
0.0
 10
172.6535440649095
 20
49.49792614864982
 30
0.0
 10
173.3265434679531
 20
50.17092555169337
 30
0.0
 10
173.3265434679531
 20
50.9979207229276
 30
0.0
 10
173.3265434679531
 20
50.9979207229276
 30
0.0
 10
173.3265434679531
 20
88.73293437858718
 30
0.0
 10
173.3265434679531
 20
88.73293437858718
 30
0.0
 10
173.3265434679531
 20
88.73293437858718
 30
0.0
 10
172.326432248585
 20
88.73293437858718
 30
0.0
 10
172.326432248585
 20
88.73293437858718
 30
0.0
 10
172.326432248585
 20
88.73293437858718
 30
0.0
 10
172.326432248585
 20
88.73291284674039
 30
0.0
 10
172.326432248585
 20
88.73291284674039
 30
0.0
 10
172.326432248585
 20
88.73291284674039
 30
0.0
 10
168.4951415594387
 20
88.73291284674039
 30
0.0
 10
168.4951415594387
 20
88.73291284674039
 30
0.0
 10
168.4951415594387
 20
88.73291284674039
 30
0.0
 10
168.4951415594387
 20
87.73282315921914
 30
0.0
 10
168.4951415594387
 20
87.73282315921914
 30
0.0
 10
168.4951415594387
 20
87.73282315921914
 30
0.0
 10
172.326432248585
 20
87.73282315921914
 30
0.0
 10
172.326432248585
 20
87.73282315921914
 30
0.0
 10
172.326432248585
 20
87.73282315921914
 30
0.0
 10
172.326432248585
 20
50.9979207229276
 30
0.0
 10
172.326432248585
 20
50.9979207229276
 30
0.0
 10
172.326432248585
 20
50.72231308410762
 30
0.0
 10
172.1021565324953
 20
50.49803736801785
 30
0.0
 10
171.826376638901
 20
50.49803736801785
 30
0.0
 10
171.826376638901
 20
50.49803736801785
 30
0.0
 10
166.6599391944461
 20
50.49803736801785
 30
0.0
 10
166.6599391944461
 20
50.49803736801785
 30
0.0
 10
166.6599391944461
 20
50.49803736801785
 30
0.0
 10
161.8269869929634
 20
50.49803736801785
 30
0.0
 10
161.8269869929634
 20
50.49803736801785
 30
0.0
 10
161.5513793541434
 20
50.49803736801785
 30
0.0
 10
161.3271036380536
 20
50.72231308410762
 30
0.0
 10
161.3271036380536
 20
50.9979207229276
 30
0.0
 10
161.3271036380536
 20
50.9979207229276
 30
0.0
 10
161.3271036380536
 20
87.73282315921914
 30
0.0
 10
161.3271036380536
 20
87.73282315921914
 30
0.0
 10
161.3271036380536
 20
87.73282315921914
 30
0.0
 10
164.8254904440909
 20
87.73282315921914
 30
0.0
 10
164.8254904440909
 20
87.73282315921914
 30
0.0
 10
164.8254904440909
 20
87.73282315921914
 30
0.0
 10
164.8254904440909
 20
88.73291284674039
 30
0.0
 10
164.8254904440909
 20
88.73291284674039
 30
0.0
 10
164.8254904440909
 20
88.73291284674039
 30
0.0
 10
161.3271036380536
 20
88.73291284674039
 30
0.0
 10
161.3271036380536
 20
88.73291284674039
 30
0.0
 10
161.3271036380536
 20
88.73291284674039
 30
0.0
 10
161.3271036380536
 20
88.73293437858718
 30
0.0
 10
161.3271036380536
 20
88.73293437858718
 30
0.0
 10
161.3271036380536
 20
88.73293437858718
 30
0.0
 10
160.3269924186856
 20
88.73293437858718
 30
0.0
 10
160.3269924186856
 20
88.73293437858718
 30
0.0
 10
160.3269924186856
 20
88.73293437858718
 30
0.0
 10
160.3269924186856
 20
50.9979207229276
 30
0.0
 10
160.3269924186856
 20
50.9979207229276
 30
0.0
 10
160.3269924186856
 20
50.17092555169337
 30
0.0
 10
160.9999918217291
 20
49.49792614864982
 30
0.0
 10
161.8269869929634
 20
49.49792614864982
 30
0.0
 10
161.8269869929634
 20
49.49792614864982
 30
0.0
 10
166.1598835847621
 20
49.49792614864982
 30
0.0
 10
166.1598835847621
 20
49.49792614864982
 30
0.0
 10
166.1598835847621
 20
49.49792614864982
 30
0.0
 10
166.1598835847621
 20
17.16604952912863
 30
0.0
 10
166.1598835847621
 20
17.16604952912863
 30
0.0
 10
166.1598835847621
 20
17.16604952912863
 30
0.0
 10
150.4940008846855
 20
17.16604952912863
 30
0.0
 10
150.4940008846855
 20
17.16604952912863
 30
0.0
 10
150.4940008846855
 20
17.16604952912863
 30
0.0
 10
150.4940008846855
 20
49.49792614864982
 30
0.0
 10
150.4940008846855
 20
49.49792614864982
 30
0.0
 10
150.4940008846855
 20
49.49792614864982
 30
0.0
 10
154.8270697312585
 20
49.49792614864982
 30
0.0
 10
154.8270697312585
 20
49.49792614864982
 30
0.0
 10
155.6540649024927
 20
49.49792614864982
 30
0.0
 10
156.3270643055363
 20
50.17092555169337
 30
0.0
 10
156.3270643055363
 20
50.9979207229276
 30
0.0
 10
156.3270643055363
 20
50.9979207229276
 30
0.0
 10
156.3270643055363
 20
87.73282315921914
 30
0.0
 10
156.3270643055363
 20
87.73282315921914
 30
0.0
 10
156.3270643055363
 20
87.73282315921914
 30
0.0
 10
156.3270643055363
 20
88.73291284674039
 30
0.0
 10
156.3270643055363
 20
88.73291284674039
 30
0.0
 10
156.3270643055363
 20
88.73291284674039
 30
0.0
 10
156.3270643055363
 20
88.73293437858718
 30
0.0
 10
156.3270643055363
 20
88.73293437858718
 30
0.0
 10
156.3270643055363
 20
88.73293437858718
 30
0.0
 10
155.3269530861682
 20
88.73293437858718
 30
0.0
 10
155.3269530861682
 20
88.73293437858718
 30
0.0
 10
155.3269530861682
 20
88.73293437858718
 30
0.0
 10
155.3269530861682
 20
88.73291284674039
 30
0.0
 10
155.3269530861682
 20
88.73291284674039
 30
0.0
 10
155.3269530861682
 20
88.73291284674039
 30
0.0
 10
151.8289969170666
 20
88.73291284674039
 30
0.0
 10
151.8289969170666
 20
88.73291284674039
 30
0.0
 10
151.8289969170666
 20
88.73291284674039
 30
0.0
 10
151.8289969170666
 20
87.73282315921914
 30
0.0
 10
151.8289969170666
 20
87.73282315921914
 30
0.0
 10
151.8289969170666
 20
87.73282315921914
 30
0.0
 10
155.3269530861682
 20
87.73282315921914
 30
0.0
 10
155.3269530861682
 20
87.73282315921914
 30
0.0
 10
155.3269530861682
 20
87.73282315921914
 30
0.0
 10
155.3269530861682
 20
50.9979207229276
 30
0.0
 10
155.3269530861682
 20
50.9979207229276
 30
0.0
 10
155.3269530861682
 20
50.72231308410762
 30
0.0
 10
155.1026773700785
 20
50.49803736801785
 30
0.0
 10
154.8270697312585
 20
50.49803736801785
 30
0.0
 10
154.8270697312585
 20
50.49803736801785
 30
0.0
 10
149.9939452750015
 20
50.49803736801785
 30
0.0
 10
149.9939452750015
 20
50.49803736801785
 30
0.0
 10
149.9939452750015
 20
50.49803736801785
 30
0.0
 10
145.1609930735188
 20
50.49803736801785
 30
0.0
 10
145.1609930735188
 20
50.49803736801785
 30
0.0
 10
144.8853854346988
 20
50.49803736801785
 30
0.0
 10
144.661109718609
 20
50.72231308410762
 30
0.0
 10
144.661109718609
 20
50.9979207229276
 30
0.0
 10
144.661109718609
 20
50.9979207229276
 30
0.0
 10
144.661109718609
 20
87.73282315921914
 30
0.0
 10
144.661109718609
 20
87.73282315921914
 30
0.0
 10
144.661109718609
 20
87.73282315921914
 30
0.0
 10
148.159324269872
 20
87.73282315921914
 30
0.0
 10
148.159324269872
 20
87.73282315921914
 30
0.0
 10
148.159324269872
 20
87.73282315921914
 30
0.0
 10
148.159324269872
 20
88.73291284674039
 30
0.0
 10
148.159324269872
 20
88.73291284674039
 30
0.0
 10
148.159324269872
 20
88.73291284674039
 30
0.0
 10
144.661109718609
 20
88.73291284674039
 30
0.0
 10
144.661109718609
 20
88.73291284674039
 30
0.0
 10
144.661109718609
 20
88.73291284674039
 30
0.0
 10
143.660998499241
 20
88.73291284674039
 30
0.0
 10
143.660998499241
 20
88.73291284674039
 30
0.0
 10
143.660998499241
 20
88.73291284674039
 30
0.0
 10
143.660998499241
 20
87.73282315921914
 30
0.0
 10
143.660998499241
 20
87.73282315921914
 30
0.0
 10
143.660998499241
 20
87.73282315921914
 30
0.0
 10
143.660998499241
 20
50.9979207229276
 30
0.0
 10
143.660998499241
 20
50.9979207229276
 30
0.0
 10
143.660998499241
 20
50.17092555169337
 30
0.0
 10
144.3339979022845
 20
49.49792614864982
 30
0.0
 10
145.1609930735188
 20
49.49792614864982
 30
0.0
 10
145.1609930735188
 20
49.49792614864982
 30
0.0
 10
149.4938896653175
 20
49.49792614864982
 30
0.0
 10
149.4938896653175
 20
49.49792614864982
 30
0.0
 10
149.4938896653175
 20
49.49792614864982
 30
0.0
 10
149.4938896653175
 20
17.16604952912863
 30
0.0
 10
149.4938896653175
 20
17.16604952912863
 30
0.0
 10
149.4938896653175
 20
17.16604952912863
 30
0.0
 10
133.8280069652409
 20
17.16604952912863
 30
0.0
 10
133.8280069652409
 20
17.16604952912863
 30
0.0
 10
133.8280069652409
 20
17.16604952912863
 30
0.0
 10
133.8280069652409
 20
88.73291284674039
 30
0.0
 10
133.8280069652409
 20
88.73291284674039
 30
0.0
 10
133.8280069652409
 20
88.73291284674039
 30
0.0
 10
132.8278957458729
 20
88.73291284674039
 30
0.0
 10
132.8278957458729
 20
88.73291284674039
 30
0.0
 10
132.8278957458729
 20
88.73291284674039
 30
0.0
 10
132.8278957458729
 20
17.16604952912863
 30
0.0
 10
132.8278957458729
 20
17.16604952912863
 30
0.0
 10
132.8278957458729
 20
17.16604952912863
 30
0.0
 10
117.1620130457963
 20
17.16604952912863
 30
0.0
 10
117.1620130457963
 20
17.16604952912863
 30
0.0
 10
117.1620130457963
 20
17.16604952912863
 30
0.0
 10
117.1620130457963
 20
49.49792614864982
 30
0.0
 10
117.1620130457963
 20
49.49792614864982
 30
0.0
 10
117.1620130457963
 20
49.49792614864982
 30
0.0
 10
121.6618245138554
 20
49.49792614864982
 30
0.0
 10
121.6618245138554
 20
49.49792614864982
 30
0.0
 10
122.4888196850896
 20
49.49792614864982
 30
0.0
 10
123.1618190881331
 20
50.17092555169337
 30
0.0
 10
123.1618190881331
 20
50.9979207229276
 30
0.0
 10
123.1618190881331
 20
50.9979207229276
 30
0.0
 10
123.1618190881331
 20
88.73291284674039
 30
0.0
 10
123.1618190881331
 20
88.73291284674039
 30
0.0
 10
123.1618190881331
 20
88.73291284674039
 30
0.0
 10
123.1589122888175
 20
88.73291284674039
 30
0.0
 10
123.1589122888175
 20
88.73291284674039
 30
0.0
 10
123.1589122888175
 20
88.73291284674039
 30
0.0
 10
122.1617078687651
 20
88.73291284674039
 30
0.0
 10
122.1617078687651
 20
88.73291284674039
 30
0.0
 10
122.1617078687651
 20
88.73291284674039
 30
0.0
 10
118.4968152915563
 20
88.73291284674039
 30
0.0
 10
118.4968152915563
 20
88.73291284674039
 30
0.0
 10
118.4968152915563
 20
88.73291284674039
 30
0.0
 10
118.4968152915563
 20
87.73282315921914
 30
0.0
 10
118.4968152915563
 20
87.73282315921914
 30
0.0
 10
118.4968152915563
 20
87.73282315921914
 30
0.0
 10
122.1617078687651
 20
87.73282315921914
 30
0.0
 10
122.1617078687651
 20
87.73282315921914
 30
0.0
 10
122.1617078687651
 20
87.73282315921914
 30
0.0
 10
122.1617078687651
 20
50.9979207229276
 30
0.0
 10
122.1617078687651
 20
50.9979207229276
 30
0.0
 10
122.1617078687651
 20
50.72231308410762
 30
0.0
 10
121.9374321526753
 20
50.49803736801785
 30
0.0
 10
121.6618245138554
 20
50.49803736801785
 30
0.0
 10
121.6618245138554
 20
50.49803736801785
 30
0.0
 10
116.6619574361123
 20
50.49803736801785
 30
0.0
 10
116.6619574361123
 20
50.49803736801785
 30
0.0
 10
116.6619574361123
 20
50.49803736801785
 30
0.0
 10
111.6622626131434
 20
50.49803736801785
 30
0.0
 10
111.6622626131434
 20
50.49803736801785
 30
0.0
 10
111.3866549743234
 20
50.49803736801785
 30
0.0
 10
111.1623792582337
 20
50.72231308410762
 30
0.0
 10
111.1623792582337
 20
50.9979207229276
 30
0.0
 10
111.1623792582337
 20
50.9979207229276
 30
0.0
 10
111.1623792582337
 20
87.73282315921914
 30
0.0
 10
111.1623792582337
 20
87.73282315921914
 30
0.0
 10
111.1623792582337
 20
87.73282315921914
 30
0.0
 10
114.8271426443618
 20
87.73282315921914
 30
0.0
 10
114.8271426443618
 20
87.73282315921914
 30
0.0
 10
114.8271426443618
 20
87.73282315921914
 30
0.0
 10
114.8271426443618
 20
88.73291284674039
 30
0.0
 10
114.8271426443618
 20
88.73291284674039
 30
0.0
 10
114.8271426443618
 20
88.73291284674039
 30
0.0
 10
111.1623792582337
 20
88.73291284674039
 30
0.0
 10
111.1623792582337
 20
88.73291284674039
 30
0.0
 10
111.1623792582337
 20
88.73291284674039
 30
0.0
 10
110.1650241152539
 20
88.73291284674039
 30
0.0
 10
110.1650241152539
 20
88.73291284674039
 30
0.0
 10
110.1650241152539
 20
88.73291284674039
 30
0.0
 10
110.1622680388657
 20
88.73291284674039
 30
0.0
 10
110.1622680388657
 20
88.73291284674039
 30
0.0
 10
110.1622680388657
 20
88.73291284674039
 30
0.0
 10
110.1622680388657
 20
50.9979207229276
 30
0.0
 10
110.1622680388657
 20
50.9979207229276
 30
0.0
 10
110.1622680388657
 20
50.17092555169337
 30
0.0
 10
110.8352674419092
 20
49.49792614864982
 30
0.0
 10
111.6622626131434
 20
49.49792614864982
 30
0.0
 10
111.6622626131434
 20
49.49792614864982
 30
0.0
 10
116.1619018264282
 20
49.49792614864982
 30
0.0
 10
116.1619018264282
 20
49.49792614864982
 30
0.0
 10
116.1619018264282
 20
49.49792614864982
 30
0.0
 10
116.1619018264282
 20
17.16604952912863
 30
0.0
 10
116.1619018264282
 20
17.16604952912863
 30
0.0
 10
116.1619018264282
 20
17.16604952912863
 30
0.0
 10
100.4960191263517
 20
17.16604952912863
 30
0.0
 10
100.4960191263517
 20
17.16604952912863
 30
0.0
 10
100.4960191263517
 20
17.16604952912863
 30
0.0
 10
100.4960191263517
 20
49.49792614864982
 30
0.0
 10
100.4960191263517
 20
49.49792614864982
 30
0.0
 10
100.4960191263517
 20
49.49792614864982
 30
0.0
 10
105.0835082745104
 20
49.49792614864982
 30
0.0
 10
105.0835082745104
 20
49.49792614864982
 30
0.0
 10
105.9105034457446
 20
49.49792614864982
 30
0.0
 10
106.5835028487881
 20
50.17092555169337
 30
0.0
 10
106.5835028487881
 20
50.9979207229276
 30
0.0
 10
106.5835028487881
 20
50.9979207229276
 30
0.0
 10
106.5835028487881
 20
88.73291284674039
 30
0.0
 10
106.5835028487881
 20
88.73291284674039
 30
0.0
 10
106.5835028487881
 20
88.73291284674039
 30
0.0
 10
106.5778399730842
 20
88.73291284674039
 30
0.0
 10
106.5778399730842
 20
88.73291284674039
 30
0.0
 10
106.5778399730842
 20
88.73291284674039
 30
0.0
 10
105.5833916294201
 20
88.73291284674039
 30
0.0
 10
105.5833916294201
 20
88.73291284674039
 30
0.0
 10
105.5833916294201
 20
88.73291284674039
 30
0.0
 10
101.9157429758231
 20
88.73291284674039
 30
0.0
 10
101.9157429758231
 20
88.73291284674039
 30
0.0
 10
101.9157429758231
 20
88.73291284674039
 30
0.0
 10
101.9157429758231
 20
87.73282315921914
 30
0.0
 10
101.9157429758231
 20
87.73282315921914
 30
0.0
 10
101.9157429758231
 20
87.73282315921914
 30
0.0
 10
105.5833916294201
 20
87.73282315921914
 30
0.0
 10
105.5833916294201
 20
87.73282315921914
 30
0.0
 10
105.5833916294201
 20
87.73282315921914
 30
0.0
 10
105.5833916294201
 20
50.9979207229276
 30
0.0
 10
105.5833916294201
 20
50.9979207229276
 30
0.0
 10
105.5833916294201
 20
50.72231308410762
 30
0.0
 10
105.3591159133304
 20
50.49803736801785
 30
0.0
 10
105.0835082745104
 20
50.49803736801785
 30
0.0
 10
105.0835082745104
 20
50.49803736801785
 30
0.0
 10
99.99596351666768
 20
50.49803736801785
 30
0.0
 10
99.99596351666768
 20
50.49803736801785
 30
0.0
 10
99.99596351666768
 20
50.49803736801785
 30
0.0
 10
95.08394637379847
 20
50.49803736801785
 30
0.0
 10
95.08394637379847
 20
50.49803736801785
 30
0.0
 10
94.80833873497848
 20
50.49803736801785
 30
0.0
 10
94.58406301888871
 20
50.72231308410762
 30
0.0
 10
94.58406301888871
 20
50.9979207229276
 30
0.0
 10
94.58406301888871
 20
50.9979207229276
 30
0.0
 10
94.58406301888871
 20
87.73282315921914
 30
0.0
 10
94.58406301888871
 20
87.73282315921914
 30
0.0
 10
94.58406301888871
 20
87.73282315921914
 30
0.0
 10
98.24607032862859
 20
87.73282315921914
 30
0.0
 10
98.24607032862859
 20
87.73282315921914
 30
0.0
 10
98.24607032862859
 20
87.73282315921914
 30
0.0
 10
98.24607032862859
 20
88.73291284674039
 30
0.0
 10
98.24607032862859
 20
88.73291284674039
 30
0.0
 10
98.24607032862859
 20
88.73291284674039
 30
0.0
 10
94.58406301888871
 20
88.73291284674039
 30
0.0
 10
94.58406301888871
 20
88.73291284674039
 30
0.0
 10
94.58406301888871
 20
88.73291284674039
 30
0.0
 10
93.58395179952067
 20
88.73291284674039
 30
0.0
 10
93.58395179952067
 20
88.73291284674039
 30
0.0
 10
93.58395179952067
 20
88.73291284674039
 30
0.0
 10
93.58395179952067
 20
87.73282315921914
 30
0.0
 10
93.58395179952067
 20
87.73282315921914
 30
0.0
 10
93.58395179952067
 20
87.73282315921914
 30
0.0
 10
93.58395179952067
 20
50.9979207229276
 30
0.0
 10
93.58395179952067
 20
50.9979207229276
 30
0.0
 10
93.58395179952067
 20
50.17092555169337
 30
0.0
 10
94.25695120256424
 20
49.49792614864982
 30
0.0
 10
95.08394637379847
 20
49.49792614864982
 30
0.0
 10
95.08394637379847
 20
49.49792614864982
 30
0.0
 10
99.49590790698366
 20
49.49792614864982
 30
0.0
 10
99.49590790698366
 20
49.49792614864982
 30
0.0
 10
99.49590790698366
 20
49.49792614864982
 30
0.0
 10
99.49590790698366
 20
17.16604952912863
 30
0.0
 10
99.49590790698366
 20
17.16604952912863
 30
0.0
 10
99.49590790698366
 20
17.16604952912863
 30
0.0
 10
83.83002520690707
 20
17.16604952912863
 30
0.0
 10
83.83002520690707
 20
17.16604952912863
 30
0.0
 10
83.83002520690707
 20
17.16604952912863
 30
0.0
 10
83.83002520690707
 20
49.49792614864982
 30
0.0
 10
83.83002520690707
 20
49.49792614864982
 30
0.0
 10
83.83002520690707
 20
49.49792614864982
 30
0.0
 10
88.08402911209357
 20
49.49792614864982
 30
0.0
 10
88.08402911209357
 20
49.49792614864982
 30
0.0
 10
88.9110242833278
 20
49.49792614864982
 30
0.0
 10
89.58402368637136
 20
50.17092555169337
 30
0.0
 10
89.58402368637136
 20
50.9979207229276
 30
0.0
 10
89.58402368637136
 20
50.9979207229276
 30
0.0
 10
89.58402368637136
 20
88.73291284674039
 30
0.0
 10
89.58402368637136
 20
88.73291284674039
 30
0.0
 10
89.58402368637136
 20
88.73291284674039
 30
0.0
 10
89.08403267222769
 20
88.73291284674039
 30
0.0
 10
89.08403267222769
 20
88.73291284674039
 30
0.0
 10
89.08403267222769
 20
88.73291284674039
 30
0.0
 10
89.08403267222769
 20
88.73293437858718
 30
0.0
 10
89.08403267222769
 20
88.73293437858718
 30
0.0
 10
89.08403267222769
 20
88.73293437858718
 30
0.0
 10
85.08003504003642
 20
88.73293437858718
 30
0.0
 10
85.08003504003642
 20
88.73293437858718
 30
0.0
 10
85.08003504003642
 20
88.73293437858718
 30
0.0
 10
85.08003504003642
 20
87.73282315921914
 30
0.0
 10
85.08003504003642
 20
87.73282315921914
 30
0.0
 10
85.08003504003642
 20
87.73282315921914
 30
0.0
 10
88.58391246700334
 20
87.73282315921914
 30
0.0
 10
88.58391246700334
 20
87.73282315921914
 30
0.0
 10
88.58391246700334
 20
87.73282315921914
 30
0.0
 10
88.58391246700334
 20
50.9979207229276
 30
0.0
 10
88.58391246700334
 20
50.9979207229276
 30
0.0
 10
88.58391246700334
 20
50.72231308410762
 30
0.0
 10
88.35963675091356
 20
50.49803736801785
 30
0.0
 10
88.08402911209357
 20
50.49803736801785
 30
0.0
 10
88.08402911209357
 20
50.49803736801785
 30
0.0
 10
83.32996959722306
 20
50.49803736801785
 30
0.0
 10
83.32996959722306
 20
50.49803736801785
 30
0.0
 10
83.32996959722306
 20
50.49803736801785
 30
0.0
 10
78.41795245435385
 20
50.49803736801785
 30
0.0
 10
78.41795245435385
 20
50.49803736801785
 30
0.0
 10
78.14234481553386
 20
50.49803736801785
 30
0.0
 10
77.91806909944409
 20
50.72231308410762
 30
0.0
 10
77.91806909944409
 20
50.9979207229276
 30
0.0
 10
77.91806909944409
 20
50.9979207229276
 30
0.0
 10
77.91806909944409
 20
87.73282315921914
 30
0.0
 10
77.91806909944409
 20
87.73282315921914
 30
0.0
 10
77.91806909944409
 20
87.73282315921914
 30
0.0
 10
81.58003334549041
 20
87.73282315921914
 30
0.0
 10
81.58003334549041
 20
87.73282315921914
 30
0.0
 10
81.58003334549041
 20
87.73282315921914
 30
0.0
 10
81.58003334549041
 20
88.73293437858718
 30
0.0
 10
81.58003334549041
 20
88.73293437858718
 30
0.0
 10
81.58003334549041
 20
88.73293437858718
 30
0.0
 10
77.4179919579133
 20
88.73293437858718
 30
0.0
 10
77.4179919579133
 20
88.73293437858718
 30
0.0
 10
77.4179919579133
 20
88.73293437858718
 30
0.0
 10
77.4179919579133
 20
88.73291284674039
 30
0.0
 10
77.4179919579133
 20
88.73291284674039
 30
0.0
 10
77.4179919579133
 20
88.73291284674039
 30
0.0
 10
76.91795788007607
 20
88.73291284674039
 30
0.0
 10
76.91795788007607
 20
88.73291284674039
 30
0.0
 10
76.91795788007607
 20
88.73291284674039
 30
0.0
 10
76.91795788007607
 20
50.9979207229276
 30
0.0
 10
76.91795788007607
 20
50.9979207229276
 30
0.0
 10
76.91795788007607
 20
50.17092555169337
 30
0.0
 10
77.59095728311962
 20
49.49792614864982
 30
0.0
 10
78.41795245435385
 20
49.49792614864982
 30
0.0
 10
78.41795245435385
 20
49.49792614864982
 30
0.0
 10
82.82991398753905
 20
49.49792614864982
 30
0.0
 10
82.82991398753905
 20
49.49792614864982
 30
0.0
 10
82.82991398753905
 20
49.49792614864982
 30
0.0
 10
82.82991398753905
 20
17.16604952912863
 30
0.0
 10
82.82991398753905
 20
17.16604952912863
 30
0.0
 10
82.82991398753905
 20
17.16604952912863
 30
0.0
 10
67.16403128746247
 20
17.16604952912863
 30
0.0
 10
67.16403128746247
 20
17.16604952912863
 30
0.0
 10
67.16403128746247
 20
17.16604952912863
 30
0.0
 10
67.16403128746247
 20
88.73291284674039
 30
0.0
 10
67.16403128746247
 20
88.73291284674039
 30
0.0
 10
67.16403128746247
 20
88.73291284674039
 30
0.0
 10
66.16392006809444
 20
88.73291284674039
 30
0.0
 10
66.16392006809444
 20
88.73291284674039
 30
0.0
 10
66.16392006809444
 20
88.73291284674039
 30
0.0
 10
66.16392006809444
 20
17.16604952912863
 30
0.0
 10
66.16392006809444
 20
17.16604952912863
 30
0.0
 10
66.16392006809444
 20
17.16604952912863
 30
0.0
 10
50.49803736801785
 20
17.16604952912863
 30
0.0
 10
50.49803736801785
 20
17.16604952912863
 30
0.0
 10
50.49803736801785
 20
17.16604952912863
 30
0.0
 10
50.49803736801785
 20
49.49792614864982
 30
0.0
 10
50.49803736801785
 20
49.49792614864982
 30
0.0
 10
50.49803736801785
 20
49.49792614864982
 30
0.0
 10
55.16441920278875
 20
49.49792614864982
 30
0.0
 10
55.16441920278875
 20
49.49792614864982
 30
0.0
 10
55.99141437402298
 20
49.49792614864982
 30
0.0
 10
56.66441377706654
 20
50.17092555169337
 30
0.0
 10
56.66441377706654
 20
50.9979207229276
 30
0.0
 10
56.66441377706654
 20
50.9979207229276
 30
0.0
 10
56.66441377706654
 20
88.73291284674039
 30
0.0
 10
56.66441377706654
 20
88.73291284674039
 30
0.0
 10
56.66441377706654
 20
88.73291284674039
 30
0.0
 10
56.3268590150524
 20
88.73291284674039
 30
0.0
 10
56.3268590150524
 20
88.73291284674039
 30
0.0
 10
56.3268590150524
 20
88.73291284674039
 30
0.0
 10
56.3268590150524
 20
88.73293437858718
 30
0.0
 10
56.3268590150524
 20
88.73293437858718
 30
0.0
 10
56.3268590150524
 20
88.73293437858718
 30
0.0
 10
51.74798260560685
 20
88.73293437858718
 30
0.0
 10
51.74798260560685
 20
88.73293437858718
 30
0.0
 10
51.74798260560685
 20
88.73293437858718
 30
0.0
 10
51.74798260560685
 20
87.73282315921914
 30
0.0
 10
51.74798260560685
 20
87.73282315921914
 30
0.0
 10
51.74798260560685
 20
87.73282315921914
 30
0.0
 10
55.66430255769851
 20
87.73282315921914
 30
0.0
 10
55.66430255769851
 20
87.73282315921914
 30
0.0
 10
55.66430255769851
 20
87.73282315921914
 30
0.0
 10
55.66430255769851
 20
50.9979207229276
 30
0.0
 10
55.66430255769851
 20
50.9979207229276
 30
0.0
 10
55.66430255769851
 20
50.72231308410762
 30
0.0
 10
55.44002684160875
 20
50.49803736801785
 30
0.0
 10
55.16441920278875
 20
50.49803736801785
 30
0.0
 10
55.16441920278875
 20
50.49803736801785
 30
0.0
 10
49.99798175833384
 20
50.49803736801785
 30
0.0
 10
49.99798175833384
 20
50.49803736801785
 30
0.0
 10
49.99798175833384
 20
50.49803736801785
 30
0.0
 10
45.1650295568511
 20
50.49803736801785
 30
0.0
 10
45.1650295568511
 20
50.49803736801785
 30
0.0
 10
44.88924966325686
 20
50.49803736801785
 30
0.0
 10
44.66497394716709
 20
50.72231308410762
 30
0.0
 10
44.66497394716709
 20
50.9979207229276
 30
0.0
 10
44.66497394716709
 20
50.9979207229276
 30
0.0
 10
44.66497394716709
 20
87.73282315921914
 30
0.0
 10
44.66497394716709
 20
87.73282315921914
 30
0.0
 10
44.66497394716709
 20
87.73282315921914
 30
0.0
 10
48.24798091106083
 20
87.73282315921914
 30
0.0
 10
48.24798091106083
 20
87.73282315921914
 30
0.0
 10
48.24798091106083
 20
87.73282315921914
 30
0.0
 10
48.24798091106083
 20
88.73293437858718
 30
0.0
 10
48.24798091106083
 20
88.73293437858718
 30
0.0
 10
48.24798091106083
 20
88.73293437858718
 30
0.0
 10
44.1650044648702
 20
88.73293437858718
 30
0.0
 10
44.1650044648702
 20
88.73293437858718
 30
0.0
 10
44.1650044648702
 20
88.73293437858718
 30
0.0
 10
44.1650044648702
 20
88.73291284674039
 30
0.0
 10
44.1650044648702
 20
88.73291284674039
 30
0.0
 10
44.1650044648702
 20
88.73291284674039
 30
0.0
 10
43.66486272779906
 20
88.73291284674039
 30
0.0
 10
43.66486272779906
 20
88.73291284674039
 30
0.0
 10
43.66486272779906
 20
88.73291284674039
 30
0.0
 10
43.66486272779906
 20
50.9979207229276
 30
0.0
 10
43.66486272779906
 20
50.9979207229276
 30
0.0
 10
43.66486272779906
 20
50.17092555169337
 30
0.0
 10
44.33786213084262
 20
49.49792614864982
 30
0.0
 10
45.1650295568511
 20
49.49792614864982
 30
0.0
 10
45.1650295568511
 20
49.49792614864982
 30
0.0
 10
49.49792614864982
 20
49.49792614864982
 30
0.0
 10
49.49792614864982
 20
49.49792614864982
 30
0.0
 10
49.49792614864982
 20
49.49792614864982
 30
0.0
 10
49.49792614864982
 20
17.16604952912863
 30
0.0
 10
49.49792614864982
 20
17.16604952912863
 30
0.0
 10
49.49792614864982
 20
17.16604952912863
 30
0.0
 10
33.83204344857324
 20
17.16604952912863
 30
0.0
 10
33.83204344857324
 20
17.16604952912863
 30
0.0
 10
33.83204344857324
 20
17.16604952912863
 30
0.0
 10
33.83204344857324
 20
49.49792614864982
 30
0.0
 10
33.83204344857324
 20
49.49792614864982
 30
0.0
 10
33.83204344857324
 20
49.49792614864982
 30
0.0
 10
38.16494004037196
 20
49.49792614864982
 30
0.0
 10
38.16494004037196
 20
49.49792614864982
 30
0.0
 10
38.99210746638045
 20
49.49792614864982
 30
0.0
 10
39.665106869424
 20
50.17092555169337
 30
0.0
 10
39.665106869424
 20
50.9979207229276
 30
0.0
 10
39.665106869424
 20
50.9979207229276
 30
0.0
 10
39.665106869424
 20
88.73291284674039
 30
0.0
 10
39.665106869424
 20
88.73291284674039
 30
0.0
 10
39.665106869424
 20
88.73291284674039
 30
0.0
 10
39.16498666419964
 20
88.73291284674039
 30
0.0
 10
39.16498666419964
 20
88.73291284674039
 30
0.0
 10
39.16498666419964
 20
88.73291284674039
 30
0.0
 10
39.16498666419964
 20
88.73293437858718
 30
0.0
 10
39.16498666419964
 20
88.73293437858718
 30
0.0
 10
39.16498666419964
 20
88.73293437858718
 30
0.0
 10
35.08196715431545
 20
88.73293437858718
 30
0.0
 10
35.08196715431545
 20
88.73293437858718
 30
0.0
 10
35.08196715431545
 20
88.73293437858718
 30
0.0
 10
35.08196715431545
 20
87.73282315921914
 30
0.0
 10
35.08196715431545
 20
87.73282315921914
 30
0.0
 10
35.08196715431545
 20
87.73282315921914
 30
0.0
 10
38.66499565005598
 20
87.73282315921914
 30
0.0
 10
38.66499565005598
 20
87.73282315921914
 30
0.0
 10
38.66499565005598
 20
87.73282315921914
 30
0.0
 10
38.66499565005598
 20
50.9979207229276
 30
0.0
 10
38.66499565005598
 20
50.9979207229276
 30
0.0
 10
38.66499565005598
 20
50.72231308410762
 30
0.0
 10
38.44071993396621
 20
50.49803736801785
 30
0.0
 10
38.16494004037196
 20
50.49803736801785
 30
0.0
 10
38.16494004037196
 20
50.49803736801785
 30
0.0
 10
33.33198783888923
 20
50.49803736801785
 30
0.0
 10
33.33198783888923
 20
50.49803736801785
 30
0.0
 10
33.33198783888923
 20
50.49803736801785
 30
0.0
 10
28.4990356374065
 20
50.49803736801785
 30
0.0
 10
28.4990356374065
 20
50.49803736801785
 30
0.0
 10
28.22325574381224
 20
50.49803736801785
 30
0.0
 10
27.99898002772248
 20
50.72231308410762
 30
0.0
 10
27.99898002772248
 20
50.9979207229276
 30
0.0
 10
27.99898002772248
 20
50.9979207229276
 30
0.0
 10
27.99898002772248
 20
87.73282315921914
 30
0.0
 10
27.99898002772248
 20
87.73282315921914
 30
0.0
 10
27.99898002772248
 20
87.73282315921914
 30
0.0
 10
31.58196545976944
 20
87.73282315921914
 30
0.0
 10
31.58196545976944
 20
87.73282315921914
 30
0.0
 10
31.58196545976944
 20
87.73282315921914
 30
0.0
 10
31.58196545976944
 20
88.73293437858718
 30
0.0
 10
31.58196545976944
 20
88.73293437858718
 30
0.0
 10
31.58196545976944
 20
88.73293437858718
 30
0.0
 10
27.49892441803846
 20
88.73293437858718
 30
0.0
 10
27.49892441803846
 20
88.73293437858718
 30
0.0
 10
27.49892441803846
 20
88.73293437858718
 30
0.0
 10
27.49892441803846
 20
88.73291284674039
 30
0.0
 10
27.49892441803846
 20
88.73291284674039
 30
0.0
 10
27.49892441803846
 20
88.73291284674039
 30
0.0
 10
26.99886880835445
 20
88.73291284674039
 30
0.0
 10
26.99886880835445
 20
88.73291284674039
 30
0.0
 10
26.99886880835445
 20
88.73291284674039
 30
0.0
 10
26.99886880835445
 20
50.9979207229276
 30
0.0
 10
26.99886880835445
 20
50.9979207229276
 30
0.0
 10
26.99886880835445
 20
50.17092555169337
 30
0.0
 10
27.67186821139801
 20
49.49792614864982
 30
0.0
 10
28.4990356374065
 20
49.49792614864982
 30
0.0
 10
28.4990356374065
 20
49.49792614864982
 30
0.0
 10
32.83193222920522
 20
49.49792614864982
 30
0.0
 10
32.83193222920522
 20
49.49792614864982
 30
0.0
 10
32.83193222920522
 20
49.49792614864982
 30
0.0
 10
32.83193222920522
 20
17.16604952912863
 30
0.0
 10
32.83193222920522
 20
17.16604952912863
 30
0.0
 10
32.83193222920522
 20
17.16604952912863
 30
0.0
 10
17.16604952912863
 20
17.16604952912863
 30
0.0
 10
17.16604952912863
 20
17.16604952912863
 30
0.0
 10
17.16604952912863
 20
17.16604952912863
 30
0.0
 10
17.16604952912863
 20
88.73291284674039
 30
0.0
 10
17.16604952912863
 20
88.73291284674039
 30
0.0
 10
17.16604952912863
 20
88.73291284674039
 30
0.0
 10
16.1659383097606
 20
88.73291284674039
 30
0.0
 10
16.1659383097606
 20
88.73291284674039
 30
0.0
 10
16.1659383097606
 20
88.73291284674039
 30
0.0
 10
16.1659383097606
 20
16.1659383097606
 30
0.0
 10
16.1659383097606
 20
16.1659383097606
 30
0.0
 10
16.1659383097606
 20
16.1659383097606
 30
0.0
 10
33.33198783888923
 20
16.1659383097606
 30
0.0
 10
33.33198783888923
 20
16.1659383097606
 30
0.0
 10
33.33198783888923
 20
16.1659383097606
 30
0.0
 10
49.99798175833384
 20
16.1659383097606
 30
0.0
 10
49.99798175833384
 20
16.1659383097606
 30
0.0
 10
49.99798175833384
 20
16.1659383097606
 30
0.0
 10
66.66397567777845
 20
16.1659383097606
 30
0.0
 10
66.66397567777845
 20
16.1659383097606
 30
0.0
 10
66.66397567777845
 20
16.1659383097606
 30
0.0
 10
83.32996959722306
 20
16.1659383097606
 30
0.0
 10
83.32996959722306
 20
16.1659383097606
 30
0.0
 10
83.32996959722306
 20
16.1659383097606
 30
0.0
 10
99.99596351666768
 20
16.1659383097606
 30
0.0
 10
99.99596351666768
 20
16.1659383097606
 30
0.0
 10
99.99596351666768
 20
16.1659383097606
 30
0.0
 10
116.6619574361123
 20
16.1659383097606
 30
0.0
 10
116.6619574361123
 20
16.1659383097606
 30
0.0
 10
116.6619574361123
 20
16.1659383097606
 30
0.0
 10
132.8278957458729
 20
16.1659383097606
 30
0.0
 10
132.8278957458729
 20
16.1659383097606
 30
0.0
 10
132.8278957458729
 20
16.1659383097606
 30
0.0
 10
133.8280069652409
 20
16.1659383097606
 30
0.0
 10
133.8280069652409
 20
16.1659383097606
 30
0.0
 10
133.8280069652409
 20
16.1659383097606
 30
0.0
 10
149.9939452750015
 20
16.1659383097606
 30
0.0
 10
149.9939452750015
 20
16.1659383097606
 30
0.0
 10
149.9939452750015
 20
16.1659383097606
 30
0.0
 10
166.6599391944461
 20
16.1659383097606
 30
0.0
 10
166.6599391944461
 20
16.1659383097606
 30
0.0
 10
166.6599391944461
 20
16.1659383097606
 30
0.0
 10
183.3259331138907
 20
16.1659383097606
 30
0.0
 10
183.3259331138907
 20
16.1659383097606
 30
0.0
 10
183.3259331138907
 20
16.1659383097606
 30
0.0
 10
199.9919270333353
 20
16.1659383097606
 30
0.0
 10
199.9919270333353
 20
16.1659383097606
 30
0.0
 10
199.9919270333353
 20
16.1659383097606
 30
0.0
 10
216.65792095278
 20
16.1659383097606
 30
0.0
 10
216.65792095278
 20
16.1659383097606
 30
0.0
 10
216.65792095278
 20
16.1659383097606
 30
0.0
 10
233.3240871269989
 20
16.1659383097606
 30
0.0
 10
233.3240871269989
 20
16.1659383097606
 30
0.0
 10
233.3240871269989
 20
16.1659383097606
 30
0.0
 10
250.4901366561275
 20
16.1659383097606
 30
0.0
 10
250.4901366561275
 20
16.1659383097606
 30
0.0
 10
250.4901366561275
 20
16.1659383097606
 30
0.0
 10
250.4901366561275
 20
88.73293437858718
 30
0.0
 10
250.4901366561275
 20
88.73293437858718
 30
0.0
 10
250.4901366561275
 20
88.73293437858718
 30
0.0
 10
249.4900254367594
 20
88.73293437858718
 30
0.0
 10
249.4900254367594
 20
88.73293437858718
 30
0.0
  0
ENDSEC
  0
SECTION
  2
OBJECTS
  0
DICTIONARY
  5
C
330
0
100
AcDbDictionary
281
     1
  3
ACAD_COLOR
350
63
  3
ACAD_DETAILVIEWSTYLE
350
6A
  3
ACAD_GROUP
350
D
  3
ACAD_LAYOUT
350
62
  3
ACAD_MATERIAL
350
10
  3
ACAD_MLEADERSTYLE
350
66
  3
ACAD_MLINESTYLE
350
5F
  3
ACAD_PLOTSETTINGS
350
61
  3
ACAD_PLOTSTYLENAME
350
E
  3
ACAD_SCALELIST
350
42
  3
ACAD_SECTIONVIEWSTYLE
350
68
  3
ACAD_TABLESTYLE
350
64
  3
ACAD_VISUALSTYLE
350
29
  3
ACDB_RECOMPOSE_DATA
350
AD
  3
AcDbVariableDictionary
350
A5
  0
DICTIONARY
  5
63
102
{ACAD_REACTORS
330
C
102
}
330
C
100
AcDbDictionary
281
     1
  0
DICTIONARY
  5
6A
102
{ACAD_REACTORS
330
C
102
}
330
C
100
AcDbDictionary
281
     1
  3
Imperial24
350
6B
  0
DICTIONARY
  5
D
102
{ACAD_REACTORS
330
C
102
}
330
C
100
AcDbDictionary
281
     1
  0
DICTIONARY
  5
62
102
{ACAD_REACTORS
330
C
102
}
330
C
100
AcDbDictionary
281
     1
  3
Layout1
350
6F
  3
Layout2
350
77
  3
Model
350
73
  0
DICTIONARY
  5
10
102
{ACAD_REACTORS
330
C
102
}
330
C
100
AcDbDictionary
281
     1
  3
ByBlock
350
19
  3
ByLayer
350
11
  3
Global
350
21
  0
DICTIONARY
  5
66
102
{ACAD_REACTORS
330
C
102
}
330
C
100
AcDbDictionary
281
     1
  3
Standard
350
67
  0
DICTIONARY
  5
5F
102
{ACAD_REACTORS
330
C
102
}
330
C
100
AcDbDictionary
281
     1
  3
Standard
350
60
  0
DICTIONARY
  5
61
102
{ACAD_REACTORS
330
C
102
}
330
C
100
AcDbDictionary
281
     1
  0
ACDBDICTIONARYWDFLT
  5
E
102
{ACAD_REACTORS
330
C
102
}
330
C
100
AcDbDictionary
281
     1
  3
Normal
350
F
100
AcDbDictionaryWithDefault
340
F
  0
DICTIONARY
  5
42
102
{ACAD_REACTORS
330
C
102
}
330
C
100
AcDbDictionary
281
     1
  3
A0
350
43
  3
A1
350
44
  3
A2
350
45
  3
A3
350
46
  3
A4
350
47
  3
A5
350
48
  3
A6
350
49
  3
A7
350
4A
  3
A8
350
4B
  3
A9
350
4C
  3
B0
350
4D
  3
B1
350
4E
  3
B2
350
4F
  3
B3
350
50
  3
B4
350
51
  3
B5
350
52
  3
B6
350
53
  0
DICTIONARY
  5
68
102
{ACAD_REACTORS
330
C
102
}
330
C
100
AcDbDictionary
281
     1
  3
Imperial24
350
69
  0
DICTIONARY
  5
64
102
{ACAD_REACTORS
330
C
102
}
330
C
100
AcDbDictionary
281
     1
  3
Standard
350
65
  0
DICTIONARY
  5
29
102
{ACAD_REACTORS
330
C
102
}
330
C
100
AcDbDictionary
281
     1
  3
2dWireframe
350
2F
  3
Basic
350
2E
  3
Brighten
350
35
  3
ColorChange
350
39
  3
Conceptual
350
32
  3
Dim
350
34
  3
EdgeColorOff
350
41
  3
Facepattern
350
38
  3
Flat
350
2A
  3
FlatWithEdges
350
2B
  3
Gouraud
350
2C
  3
GouraudWithEdges
350
2D
  3
Hidden
350
31
  3
JitterOff
350
3F
  3
Linepattern
350
37
  3
OverhangOff
350
40
  3
Realistic
350
33
  3
Shaded
350
3E
  3
Shaded with edges
350
3D
  3
Shades of Gray
350
3A
  3
Sketchy
350
3B
  3
Thicken
350
36
  3
Wireframe
350
30
  3
X-Ray
350
3C
  0
XRECORD
  5
AD
102
{ACAD_REACTORS
330
C
102
}
330
C
100
AcDbXrecord
280
     1
 90
        1
330
65
  0
DICTIONARY
  5
A5
102
{ACAD_REACTORS
330
C
102
}
330
C
100
AcDbDictionary
281
     1
  3
CANNOSCALE
350
AA
  3
CMLEADERSTYLE
350
A7
  3
CTABLESTYLE
350
A6
  3
CVIEWDETAILSTYLE
350
A8
  3
CVIEWSECTIONSTYLE
350
A9
  0
ACDBDETAILVIEWSTYLE
  5
6B
102
{ACAD_REACTORS
330
6A
102
}
330
6A
100
AcDbModelDocViewStyle
 70
     0
  3
Imperial24
290
     1
300
Imperial24
 90
        0
100
AcDbDetailViewStyle
 70
     0
 71
     0
 90
        3
 71
     1
340
55
 62
   256
 40
0.24
340
0
 62
   256
 40
0.24
300

 40
0.36
280
     3
 71
     2
340
5D
 90
       25
 62
   256
 71
     3
340
55
 62
   256
 40
0.24
 90
        1
 40
0.75
 90
        1
300
%<\AcVar ViewType \f "%tc1">% %<\AcVar ViewDetailId>%\PSCALE %<\AcVar ViewScale \f "%sn">%
 71
     4
340
5D
 90
       25
 62
   256
340
5D
 90
       25
 62
   256
280
     0
  0
LAYOUT
  5
6F
102
{ACAD_REACTORS
330
62
102
}
330
62
100
AcDbPlotSettings
  1

  2

  4

  6

 40
0.0
 41
0.0
 42
0.0
 43
0.0
 44
0.0
 45
0.0
 46
0.0
 47
0.0
 48
0.0
 49
0.0
140
0.0
141
0.0
142
1.0
143
1.0
 70
   688
 72
     0
 73
     0
 74
     5
  7

 75
    16
147
1.0
 76
     0
 77
     2
 78
   300
148
0.0
149
0.0
100
AcDbLayout
  1
Layout1
 70
     1
 71
     1
 10
0.0
 20
0.0
 11
12.0
 21
9.0
 12
0.0
 22
0.0
 32
0.0
 14
0.0
 24
0.0
 34
0.0
 15
0.0
 25
0.0
 35
0.0
146
0.0
 13
0.0
 23
0.0
 33
0.0
 16
1.0
 26
0.0
 36
0.0
 17
0.0
 27
1.0
 37
0.0
 76
     0
330
6C
  0
LAYOUT
  5
77
102
{ACAD_REACTORS
330
62
102
}
330
62
100
AcDbPlotSettings
  1

  2

  4

  6

 40
0.0
 41
0.0
 42
0.0
 43
0.0
 44
0.0
 45
0.0
 46
0.0
 47
0.0
 48
0.0
 49
0.0
140
0.0
141
0.0
142
1.0
143
1.0
 70
   688
 72
     0
 73
     0
 74
     5
  7

 75
    16
147
1.0
 76
     0
 77
     2
 78
   300
148
0.0
149
0.0
100
AcDbLayout
  1
Layout2
 70
     1
 71
     2
 10
0.0
 20
0.0
 11
12.0
 21
9.0
 12
0.0
 22
0.0
 32
0.0
 14
0.0
 24
0.0
 34
0.0
 15
0.0
 25
0.0
 35
0.0
146
0.0
 13
0.0
 23
0.0
 33
0.0
 16
1.0
 26
0.0
 36
0.0
 17
0.0
 27
1.0
 37
0.0
 76
     0
330
74
  0
LAYOUT
  5
73
102
{ACAD_REACTORS
330
62
102
}
330
62
100
AcDbPlotSettings
  1

  2

  4

  6

 40
0.0
 41
0.0
 42
0.0
 43
0.0
 44
0.0
 45
0.0
 46
0.0
 47
0.0
 48
0.0
 49
0.0
140
0.0
141
0.0
142
1.0
143
1.0
 70
  1712
 72
     0
 73
     0
 74
     0
  7

 75
     0
147
1.0
 76
     0
 77
     2
 78
   300
148
0.0
149
0.0
100
AcDbLayout
  1
Model
 70
     1
 71
     0
 10
0.0
 20
0.0
 11
12.0
 21
9.0
 12
0.0
 22
0.0
 32
0.0
 14
0.0
 24
0.0
 34
0.0
 15
0.0
 25
0.0
 35
0.0
146
0.0
 13
0.0
 23
0.0
 33
0.0
 16
1.0
 26
0.0
 36
0.0
 17
0.0
 27
1.0
 37
0.0
 76
     0
330
70
  0
MATERIAL
  5
19
102
{ACAD_XDICTIONARY
360
1A
102
}
102
{ACAD_REACTORS
330
10
102
}
330
10
100
AcDbMaterial
  1
ByBlock
 72
     0
 43
0.0208333333333333
 43
0.0
 43
0.0
 43
0.0
 43
0.0
 43
0.0208333333333333
 43
0.0
 43
0.0
 43
0.0
 43
0.0
 43
1.0
 43
0.0
 43
0.0
 43
0.0
 43
0.0
 43
1.0
 77
     0
 47
0.0208333333333333
 47
0.0
 47
0.0
 47
0.0
 47
0.0
 47
0.0208333333333333
 47
0.0
 47
0.0
 47
0.0
 47
0.0
 47
1.0
 47
0.0
 47
0.0
 47
0.0
 47
0.0
 47
1.0
171
     0
 49
0.0208333333333333
 49
0.0
 49
0.0
 49
0.0
 49
0.0
 49
0.0208333333333333
 49
0.0
 49
0.0
 49
0.0
 49
0.0
 49
1.0
 49
0.0
 49
0.0
 49
0.0
 49
0.0
 49
1.0
175
     0
142
0.0208333333333333
142
0.0
142
0.0
142
0.0
142
0.0
142
0.0208333333333333
142
0.0
142
0.0
142
0.0
142
0.0
142
1.0
142
0.0
142
0.0
142
0.0
142
0.0
142
1.0
179
     0
144
0.0208333333333333
144
0.0
144
0.0
144
0.0
144
0.0
144
0.0208333333333333
144
0.0
144
0.0
144
0.0
144
0.0
144
1.0
144
0.0
144
0.0
144
0.0
144
0.0
144
1.0
147
0.0208333333333333
147
0.0
147
0.0
147
0.0
147
0.0
147
0.0208333333333333
147
0.0
147
0.0
147
0.0
147
0.0
147
1.0
147
0.0
147
0.0
147
0.0
147
0.0
147
1.0
  0
MATERIAL
  5
11
102
{ACAD_XDICTIONARY
360
12
102
}
102
{ACAD_REACTORS
330
10
102
}
330
10
100
AcDbMaterial
  1
ByLayer
 72
     0
 43
0.0208333333333333
 43
0.0
 43
0.0
 43
0.0
 43
0.0
 43
0.0208333333333333
 43
0.0
 43
0.0
 43
0.0
 43
0.0
 43
1.0
 43
0.0
 43
0.0
 43
0.0
 43
0.0
 43
1.0
 77
     0
 47
0.0208333333333333
 47
0.0
 47
0.0
 47
0.0
 47
0.0
 47
0.0208333333333333
 47
0.0
 47
0.0
 47
0.0
 47
0.0
 47
1.0
 47
0.0
 47
0.0
 47
0.0
 47
0.0
 47
1.0
171
     0
 49
0.0208333333333333
 49
0.0
 49
0.0
 49
0.0
 49
0.0
 49
0.0208333333333333
 49
0.0
 49
0.0
 49
0.0
 49
0.0
 49
1.0
 49
0.0
 49
0.0
 49
0.0
 49
0.0
 49
1.0
175
     0
142
0.0208333333333333
142
0.0
142
0.0
142
0.0
142
0.0
142
0.0208333333333333
142
0.0
142
0.0
142
0.0
142
0.0
142
1.0
142
0.0
142
0.0
142
0.0
142
0.0
142
1.0
179
     0
144
0.0208333333333333
144
0.0
144
0.0
144
0.0
144
0.0
144
0.0208333333333333
144
0.0
144
0.0
144
0.0
144
0.0
144
1.0
144
0.0
144
0.0
144
0.0
144
0.0
144
1.0
147
0.0208333333333333
147
0.0
147
0.0
147
0.0
147
0.0
147
0.0208333333333333
147
0.0
147
0.0
147
0.0
147
0.0
147
1.0
147
0.0
147
0.0
147
0.0
147
0.0
147
1.0
  0
MATERIAL
  5
21
102
{ACAD_XDICTIONARY
360
22
102
}
102
{ACAD_REACTORS
330
10
102
}
330
10
100
AcDbMaterial
  1
Global
 72
     0
 43
0.0208333333333333
 43
0.0
 43
0.0
 43
0.0
 43
0.0
 43
0.0208333333333333
 43
0.0
 43
0.0
 43
0.0
 43
0.0
 43
1.0
 43
0.0
 43
0.0
 43
0.0
 43
0.0
 43
1.0
 77
     0
 47
0.0208333333333333
 47
0.0
 47
0.0
 47
0.0
 47
0.0
 47
0.0208333333333333
 47
0.0
 47
0.0
 47
0.0
 47
0.0
 47
1.0
 47
0.0
 47
0.0
 47
0.0
 47
0.0
 47
1.0
171
     0
 49
0.0208333333333333
 49
0.0
 49
0.0
 49
0.0
 49
0.0
 49
0.0208333333333333
 49
0.0
 49
0.0
 49
0.0
 49
0.0
 49
1.0
 49
0.0
 49
0.0
 49
0.0
 49
0.0
 49
1.0
175
     0
142
0.0208333333333333
142
0.0
142
0.0
142
0.0
142
0.0
142
0.0208333333333333
142
0.0
142
0.0
142
0.0
142
0.0
142
1.0
142
0.0
142
0.0
142
0.0
142
0.0
142
1.0
179
     0
144
0.0208333333333333
144
0.0
144
0.0
144
0.0
144
0.0
144
0.0208333333333333
144
0.0
144
0.0
144
0.0
144
0.0
144
1.0
144
0.0
144
0.0
144
0.0
144
0.0
144
1.0
147
0.0208333333333333
147
0.0
147
0.0
147
0.0
147
0.0
147
0.0208333333333333
147
0.0
147
0.0
147
0.0
147
0.0
147
1.0
147
0.0
147
0.0
147
0.0
147
0.0
147
1.0
  0
MLEADERSTYLE
  5
67
102
{ACAD_REACTORS
330
66
102
}
330
66
100
AcDbMLeaderStyle
179
     2
170
     2
171
     1
172
     0
 90
        2
 40
0.0
 41
0.0
173
     1
 91
-1056964608
340
5B
 92
       -2
290
     1
 42
0.09
291
     1
 43
0.36
  3
Standard
 44
0.18
300

342
55
174
     1
178
     6
175
     1
176
     0
 93
-1056964608
 45
0.18
292
     0
297
     0
 46
0.18
 94
-1056964608
 47
1.0
 49
1.0
140
1.0
293
     1
141
0.0
294
     1
177
     0
142
1.0
295
     1
296
     0
143
0.125
271
     0
272
     9
273
     9
298
     1
  0
MLINESTYLE
  5
60
102
{ACAD_REACTORS
330
5F
102
}
330
5F
100
AcDbMlineStyle
  2
STANDARD
 70
     0
  3

 62
   256
 51
90.0
 52
90.0
 71
     2
 49
0.5
 62
   256
  6
BYLAYER
 49
-0.5
 62
   256
  6
BYLAYER
  0
ACDBPLACEHOLDER
  5
F
102
{ACAD_REACTORS
330
E
102
}
330
E
  0
SCALE
  5
43
102
{ACAD_REACTORS
330
42
102
}
330
42
100
AcDbScale
 70
     0
300
1:1
140
1.0
141
1.0
290
     1
  0
SCALE
  5
44
102
{ACAD_REACTORS
330
42
102
}
330
42
100
AcDbScale
 70
     0
300
1/128" = 1'-0"
140
0.0078125
141
12.0
290
     0
  0
SCALE
  5
45
102
{ACAD_REACTORS
330
42
102
}
330
42
100
AcDbScale
 70
     0
300
1/64" = 1'-0"
140
0.015625
141
12.0
290
     0
  0
SCALE
  5
46
102
{ACAD_REACTORS
330
42
102
}
330
42
100
AcDbScale
 70
     0
300
1/32" = 1'-0"
140
0.03125
141
12.0
290
     0
  0
SCALE
  5
47
102
{ACAD_REACTORS
330
42
102
}
330
42
100
AcDbScale
 70
     0
300
1/16" = 1'-0"
140
0.0625
141
12.0
290
     0
  0
SCALE
  5
48
102
{ACAD_REACTORS
330
42
102
}
330
42
100
AcDbScale
 70
     0
300
3/32" = 1'-0"
140
0.09375
141
12.0
290
     0
  0
SCALE
  5
49
102
{ACAD_REACTORS
330
42
102
}
330
42
100
AcDbScale
 70
     0
300
1/8" = 1'-0"
140
0.125
141
12.0
290
     0
  0
SCALE
  5
4A
102
{ACAD_REACTORS
330
42
102
}
330
42
100
AcDbScale
 70
     0
300
3/16" = 1'-0"
140
0.1875
141
12.0
290
     0
  0
SCALE
  5
4B
102
{ACAD_REACTORS
330
42
102
}
330
42
100
AcDbScale
 70
     0
300
1/4" = 1'-0"
140
0.25
141
12.0
290
     0
  0
SCALE
  5
4C
102
{ACAD_REACTORS
330
42
102
}
330
42
100
AcDbScale
 70
     0
300
3/8" = 1'-0"
140
0.375
141
12.0
290
     0
  0
SCALE
  5
4D
102
{ACAD_REACTORS
330
42
102
}
330
42
100
AcDbScale
 70
     0
300
1/2" = 1'-0"
140
0.5
141
12.0
290
     0
  0
SCALE
  5
4E
102
{ACAD_REACTORS
330
42
102
}
330
42
100
AcDbScale
 70
     0
300
3/4" = 1'-0"
140
0.75
141
12.0
290
     0
  0
SCALE
  5
4F
102
{ACAD_REACTORS
330
42
102
}
330
42
100
AcDbScale
 70
     0
300
1" = 1'-0"
140
1.0
141
12.0
290
     0
  0
SCALE
  5
50
102
{ACAD_REACTORS
330
42
102
}
330
42
100
AcDbScale
 70
     0
300
1-1/2" = 1'-0"
140
1.5
141
12.0
290
     0
  0
SCALE
  5
51
102
{ACAD_REACTORS
330
42
102
}
330
42
100
AcDbScale
 70
     0
300
3" = 1'-0"
140
3.0
141
12.0
290
     0
  0
SCALE
  5
52
102
{ACAD_REACTORS
330
42
102
}
330
42
100
AcDbScale
 70
     0
300
6" = 1'-0"
140
6.0
141
12.0
290
     0
  0
SCALE
  5
53
102
{ACAD_REACTORS
330
42
102
}
330
42
100
AcDbScale
 70
     0
300
1'-0" = 1'-0"
140
12.0
141
12.0
290
     0
  0
ACDBSECTIONVIEWSTYLE
  5
69
102
{ACAD_REACTORS
330
68
102
}
330
68
100
AcDbModelDocViewStyle
 70
     0
  3
Imperial24
290
     1
300
Imperial24
 90
        0
100
AcDbSectionViewStyle
 70
     0
 71
     0
 90
       78
 71
     1
340
55
 62
   256
 40
0.24
340
0
340
0
 62
   256
 40
0.24
300
I, O, Q, S, X, Z
 40
0.48
 90
        3
 40
0.18
 90
        1
 71
     2
340
5D
 90
       25
 62
   256
340
5D
 90
       50
 62
   256
 40
0.24
 40
0.0
 40
0.24
 71
     3
340
55
 62
   256
 40
0.24
 90
        1
 40
0.75
 90
        1
300
%<\AcVar ViewType \f "%tc1">% %<\AcVar ViewSectionStartId>%-%<\AcVar ViewSectionEndId>%\PSCALE %<\AcVar ViewScale \f "%sn">%
 71
     4
 62
   256
 62
   257
300
ANSI31
 40
1.0
 90
        0
290
     0
290
     0
 90
        6
 40
0.0
 40
1.570796326794896
 40
0.2617993877991494
 40
1.308996938995747
 40
-0.2617993877991494
 40
1.832595714594046
  0
TABLESTYLE
  5
65
102
{ACAD_XDICTIONARY
360
AB
102
}
102
{ACAD_REACTORS
330
64
102
}
330
64
100
AcDbTableStyle
280
     0
  3
Standard
 70
     0
 71
     0
 40
0.06
 41
0.06
280
     0
281
     0
  7
Standard
140
0.18
170
     2
 62
     0
 63
     7
283
     0
 90
      512
 91
        0
  1

274
    -2
284
     1
 64
     0
275
    -2
285
     1
 65
     0
276
    -2
286
     1
 66
     0
277
    -2
287
     1
 67
     0
278
    -2
288
     1
 68
     0
279
    -2
289
     1
 69
     0
  7
Standard
140
0.25
170
     5
 62
     0
 63
     7
283
     0
 90
      512
 91
        0
  1

274
    -2
284
     1
 64
     0
275
    -2
285
     1
 65
     0
276
    -2
286
     1
 66
     0
277
    -2
287
     1
 67
     0
278
    -2
288
     1
 68
     0
279
    -2
289
     1
 69
     0
  7
Standard
140
0.18
170
     5
 62
     0
 63
     7
283
     0
 90
      512
 91
        0
  1

274
    -2
284
     1
 64
     0
275
    -2
285
     1
 65
     0
276
    -2
286
     1
 66
     0
277
    -2
287
     1
 67
     0
278
    -2
288
     1
 68
     0
279
    -2
289
     1
 69
     0
  0
VISUALSTYLE
  5
2F
102
{ACAD_REACTORS
330
29
102
}
330
29
100
AcDbVisualStyle
  2
2dWireframe
 70
     4
177
     3
291
     0
 70
    58
 90
        0
176
     1
 90
        2
176
     1
 90
        0
176
     1
 90
        0
176
     1
 40
0.6
176
     1
 40
30.0
176
     1
 62
     7
420
 16777215
176
     1
 90
        1
176
     1
 90
        4
176
     1
 62
     7
176
     1
 62
   257
176
     1
 90
        1
176
     1
 90
        1
176
     1
 40
1.0
176
     1
 90
        0
176
     1
 62
   257
176
     1
 40
1.0
176
     1
 90
        1
176
     1
 90
        6
176
     1
 90
        2
176
     1
 62
     7
176
     1
 90
        5
176
     1
 90
        0
176
     1
 90
        0
176
     1
290
     0
176
     1
 90
        1
176
     1
 40
0.0
176
     1
 90
        0
176
     1
290
     1
176
     1
290
     1
176
     1
290
     0
176
     1
290
     0
176
     1
290
     0
176
     1
290
     0
176
     1
290
     0
176
     1
290
     0
176
     1
290
     0
176
     1
 90
       50
176
     1
 40
0.0
176
     1
 40
1.0
176
     1
 90
        0
176
     1
 62
    18
420
        0
176
     1
 90
       50
176
     1
 90
        3
176
     1
 62
     5
420
      255
176
     1
290
     0
176
     1
 90
       50
176
     1
 90
       50
176
     1
 90
       50
176
     1
290
     0
176
     1
 90
       50
176
     1
 62
   256
176
     0
 40
1.0
176
     0
 90
        2
176
     1
  1
strokes_ogs.tif
176
     1
290
     0
176
     1
 40
1.0
176
     1
 40
1.0
176
     1
  0
VISUALSTYLE
  5
2E
102
{ACAD_REACTORS
330
29
102
}
330
29
100
AcDbVisualStyle
  2
Basic
 70
     7
177
     3
291
     1
 70
    58
 90
        1
176
     1
 90
        0
176
     1
 90
        1
176
     1
 90
        0
176
     1
 40
0.6
176
     1
 40
30.0
176
     1
 62
     7
420
 16777215
176
     1
 90
        0
176
     1
 90
        4
176
     1
 62
     7
176
     1
 62
   257
176
     1
 90
        1
176
     1
 90
        1
176
     1
 40
1.0
176
     1
 90
        8
176
     1
 62
     7
176
     1
 40
1.0
176
     1
 90
        1
176
     1
 90
        6
176
     1
 90
        2
176
     1
 62
     7
176
     1
 90
        5
176
     1
 90
        0
176
     1
 90
        0
176
     1
290
     0
176
     1
 90
        1
176
     1
 40
0.0
176
     1
 90
        0
176
     1
290
     0
176
     1
290
     1
176
     1
290
     1
176
     1
290
     0
176
     1
290
     0
176
     1
290
     0
176
     1
290
     0
176
     1
290
     0
176
     1
290
     0
176
     1
 90
       50
176
     1
 40
0.0
176
     1
 40
1.0
176
     1
 90
        0
176
     1
 62
    18
420
        0
176
     1
 90
       50
176
     1
 90
        3
176
     1
 62
     5
420
      255
176
     1
290
     0
176
     1
 90
       50
176
     1
 90
       50
176
     1
 90
       50
176
     1
290
     0
176
     1
 90
       50
176
     1
 62
   256
176
     0
 40
1.0
176
     0
 90
        2
176
     1
  1
strokes_ogs.tif
176
     1
290
     0
176
     1
 40
1.0
176
     1
 40
1.0
176
     1
  0
VISUALSTYLE
  5
35
102
{ACAD_REACTORS
330
29
102
}
330
29
100
AcDbVisualStyle
  2
Brighten
 70
    12
177
     3
291
     1
 70
    58
 90
        2
176
     1
 90
        2
176
     1
 90
        0
176
     1
 90
        0
176
     1
 40
0.6
176
     1
 40
30.0
176
     1
 62
     7
420
 16777215
176
     1
 90
        1
176
     1
 90
        4
176
     1
 62
     7
176
     1
 62
   257
176
     1
 90
        1
176
     1
 90
        1
176
     1
 40
1.0
176
     1
 90
        8
176
     1
 62
     7
176
     1
 40
1.0
176
     1
 90
        1
176
     1
 90
        6
176
     1
 90
        2
176
     1
 62
     7
176
     1
 90
        5
176
     1
 90
        0
176
     1
 90
        0
176
     1
290
     0
176
     1
 90
        1
176
     1
 40
50.0
176
     1
 90
        0
176
     1
290
     0
176
     1
290
     1
176
     1
290
     1
176
     1
290
     0
176
     1
290
     0
176
     1
290
     0
176
     1
290
     0
176
     1
290
     0
176
     1
290
     0
176
     1
 90
       50
176
     1
 40
0.0
176
     1
 40
1.0
176
     1
 90
        0
176
     1
 62
    18
420
        0
176
     1
 90
       50
176
     1
 90
        3
176
     1
 62
     5
420
      255
176
     1
290
     0
176
     1
 90
       50
176
     1
 90
       50
176
     1
 90
       50
176
     1
290
     0
176
     1
 90
       50
176
     1
 62
   256
176
     0
 40
1.0
176
     0
 90
        2
176
     1
  1
strokes_ogs.tif
176
     1
290
     0
176
     1
 40
1.0
176
     1
 40
1.0
176
     1
  0
VISUALSTYLE
  5
39
102
{ACAD_REACTORS
330
29
102
}
330
29
100
AcDbVisualStyle
  2
ColorChange
 70
    16
177
     3
291
     1
 70
    58
 90
        2
176
     1
 90
        2
176
     1
 90
        3
176
     1
 90
        0
176
     1
 40
0.6
176
     1
 40
30.0
176
     1
 62
     8
420
  8421504
176
     1
 90
        1
176
     1
 90
        4
176
     1
 62
     7
176
     1
 62
   257
176
     1
 90
        1
176
     1
 90
        1
176
     1
 40
1.0
176
     1
 90
        8
176
     1
 62
     8
420
  8421504
176
     1
 40
1.0
176
     1
 90
        1
176
     1
 90
        6
176
     1
 90
        2
176
     1
 62
     7
176
     1
 90
        5
176
     1
 90
        0
176
     1
 90
        0
176
     1
290
     0
176
     1
 90
        1
176
     1
 40
0.0
176
     1
 90
        0
176
     1
290
     0
176
     1
290
     1
176
     1
290
     1
176
     1
290
     0
176
     1
290
     0
176
     1
290
     0
176
     1
290
     0
176
     1
290
     0
176
     1
290
     0
176
     1
 90
       50
176
     1
 40
0.0
176
     1
 40
1.0
176
     1
 90
        0
176
     1
 62
    18
420
        0
176
     1
 90
       50
176
     1
 90
        3
176
     1
 62
     5
420
      255
176
     1
290
     0
176
     1
 90
       50
176
     1
 90
       50
176
     1
 90
       50
176
     1
290
     0
176
     1
 90
       50
176
     1
 62
   256
176
     0
 40
1.0
176
     0
 90
        2
176
     1
  1
strokes_ogs.tif
176
     1
290
     0
176
     1
 40
1.0
176
     1
 40
1.0
176
     1
  0
VISUALSTYLE
  5
32
102
{ACAD_REACTORS
330
29
102
}
330
29
100
AcDbVisualStyle
  2
Conceptual
 70
     9
177
     3
291
     0
 70
    58
 90
        3
176
     1
 90
        2
176
     1
 90
        0
176
     1
 90
        0
176
     1
 40
0.6
176
     1
 40
30.0
176
     1
 62
     7
420
 16777215
176
     1
 90
        2
176
     1
 90
        2
176
     1
 62
     7
176
     1
 62
   257
176
     1
 90
        1
176
     1
 90
        1
176
     1
 40
179.0
176
     1
 90
        8
176
     1
 62
     7
176
     1
 40
1.0
176
     1
 90
        1
176
     1
 90
        6
176
     1
 90
        2
176
     1
 62
     7
176
     1
 90
        3
176
     1
 90
        0
176
     1
 90
        0
176
     1
290
     0
176
     1
 90
        1
176
     1
 40
0.0
176
     1
 90
        0
176
     1
290
     0
176
     1
290
     1
176
     1
290
     1
176
     1
290
     0
176
     1
290
     0
176
     1
290
     0
176
     1
290
     0
176
     1
290
     0
176
     1
290
     0
176
     1
 90
       50
176
     1
 40
0.0
176
     1
 40
1.0
176
     1
 90
        0
176
     1
 62
    18
420
        0
176
     1
 90
       50
176
     1
 90
        3
176
     1
 62
     5
420
      255
176
     1
290
     0
176
     1
 90
       50
176
     1
 90
       50
176
     1
 90
       50
176
     1
290
     0
176
     1
 90
       50
176
     1
 62
   256
176
     0
 40
1.0
176
     0
 90
        2
176
     1
  1
strokes_ogs.tif
176
     1
290
     0
176
     1
 40
1.0
176
     1
 40
1.0
176
     1
  0
VISUALSTYLE
  5
34
102
{ACAD_REACTORS
330
29
102
}
330
29
100
AcDbVisualStyle
  2
Dim
 70
    11
177
     3
291
     1
 70
    58
 90
        2
176
     1
 90
        2
176
     1
 90
        0
176
     1
 90
        0
176
     1
 40
0.6
176
     1
 40
30.0
176
     1
 62
     7
420
 16777215
176
     1
 90
        1
176
     1
 90
        4
176
     1
 62
     7
176
     1
 62
   257
176
     1
 90
        1
176
     1
 90
        1
176
     1
 40
1.0
176
     1
 90
        8
176
     1
 62
     7
176
     1
 40
1.0
176
     1
 90
        1
176
     1
 90
        6
176
     1
 90
        2
176
     1
 62
     7
176
     1
 90
        5
176
     1
 90
        0
176
     1
 90
        0
176
     1
290
     0
176
     1
 90
        1
176
     1
 40
-50.0
176
     1
 90
        0
176
     1
290
     0
176
     1
290
     1
176
     1
290
     1
176
     1
290
     0
176
     1
290
     0
176
     1
290
     0
176
     1
290
     0
176
     1
290
     0
176
     1
290
     0
176
     1
 90
       50
176
     1
 40
0.0
176
     1
 40
1.0
176
     1
 90
        0
176
     1
 62
    18
420
        0
176
     1
 90
       50
176
     1
 90
        3
176
     1
 62
     5
420
      255
176
     1
290
     0
176
     1
 90
       50
176
     1
 90
       50
176
     1
 90
       50
176
     1
290
     0
176
     1
 90
       50
176
     1
 62
   256
176
     0
 40
1.0
176
     0
 90
        2
176
     1
  1
strokes_ogs.tif
176
     1
290
     0
176
     1
 40
1.0
176
     1
 40
1.0
176
     1
  0
VISUALSTYLE
  5
41
102
{ACAD_REACTORS
330
29
102
}
330
29
100
AcDbVisualStyle
  2
EdgeColorOff
 70
    22
177
     3
291
     1
 70
    58
 90
        2
176
     0
 90
        2
176
     0
 90
        0
176
     0
 90
        0
176
     0
 40
0.6
176
     0
 40
30.0
176
     0
 62
     7
420
 16777215
176
     0
 90
        1
176
     0
 90
        4
176
     0
 62
     7
176
     0
 62
   257
176
     0
 90
        1
176
     0
 90
        1
176
     0
 40
1.0
176
     0
 90
        8
176
     2
 62
     7
176
     0
 40
1.0
176
     0
 90
        1
176
     0
 90
        6
176
     0
 90
        2
176
     0
 62
     7
176
     0
 90
        5
176
     0
 90
        0
176
     0
 90
        0
176
     0
290
     0
176
     0
 90
        1
176
     0
 40
0.0
176
     0
 90
        0
176
     0
290
     0
176
     0
290
     1
176
     0
290
     1
176
     0
290
     0
176
     0
290
     0
176
     0
290
     0
176
     0
290
     0
176
     0
290
     0
176
     0
290
     0
176
     0
 90
       50
176
     0
 40
0.0
176
     0
 40
1.0
176
     0
 90
        0
176
     0
 62
    18
420
        0
176
     0
 90
       50
176
     0
 90
        3
176
     0
 62
     5
420
      255
176
     0
290
     0
176
     0
 90
       50
176
     0
 90
       50
176
     0
 90
       50
176
     0
290
     0
176
     0
 90
       50
176
     0
 62
   256
176
     0
 40
1.0
176
     0
 90
        2
176
     0
  1
strokes_ogs.tif
176
     0
290
     0
176
     0
 40
1.0
176
     0
 40
1.0
176
     0
  0
VISUALSTYLE
  5
38
102
{ACAD_REACTORS
330
29
102
}
330
29
100
AcDbVisualStyle
  2
Facepattern
 70
    15
177
     3
291
     1
 70
    58
 90
        2
176
     1
 90
        2
176
     1
 90
        0
176
     1
 90
        0
176
     1
 40
0.6
176
     1
 40
30.0
176
     1
 62
     7
420
 16777215
176
     1
 90
        1
176
     1
 90
        4
176
     1
 62
     7
176
     1
 62
   257
176
     1
 90
        1
176
     1
 90
        1
176
     1
 40
1.0
176
     1
 90
        8
176
     1
 62
     7
176
     1
 40
1.0
176
     1
 90
        1
176
     1
 90
        6
176
     1
 90
        2
176
     1
 62
     7
176
     1
 90
        5
176
     1
 90
        0
176
     1
 90
        0
176
     1
290
     0
176
     1
 90
        1
176
     1
 40
0.0
176
     1
 90
        0
176
     1
290
     0
176
     1
290
     1
176
     1
290
     1
176
     1
290
     0
176
     1
290
     0
176
     1
290
     0
176
     1
290
     0
176
     1
290
     0
176
     1
290
     0
176
     1
 90
       50
176
     1
 40
0.0
176
     1
 40
1.0
176
     1
 90
        0
176
     1
 62
    18
420
        0
176
     1
 90
       50
176
     1
 90
        3
176
     1
 62
     5
420
      255
176
     1
290
     0
176
     1
 90
       50
176
     1
 90
       50
176
     1
 90
       50
176
     1
290
     0
176
     1
 90
       50
176
     1
 62
   256
176
     0
 40
1.0
176
     0
 90
        2
176
     1
  1
strokes_ogs.tif
176
     1
290
     0
176
     1
 40
1.0
176
     1
 40
1.0
176
     1
  0
VISUALSTYLE
  5
2A
102
{ACAD_REACTORS
330
29
102
}
330
29
100
AcDbVisualStyle
  2
Flat
 70
     0
177
     3
291
     1
 70
    58
 90
        2
176
     1
 90
        1
176
     1
 90
        1
176
     1
 90
        2
176
     1
 40
0.6
176
     1
 40
30.0
176
     1
 62
     7
420
 16777215
176
     1
 90
        0
176
     1
 90
        0
176
     1
 62
     7
176
     1
 62
   257
176
     1
 90
        1
176
     1
 90
        1
176
     1
 40
1.0
176
     1
 90
        8
176
     1
 62
     7
176
     1
 40
1.0
176
     1
 90
        1
176
     1
 90
        6
176
     1
 90
        2
176
     1
 62
     7
176
     1
 90
        5
176
     1
 90
        0
176
     1
 90
        0
176
     1
290
     0
176
     1
 90
       13
176
     1
 40
0.0
176
     1
 90
        0
176
     1
290
     0
176
     1
290
     1
176
     1
290
     1
176
     1
290
     0
176
     1
290
     0
176
     1
290
     0
176
     1
290
     0
176
     1
290
     0
176
     1
290
     0
176
     1
 90
       50
176
     1
 40
0.0
176
     1
 40
1.0
176
     1
 90
        0
176
     1
 62
    18
420
        0
176
     1
 90
       50
176
     1
 90
        3
176
     1
 62
     5
420
      255
176
     1
290
     0
176
     1
 90
       50
176
     1
 90
       50
176
     1
 90
       50
176
     1
290
     0
176
     1
 90
       50
176
     1
 62
   256
176
     0
 40
1.0
176
     0
 90
        2
176
     1
  1
strokes_ogs.tif
176
     1
290
     0
176
     1
 40
1.0
176
     1
 40
1.0
176
     1
  0
VISUALSTYLE
  5
2B
102
{ACAD_REACTORS
330
29
102
}
330
29
100
AcDbVisualStyle
  2
FlatWithEdges
 70
     1
177
     3
291
     1
 70
    58
 90
        2
176
     1
 90
        1
176
     1
 90
        1
176
     1
 90
        2
176
     1
 40
0.6
176
     1
 40
30.0
176
     1
 62
     7
420
 16777215
176
     1
 90
        1
176
     1
 90
        0
176
     1
 62
     7
176
     1
 62
   257
176
     1
 90
        1
176
     1
 90
        1
176
     1
 40
1.0
176
     1
 90
        0
176
     1
 62
   257
176
     1
 40
1.0
176
     1
 90
        1
176
     1
 90
        6
176
     1
 90
        2
176
     1
 62
     7
176
     1
 90
        5
176
     1
 90
        0
176
     1
 90
        0
176
     1
290
     0
176
     1
 90
       13
176
     1
 40
0.0
176
     1
 90
        0
176
     1
290
     0
176
     1
290
     1
176
     1
290
     1
176
     1
290
     0
176
     1
290
     0
176
     1
290
     0
176
     1
290
     0
176
     1
290
     0
176
     1
290
     0
176
     1
 90
       50
176
     1
 40
0.0
176
     1
 40
1.0
176
     1
 90
        0
176
     1
 62
    18
420
        0
176
     1
 90
       50
176
     1
 90
        3
176
     1
 62
     5
420
      255
176
     1
290
     0
176
     1
 90
       50
176
     1
 90
       50
176
     1
 90
       50
176
     1
290
     0
176
     1
 90
       50
176
     1
 62
   256
176
     0
 40
1.0
176
     0
 90
        2
176
     1
  1
strokes_ogs.tif
176
     1
290
     0
176
     1
 40
1.0
176
     1
 40
1.0
176
     1
  0
VISUALSTYLE
  5
2C
102
{ACAD_REACTORS
330
29
102
}
330
29
100
AcDbVisualStyle
  2
Gouraud
 70
     2
177
     3
291
     1
 70
    58
 90
        2
176
     1
 90
        2
176
     1
 90
        1
176
     1
 90
        2
176
     1
 40
0.6
176
     1
 40
30.0
176
     1
 62
     7
420
 16777215
176
     1
 90
        0
176
     1
 90
        0
176
     1
 62
     7
176
     1
 62
   257
176
     1
 90
        1
176
     1
 90
        1
176
     1
 40
1.0
176
     1
 90
        0
176
     1
 62
     7
176
     1
 40
1.0
176
     1
 90
        1
176
     1
 90
        6
176
     1
 90
        2
176
     1
 62
     7
176
     1
 90
        5
176
     1
 90
        0
176
     1
 90
        0
176
     1
290
     0
176
     1
 90
       13
176
     1
 40
0.0
176
     1
 90
        0
176
     1
290
     0
176
     1
290
     1
176
     1
290
     1
176
     1
290
     0
176
     1
290
     0
176
     1
290
     0
176
     1
290
     0
176
     1
290
     0
176
     1
290
     0
176
     1
 90
       50
176
     1
 40
0.0
176
     1
 40
1.0
176
     1
 90
        0
176
     1
 62
    18
420
        0
176
     1
 90
       50
176
     1
 90
        3
176
     1
 62
     5
420
      255
176
     1
290
     0
176
     1
 90
       50
176
     1
 90
       50
176
     1
 90
       50
176
     1
290
     0
176
     1
 90
       50
176
     1
 62
   256
176
     0
 40
1.0
176
     0
 90
        2
176
     1
  1
strokes_ogs.tif
176
     1
290
     0
176
     1
 40
1.0
176
     1
 40
1.0
176
     1
  0
VISUALSTYLE
  5
2D
102
{ACAD_REACTORS
330
29
102
}
330
29
100
AcDbVisualStyle
  2
GouraudWithEdges
 70
     3
177
     3
291
     1
 70
    58
 90
        2
176
     1
 90
        2
176
     1
 90
        1
176
     1
 90
        2
176
     1
 40
0.6
176
     1
 40
30.0
176
     1
 62
     7
420
 16777215
176
     1
 90
        1
176
     1
 90
        0
176
     1
 62
     7
176
     1
 62
   257
176
     1
 90
        1
176
     1
 90
        1
176
     1
 40
1.0
176
     1
 90
        0
176
     1
 62
   257
176
     1
 40
1.0
176
     1
 90
        1
176
     1
 90
        6
176
     1
 90
        2
176
     1
 62
     7
176
     1
 90
        5
176
     1
 90
        0
176
     1
 90
        0
176
     1
290
     0
176
     1
 90
       13
176
     1
 40
0.0
176
     1
 90
        0
176
     1
290
     0
176
     1
290
     1
176
     1
290
     1
176
     1
290
     0
176
     1
290
     0
176
     1
290
     0
176
     1
290
     0
176
     1
290
     0
176
     1
290
     0
176
     1
 90
       50
176
     1
 40
0.0
176
     1
 40
1.0
176
     1
 90
        0
176
     1
 62
    18
420
        0
176
     1
 90
       50
176
     1
 90
        3
176
     1
 62
     5
420
      255
176
     1
290
     0
176
     1
 90
       50
176
     1
 90
       50
176
     1
 90
       50
176
     1
290
     0
176
     1
 90
       50
176
     1
 62
   256
176
     0
 40
1.0
176
     0
 90
        2
176
     1
  1
strokes_ogs.tif
176
     1
290
     0
176
     1
 40
1.0
176
     1
 40
1.0
176
     1
  0
VISUALSTYLE
  5
31
102
{ACAD_REACTORS
330
29
102
}
330
29
100
AcDbVisualStyle
  2
Hidden
 70
     6
177
     3
291
     0
 70
    58
 90
        1
176
     1
 90
        2
176
     1
 90
        2
176
     1
 90
        0
176
     1
 40
0.6
176
     1
 40
30.0
176
     1
 62
     7
420
 16777215
176
     1
 90
        2
176
     1
 90
        2
176
     1
 62
     7
176
     1
 62
   257
176
     1
 90
        2
176
     1
 90
        1
176
     1
 40
40.0
176
     1
 90
        0
176
     1
 62
   257
176
     1
 40
1.0
176
     1
 90
        1
176
     1
 90
        6
176
     1
 90
        2
176
     1
 62
     7
176
     1
 90
        3
176
     1
 90
        0
176
     1
 90
        0
176
     1
290
     0
176
     1
 90
        1
176
     1
 40
0.0
176
     1
 90
        0
176
     1
290
     0
176
     1
290
     1
176
     1
290
     1
176
     1
290
     0
176
     1
290
     0
176
     1
290
     0
176
     1
290
     0
176
     1
290
     0
176
     1
290
     0
176
     1
 90
       50
176
     1
 40
0.0
176
     1
 40
1.0
176
     1
 90
        0
176
     1
 62
    18
420
        0
176
     1
 90
       50
176
     1
 90
        3
176
     1
 62
     5
420
      255
176
     1
290
     0
176
     1
 90
       50
176
     1
 90
       50
176
     1
 90
       50
176
     1
290
     0
176
     1
 90
       50
176
     1
 62
   256
176
     0
 40
1.0
176
     0
 90
        2
176
     1
  1
strokes_ogs.tif
176
     1
290
     0
176
     1
 40
1.0
176
     1
 40
1.0
176
     1
  0
VISUALSTYLE
  5
3F
102
{ACAD_REACTORS
330
29
102
}
330
29
100
AcDbVisualStyle
  2
JitterOff
 70
    20
177
     3
291
     1
 70
    58
 90
        2
176
     0
 90
        2
176
     0
 90
        0
176
     0
 90
        0
176
     0
 40
0.6
176
     0
 40
30.0
176
     0
 62
     7
420
 16777215
176
     0
 90
        1
176
     0
 90
        4
176
     0
 62
     7
176
     0
 62
   257
176
     0
 90
        1
176
     0
 90
        1
176
     0
 40
1.0
176
     0
 90
       10
176
     2
 62
     7
176
     0
 40
1.0
176
     0
 90
        1
176
     0
 90
        6
176
     0
 90
        2
176
     0
 62
     7
176
     0
 90
        5
176
     0
 90
        0
176
     0
 90
        0
176
     0
290
     0
176
     0
 90
        1
176
     0
 40
0.0
176
     0
 90
        0
176
     0
290
     0
176
     0
290
     1
176
     0
290
     1
176
     0
290
     0
176
     0
290
     0
176
     0
290
     0
176
     0
290
     0
176
     0
290
     0
176
     0
290
     0
176
     0
 90
       50
176
     0
 40
0.0
176
     0
 40
1.0
176
     0
 90
        0
176
     0
 62
    18
420
        0
176
     0
 90
       50
176
     0
 90
        3
176
     0
 62
     5
420
      255
176
     0
290
     0
176
     0
 90
       50
176
     0
 90
       50
176
     0
 90
       50
176
     0
290
     0
176
     0
 90
       50
176
     0
 62
   256
176
     0
 40
1.0
176
     0
 90
        2
176
     0
  1
strokes_ogs.tif
176
     0
290
     0
176
     0
 40
1.0
176
     0
 40
1.0
176
     0
  0
VISUALSTYLE
  5
37
102
{ACAD_REACTORS
330
29
102
}
330
29
100
AcDbVisualStyle
  2
Linepattern
 70
    14
177
     3
291
     1
 70
    58
 90
        2
176
     1
 90
        2
176
     1
 90
        0
176
     1
 90
        0
176
     1
 40
0.6
176
     1
 40
30.0
176
     1
 62
     7
420
 16777215
176
     1
 90
        1
176
     1
 90
        4
176
     1
 62
     7
176
     1
 62
   257
176
     1
 90
        7
176
     1
 90
        7
176
     1
 40
1.0
176
     1
 90
        8
176
     1
 62
     7
176
     1
 40
1.0
176
     1
 90
        1
176
     1
 90
        6
176
     1
 90
        2
176
     1
 62
     7
176
     1
 90
        5
176
     1
 90
        0
176
     1
 90
        0
176
     1
290
     0
176
     1
 90
        1
176
     1
 40
0.0
176
     1
 90
        0
176
     1
290
     0
176
     1
290
     1
176
     1
290
     1
176
     1
290
     0
176
     1
290
     0
176
     1
290
     0
176
     1
290
     0
176
     1
290
     0
176
     1
290
     0
176
     1
 90
       50
176
     1
 40
0.0
176
     1
 40
1.0
176
     1
 90
        0
176
     1
 62
    18
420
        0
176
     1
 90
       50
176
     1
 90
        3
176
     1
 62
     5
420
      255
176
     1
290
     0
176
     1
 90
       50
176
     1
 90
       50
176
     1
 90
       50
176
     1
290
     0
176
     1
 90
       50
176
     1
 62
   256
176
     0
 40
1.0
176
     0
 90
        2
176
     1
  1
strokes_ogs.tif
176
     1
290
     0
176
     1
 40
1.0
176
     1
 40
1.0
176
     1
  0
VISUALSTYLE
  5
40
102
{ACAD_REACTORS
330
29
102
}
330
29
100
AcDbVisualStyle
  2
OverhangOff
 70
    21
177
     3
291
     1
 70
    58
 90
        2
176
     0
 90
        2
176
     0
 90
        0
176
     0
 90
        0
176
     0
 40
0.6
176
     0
 40
30.0
176
     0
 62
     7
420
 16777215
176
     0
 90
        1
176
     0
 90
        4
176
     0
 62
     7
176
     0
 62
   257
176
     0
 90
        1
176
     0
 90
        1
176
     0
 40
1.0
176
     0
 90
        9
176
     2
 62
     7
176
     0
 40
1.0
176
     0
 90
        1
176
     0
 90
        6
176
     0
 90
        2
176
     0
 62
     7
176
     0
 90
        5
176
     0
 90
        0
176
     0
 90
        0
176
     0
290
     0
176
     0
 90
        1
176
     0
 40
0.0
176
     0
 90
        0
176
     0
290
     0
176
     0
290
     1
176
     0
290
     1
176
     0
290
     0
176
     0
290
     0
176
     0
290
     0
176
     0
290
     0
176
     0
290
     0
176
     0
290
     0
176
     0
 90
       50
176
     0
 40
0.0
176
     0
 40
1.0
176
     0
 90
        0
176
     0
 62
    18
420
        0
176
     0
 90
       50
176
     0
 90
        3
176
     0
 62
     5
420
      255
176
     0
290
     0
176
     0
 90
       50
176
     0
 90
       50
176
     0
 90
       50
176
     0
290
     0
176
     0
 90
       50
176
     0
 62
   256
176
     0
 40
1.0
176
     0
 90
        2
176
     0
  1
strokes_ogs.tif
176
     0
290
     0
176
     0
 40
1.0
176
     0
 40
1.0
176
     0
  0
VISUALSTYLE
  5
33
102
{ACAD_REACTORS
330
29
102
}
330
29
100
AcDbVisualStyle
  2
Realistic
 70
     8
177
     3
291
     0
 70
    58
 90
        2
176
     1
 90
        3
176
     1
 90
        0
176
     1
 90
        2
176
     1
 40
0.6
176
     1
 40
30.0
176
     1
 62
     7
420
 16777215
176
     1
 90
        0
176
     1
 90
        0
176
     1
 62
     7
176
     1
 62
   257
176
     1
 90
        1
176
     1
 90
        1
176
     1
 40
1.0
176
     1
 90
        8
176
     1
 62
   257
176
     1
 40
1.0
176
     1
 90
        1
176
     1
 90
        6
176
     1
 90
        2
176
     1
 62
     7
176
     1
 90
        3
176
     1
 90
        0
176
     1
 90
        0
176
     1
290
     0
176
     1
 90
       13
176
     1
 40
0.0
176
     1
 90
        0
176
     1
290
     0
176
     1
290
     1
176
     1
290
     1
176
     1
290
     0
176
     1
290
     0
176
     1
290
     0
176
     1
290
     0
176
     1
290
     0
176
     1
290
     0
176
     1
 90
       50
176
     1
 40
0.0
176
     1
 40
1.0
176
     1
 90
        0
176
     1
 62
    18
420
        0
176
     1
 90
       50
176
     1
 90
        3
176
     1
 62
     5
420
      255
176
     1
290
     0
176
     1
 90
       50
176
     1
 90
       50
176
     1
 90
       50
176
     1
290
     0
176
     1
 90
       50
176
     1
 62
   256
176
     0
 40
1.0
176
     0
 90
        2
176
     1
  1
strokes_ogs.tif
176
     1
290
     0
176
     1
 40
1.0
176
     1
 40
1.0
176
     1
  0
VISUALSTYLE
  5
3E
102
{ACAD_REACTORS
330
29
102
}
330
29
100
AcDbVisualStyle
  2
Shaded
 70
    27
177
     3
291
     0
 70
    58
 90
        2
176
     1
 90
        2
176
     1
 90
        1
176
     1
 90
        2
176
     1
 40
0.6
176
     1
 40
30.0
176
     1
 62
     7
420
 16777215
176
     1
 90
        0
176
     1
 90
        4
176
     1
 62
     7
176
     1
 62
   257
176
     1
 90
        1
176
     1
 90
        1
176
     1
 40
1.0
176
     1
 90
        8
176
     1
 62
   257
176
     1
 40
1.0
176
     1
 90
        1
176
     1
 90
        6
176
     1
 90
        2
176
     1
 62
     8
420
  7895160
176
     1
 90
        3
176
     1
 90
        0
176
     1
 90
        0
176
     1
290
     0
176
     1
 90
        5
176
     1
 40
0.0
176
     1
 90
        0
176
     1
290
     0
176
     1
290
     1
176
     1
290
     1
176
     1
290
     0
176
     1
290
     0
176
     1
290
     0
176
     1
290
     0
176
     1
290
     0
176
     1
290
     0
176
     1
 90
       50
176
     1
 40
0.0
176
     1
 40
1.0
176
     1
 90
        0
176
     1
 62
    18
420
        0
176
     1
 90
       50
176
     1
 90
        3
176
     1
 62
     5
420
      255
176
     1
290
     0
176
     1
 90
       50
176
     1
 90
       50
176
     1
 90
       50
176
     1
290
     0
176
     1
 90
       50
176
     1
 62
   256
176
     0
 40
1.0
176
     0
 90
        2
176
     1
  1
strokes_ogs.tif
176
     1
290
     0
176
     1
 40
1.0
176
     1
 40
1.0
176
     1
  0
VISUALSTYLE
  5
3D
102
{ACAD_REACTORS
330
29
102
}
330
29
100
AcDbVisualStyle
  2
Shaded with edges
 70
    26
177
     3
291
     0
 70
    58
 90
        2
176
     1
 90
        2
176
     1
 90
        1
176
     1
 90
        2
176
     1
 40
0.6
176
     1
 40
30.0
176
     1
 62
     7
420
 16777215
176
     1
 90
        1
176
     1
 90
        2
176
     1
 62
     7
176
     1
 62
   257
176
     1
 90
        2
176
     1
 90
        1
176
     1
 40
1.0
176
     1
 90
        8
176
     1
 62
   257
176
     1
 40
1.0
176
     1
 90
        1
176
     1
 90
        6
176
     1
 90
        2
176
     1
 62
     7
176
     1
 90
        3
176
     1
 90
        0
176
     1
 90
        0
176
     1
290
     0
176
     1
 90
        5
176
     1
 40
0.0
176
     1
 90
        0
176
     1
290
     0
176
     1
290
     1
176
     1
290
     1
176
     1
290
     0
176
     1
290
     0
176
     1
290
     0
176
     1
290
     0
176
     1
290
     0
176
     1
290
     0
176
     1
 90
       50
176
     1
 40
0.0
176
     1
 40
1.0
176
     1
 90
        0
176
     1
 62
    18
420
        0
176
     1
 90
       50
176
     1
 90
        3
176
     1
 62
     5
420
      255
176
     1
290
     0
176
     1
 90
       50
176
     1
 90
       50
176
     1
 90
       50
176
     1
290
     0
176
     1
 90
       50
176
     1
 62
   256
176
     0
 40
1.0
176
     0
 90
        2
176
     1
  1
strokes_ogs.tif
176
     1
290
     0
176
     1
 40
1.0
176
     1
 40
1.0
176
     1
  0
VISUALSTYLE
  5
3A
102
{ACAD_REACTORS
330
29
102
}
330
29
100
AcDbVisualStyle
  2
Shades of Gray
 70
    23
177
     3
291
     0
 70
    58
 90
        2
176
     1
 90
        2
176
     1
 90
        3
176
     1
 90
        0
176
     1
 40
0.6
176
     1
 40
30.0
176
     1
 62
     7
420
 16777215
176
     1
 90
        2
176
     1
 90
        2
176
     1
 62
     7
176
     1
 62
     7
176
     1
 90
        1
176
     1
 90
        1
176
     1
 40
40.0
176
     1
 90
        8
176
     1
 62
     7
176
     1
 40
1.0
176
     1
 90
        1
176
     1
 90
        6
176
     1
 90
        2
176
     1
 62
     7
176
     1
 90
        3
176
     1
 90
        0
176
     1
 90
        0
176
     1
290
     0
176
     1
 90
        1
176
     1
 40
0.0
176
     1
 90
        0
176
     1
290
     0
176
     1
290
     1
176
     1
290
     1
176
     1
290
     0
176
     1
290
     0
176
     1
290
     0
176
     1
290
     0
176
     1
290
     0
176
     1
290
     0
176
     1
 90
       50
176
     1
 40
0.0
176
     1
 40
1.0
176
     1
 90
        0
176
     1
 62
    18
420
        0
176
     1
 90
       50
176
     1
 90
        3
176
     1
 62
     5
420
      255
176
     1
290
     0
176
     1
 90
       50
176
     1
 90
       50
176
     1
 90
       50
176
     1
290
     0
176
     1
 90
       50
176
     1
 62
   256
176
     0
 40
1.0
176
     0
 90
        2
176
     1
  1
strokes_ogs.tif
176
     1
290
     0
176
     1
 40
1.0
176
     1
 40
1.0
176
     1
  0
VISUALSTYLE
  5
3B
102
{ACAD_REACTORS
330
29
102
}
330
29
100
AcDbVisualStyle
  2
Sketchy
 70
    24
177
     3
291
     0
 70
    58
 90
        1
176
     1
 90
        2
176
     1
 90
        2
176
     1
 90
        0
176
     1
 40
0.6
176
     1
 40
30.0
176
     1
 62
     7
420
 16777215
176
     1
 90
        2
176
     1
 90
        2
176
     1
 62
     7
176
     1
 62
     7
176
     1
 90
        1
176
     1
 90
        1
176
     1
 40
40.0
176
     1
 90
       11
176
     1
 62
     7
176
     1
 40
1.0
176
     1
 90
        1
176
     1
 90
        6
176
     1
 90
        2
176
     1
 62
     7
176
     1
 90
        6
176
     1
 90
        0
176
     1
 90
        0
176
     1
290
     0
176
     1
 90
        1
176
     1
 40
0.0
176
     1
 90
        0
176
     1
290
     0
176
     1
290
     1
176
     1
290
     1
176
     1
290
     0
176
     1
290
     0
176
     1
290
     0
176
     1
290
     0
176
     1
290
     0
176
     1
290
     0
176
     1
 90
       50
176
     1
 40
0.0
176
     1
 40
1.0
176
     1
 90
        0
176
     1
 62
    18
420
        0
176
     1
 90
       50
176
     1
 90
        3
176
     1
 62
     5
420
      255
176
     1
290
     0
176
     1
 90
       50
176
     1
 90
       50
176
     1
 90
       50
176
     1
290
     0
176
     1
 90
       50
176
     1
 62
   256
176
     0
 40
1.0
176
     0
 90
        2
176
     1
  1
strokes_ogs.tif
176
     1
290
     0
176
     1
 40
1.0
176
     1
 40
1.0
176
     1
  0
VISUALSTYLE
  5
36
102
{ACAD_REACTORS
330
29
102
}
330
29
100
AcDbVisualStyle
  2
Thicken
 70
    13
177
     3
291
     1
 70
    58
 90
        2
176
     1
 90
        2
176
     1
 90
        0
176
     1
 90
        0
176
     1
 40
0.6
176
     1
 40
30.0
176
     1
 62
     7
420
 16777215
176
     1
 90
        1
176
     1
 90
        4
176
     1
 62
     7
176
     1
 62
   257
176
     1
 90
        1
176
     1
 90
        1
176
     1
 40
1.0
176
     1
 90
       12
176
     1
 62
     7
176
     1
 40
1.0
176
     1
 90
        1
176
     1
 90
        6
176
     1
 90
        2
176
     1
 62
     7
176
     1
 90
        5
176
     1
 90
        0
176
     1
 90
        0
176
     1
290
     0
176
     1
 90
        1
176
     1
 40
0.0
176
     1
 90
        0
176
     1
290
     0
176
     1
290
     1
176
     1
290
     1
176
     1
290
     0
176
     1
290
     0
176
     1
290
     0
176
     1
290
     0
176
     1
290
     0
176
     1
290
     0
176
     1
 90
       50
176
     1
 40
0.0
176
     1
 40
1.0
176
     1
 90
        0
176
     1
 62
    18
420
        0
176
     1
 90
       50
176
     1
 90
        3
176
     1
 62
     5
420
      255
176
     1
290
     0
176
     1
 90
       50
176
     1
 90
       50
176
     1
 90
       50
176
     1
290
     0
176
     1
 90
       50
176
     1
 62
   256
176
     0
 40
1.0
176
     0
 90
        2
176
     1
  1
strokes_ogs.tif
176
     1
290
     0
176
     1
 40
1.0
176
     1
 40
1.0
176
     1
  0
VISUALSTYLE
  5
30
102
{ACAD_REACTORS
330
29
102
}
330
29
100
AcDbVisualStyle
  2
Wireframe
 70
     5
177
     3
291
     0
 70
    58
 90
        0
176
     1
 90
        2
176
     1
 90
        0
176
     1
 90
        0
176
     1
 40
0.6
176
     1
 40
30.0
176
     1
 62
     7
420
 16777215
176
     1
 90
        1
176
     1
 90
        4
176
     1
 62
     7
176
     1
 62
   257
176
     1
 90
        1
176
     1
 90
        1
176
     1
 40
1.0
176
     1
 90
        0
176
     1
 62
   257
176
     1
 40
1.0
176
     1
 90
        1
176
     1
 90
        6
176
     1
 90
        2
176
     1
 62
     7
176
     1
 90
        3
176
     1
 90
        0
176
     1
 90
        0
176
     1
290
     0
176
     1
 90
        1
176
     1
 40
0.0
176
     1
 90
        0
176
     1
290
     0
176
     1
290
     1
176
     1
290
     1
176
     1
290
     0
176
     1
290
     0
176
     1
290
     0
176
     1
290
     0
176
     1
290
     0
176
     1
290
     0
176
     1
 90
       50
176
     1
 40
0.0
176
     1
 40
1.0
176
     1
 90
        0
176
     1
 62
    18
420
        0
176
     1
 90
       50
176
     1
 90
        3
176
     1
 62
     5
420
      255
176
     1
290
     0
176
     1
 90
       50
176
     1
 90
       50
176
     1
 90
       50
176
     1
290
     0
176
     1
 90
       50
176
     1
 62
   256
176
     0
 40
1.0
176
     0
 90
        2
176
     1
  1
strokes_ogs.tif
176
     1
290
     0
176
     1
 40
1.0
176
     1
 40
1.0
176
     1
  0
VISUALSTYLE
  5
3C
102
{ACAD_REACTORS
330
29
102
}
330
29
100
AcDbVisualStyle
  2
X-Ray
 70
    25
177
     3
291
     0
 70
    58
 90
        2
176
     1
 90
        2
176
     1
 90
        1
176
     1
 90
        1
176
     1
 40
0.5
176
     1
 40
30.0
176
     1
 62
     7
420
 16777215
176
     1
 90
        1
176
     1
 90
        0
176
     1
 62
     7
176
     1
 62
   257
176
     1
 90
        1
176
     1
 90
        1
176
     1
 40
1.0
176
     1
 90
        8
176
     1
 62
     7
176
     1
 40
1.0
176
     1
 90
        1
176
     1
 90
        6
176
     1
 90
        2
176
     1
 62
     7
176
     1
 90
        3
176
     1
 90
        0
176
     1
 90
        0
176
     1
290
     0
176
     1
 90
       13
176
     1
 40
0.0
176
     1
 90
        0
176
     1
290
     0
176
     1
290
     1
176
     1
290
     1
176
     1
290
     0
176
     1
290
     0
176
     1
290
     0
176
     1
290
     0
176
     1
290
     0
176
     1
290
     0
176
     1
 90
       50
176
     1
 40
0.0
176
     1
 40
1.0
176
     1
 90
        0
176
     1
 62
    18
420
        0
176
     1
 90
       50
176
     1
 90
        3
176
     1
 62
     5
420
      255
176
     1
290
     0
176
     1
 90
       50
176
     1
 90
       50
176
     1
 90
       50
176
     1
290
     0
176
     1
 90
       50
176
     1
 62
   256
176
     0
 40
1.0
176
     0
 90
        2
176
     1
  1
strokes_ogs.tif
176
     1
290
     0
176
     1
 40
1.0
176
     1
 40
1.0
176
     1
  0
DICTIONARYVAR
  5
AA
102
{ACAD_REACTORS
330
A5
102
}
330
A5
100
DictionaryVariables
280
     0
  1
1:1
  0
DICTIONARYVAR
  5
A7
102
{ACAD_REACTORS
330
A5
102
}
330
A5
100
DictionaryVariables
280
     0
  1
STANDARD
  0
DICTIONARYVAR
  5
A6
102
{ACAD_REACTORS
330
A5
102
}
330
A5
100
DictionaryVariables
280
     0
  1
STANDARD
  0
DICTIONARYVAR
  5
A8
102
{ACAD_REACTORS
330
A5
102
}
330
A5
100
DictionaryVariables
280
     0
  1
Imperial24
  0
DICTIONARYVAR
  5
A9
102
{ACAD_REACTORS
330
A5
102
}
330
A5
100
DictionaryVariables
280
     0
  1
Imperial24
  0
DICTIONARY
  5
1A
330
19
100
AcDbDictionary
280
     1
281
     1
  3
BUMPTILE
360
1C
  3
DIFFUSETILE
360
1B
  3
OPACITYTILE
360
1F
  3
REFLECTIONTILE
360
1E
  3
REFRACTIONTILE
360
20
  3
SPECULARTILE
360
1D
  0
DICTIONARY
  5
12
330
11
100
AcDbDictionary
280
     1
281
     1
  3
BUMPTILE
360
14
  3
DIFFUSETILE
360
13
  3
OPACITYTILE
360
17
  3
REFLECTIONTILE
360
16
  3
REFRACTIONTILE
360
18
  3
SPECULARTILE
360
15
  0
DICTIONARY
  5
22
330
21
100
AcDbDictionary
280
     1
281
     1
  3
BUMPTILE
360
24
  3
DIFFUSETILE
360
23
  3
OPACITYTILE
360
27
  3
REFLECTIONTILE
360
26
  3
REFRACTIONTILE
360
28
  3
SPECULARTILE
360
25
  0
DICTIONARY
  5
AB
330
65
100
AcDbDictionary
280
     1
281
     1
  3
ACAD_ROUNDTRIP_2008_TABLESTYLE_CELLSTYLEMAP
360
AC
  0
XRECORD
  5
1C
102
{ACAD_REACTORS
330
1A
102
}
330
1A
100
AcDbXrecord
280
     1
270
     1
271
     1
  0
XRECORD
  5
1B
102
{ACAD_REACTORS
330
1A
102
}
330
1A
100
AcDbXrecord
280
     1
270
     1
271
     1
  0
XRECORD
  5
1F
102
{ACAD_REACTORS
330
1A
102
}
330
1A
100
AcDbXrecord
280
     1
270
     1
271
     1
  0
XRECORD
  5
1E
102
{ACAD_REACTORS
330
1A
102
}
330
1A
100
AcDbXrecord
280
     1
270
     1
271
     1
  0
XRECORD
  5
20
102
{ACAD_REACTORS
330
1A
102
}
330
1A
100
AcDbXrecord
280
     1
270
     1
271
     1
  0
XRECORD
  5
1D
102
{ACAD_REACTORS
330
1A
102
}
330
1A
100
AcDbXrecord
280
     1
270
     1
271
     1
  0
XRECORD
  5
14
102
{ACAD_REACTORS
330
12
102
}
330
12
100
AcDbXrecord
280
     1
270
     1
271
     1
  0
XRECORD
  5
13
102
{ACAD_REACTORS
330
12
102
}
330
12
100
AcDbXrecord
280
     1
270
     1
271
     1
  0
XRECORD
  5
17
102
{ACAD_REACTORS
330
12
102
}
330
12
100
AcDbXrecord
280
     1
270
     1
271
     1
  0
XRECORD
  5
16
102
{ACAD_REACTORS
330
12
102
}
330
12
100
AcDbXrecord
280
     1
270
     1
271
     1
  0
XRECORD
  5
18
102
{ACAD_REACTORS
330
12
102
}
330
12
100
AcDbXrecord
280
     1
270
     1
271
     1
  0
XRECORD
  5
15
102
{ACAD_REACTORS
330
12
102
}
330
12
100
AcDbXrecord
280
     1
270
     1
271
     1
  0
XRECORD
  5
24
102
{ACAD_REACTORS
330
22
102
}
330
22
100
AcDbXrecord
280
     1
270
     1
271
     1
  0
XRECORD
  5
23
102
{ACAD_REACTORS
330
22
102
}
330
22
100
AcDbXrecord
280
     1
270
     1
271
     1
  0
XRECORD
  5
27
102
{ACAD_REACTORS
330
22
102
}
330
22
100
AcDbXrecord
280
     1
270
     1
271
     1
  0
XRECORD
  5
26
102
{ACAD_REACTORS
330
22
102
}
330
22
100
AcDbXrecord
280
     1
270
     1
271
     1
  0
XRECORD
  5
28
102
{ACAD_REACTORS
330
22
102
}
330
22
100
AcDbXrecord
280
     1
270
     1
271
     1
  0
XRECORD
  5
25
102
{ACAD_REACTORS
330
22
102
}
330
22
100
AcDbXrecord
280
     1
270
     1
271
     1
  0
CELLSTYLEMAP
  5
AC
102
{ACAD_REACTORS
330
AB
102
}
330
AB
100
AcDbCellStyleMap
 90
        3
300
CELLSTYLE
  1
TABLEFORMAT_BEGIN
 90
        5
170
     1
 91
        0
 92
    32768
 62
   257
 93
        1
300
CONTENTFORMAT
  1
CONTENTFORMAT_BEGIN
 90
        0
 91
        0
 92
      512
 93
        0
300

 40
0.0
140
1.0
 94
        5
 62
     0
340
55
144
0.25
309
CONTENTFORMAT_END
171
     0
 94
        0
309
TABLEFORMAT_END
  1
CELLSTYLE_BEGIN
 90
        1
 91
        1
300
_TITLE
309
CELLSTYLE_END
300
CELLSTYLE
  1
TABLEFORMAT_BEGIN
 90
        5
170
     1
 91
        0
 92
        0
 62
   257
 93
        1
300
CONTENTFORMAT
  1
CONTENTFORMAT_BEGIN
 90
        0
 91
        0
 92
      512
 93
        0
300

 40
0.0
140
1.0
 94
        5
 62
     0
340
55
144
0.18
309
CONTENTFORMAT_END
171
     0
 94
        0
309
TABLEFORMAT_END
  1
CELLSTYLE_BEGIN
 90
        2
 91
        1
300
_HEADER
309
CELLSTYLE_END
300
CELLSTYLE
  1
TABLEFORMAT_BEGIN
 90
        5
170
     1
 91
        0
 92
        0
 62
   257
 93
        1
300
CONTENTFORMAT
  1
CONTENTFORMAT_BEGIN
 90
        0
 91
        0
 92
      512
 93
        0
300

 40
0.0
140
1.0
 94
        2
 62
     0
340
55
144
0.18
309
CONTENTFORMAT_END
171
     0
 94
        0
309
TABLEFORMAT_END
  1
CELLSTYLE_BEGIN
 90
        3
 91
        2
300
_DATA
309
CELLSTYLE_END
  0
ENDSEC
  0
EOF
